{
.appVersion = "3151";
.formatVersion = 3;
DisplayStrings = (
"ıiıíĭîï/idotaccent ìĳīįȷklnńŉoóŏôöò̋st
uúŭûüùűū
0123456789

źžżýŷÿỳýẃŵẅẁ

ůũ

ŕřŗōõņñń

/caroncomb.alt 
LĽdďlľtťľ"
);
customParameters = (
{
name = fsType;
value = (
);
},
{
name = "Use Typo Metrics";
value = 1;
}
);
date = "2023-02-03 14:51:38 +0000";
familyName = Warnes;
featurePrefixes = (
{
automatic = 1;
code = "languagesystem DFLT dflt;

languagesystem latn dflt;
languagesystem latn CAT;
";
name = Languagesystems;
},
{
code = "#
# Feature definitions
#

###
# OpenType Layout feature definitions
# Format: Adobe FDK for OpenType (AFDKO) version 2.5
# Generated on: 2013-11-26 12:36
# Generated by: Fontlab
# Tool options: fea-inline-lookups: yes, fea-inline-classes: 0, fea-additional-tables: yes, fea-table-overrides: no
# Font path: /Users/etunni/Documents/TIPOGRAFIAS 2013/Warnes-PRO/Warnes-Regular.vfb
# Font PostScript name: Warnes-Regular
# Font copyright: Copyright (c) 2012, Eduardo Tunni (http://www.tipo.net.ar), with Reserved Font Name 'Warnes'
#
# Totals:
# Languagesystems: 1
# GSUB lookups: 1
# GSUB features: 1 (liga)
# GPOS lookups: 1
# GPOS features: 1 (kern)

#
# Languagesystem definitions
#

#
# Lookup definitions
#
feature kern {
# GPOS feature: Kerning
# Lookups: 1

  script latn; # Latin
    lookup kern_latn_1 {
    # GPOS lookup 1, type 2 (Pair adjustment)
      pos \\f \\colon 100;
      pos \\f \\semicolon 100;
      pos \\f \\quotedblright 240;
      pos \\f \\quoteright 240;
      pos \\f \\quotedbl 215;
      pos \\f \\quotesingle 215;
      pos \\f \\guillemotright 70;
      pos \\f \\guilsinglright 70;
      pos \\F \\quotedblright 90;
      pos \\F \\quoteright 90;
      pos \\F \\quotedbl 100;
      pos \\F \\quotesingle 100;
    subtable;
      pos [\\v \\w \\oacute \\odieresis \\o \\ograve \\oslash \\ocircumflex \\otilde \\oslashacute \\omacron \\obreve \\ohungarumlaut \\wcircumflex \\wgrave \\wacute \\wdieresis] [\\quotedblright \\quoteright] 270;

glyphs = (
{
glyphname = A;
lastChange = "2023-02-03 15:38:25 +0000";
layers = (
{
anchors = (
{
name = bottom;
pos = (390,0);
},
{
name = ogonek;
pos = (774,37);
},
{
name = top;
pos = (441,710);
}
);
background = {
shapes = (
{
closed = 1;
nodes = (
(616,640,l),
(670,640,l),
(670,666,ls),
(670,693,o),
(661,720,o),
(616,720,cs),
(395,720,o),
(104,580,o),
(104,60,cs),
(104,0,l),
(139,0,ls),
(169,0,o),
(194,10,o),
(194,60,cs),
(194,151,o),
(204,230,o),
(222,299,c),
(526,299,l),
(526,60,ls),
(526,10,o),
(556,0,o),
(586,0,cs),
(899,0,ls),
(934,0,o),
(969,12,o),
(969,70,c),
(616,70,l,{
name = hr00;
})
);
},
{
closed = 1;
nodes = (
(526,374,l),
(247,374,l),
(306,521,o),
(409,603,o),
(526,630,c)
);
}
);
};
layerId = master01;
shapes = (
{
closed = 1;
nodes = (
(616,640,l),
(670,640,l),
(670,666,ls),
(670,693,o),
(661,720,o),
(616,720,cs),
(395,720,o),
(104,580,o),
(104,60,cs),
(104,0,l),
(139,0,ls),
(169,0,o),
(194,10,o),
(194,60,cs),
(194,151,o),
(204,230,o),
(222,299,c),
(526,299,l),
(526,60,ls),
(526,10,o),
(556,0,o),
(586,0,cs),
(899,0,ls),
(934,0,o),
(969,12,o),
(969,70,c),
(616,70,l,{
name = hr00;
})
);
},
{
closed = 1;
nodes = (
(526,374,l),
(247,374,l),
(306,521,o),
(409,603,o),
(526,630,c)
);
}
);
width = 779;
}
);
unicode = 65;
},
{
glyphname = Aacute;
lastChange = "2023-02-03 15:38:13 +0000";
layers = (
{
background = {
shapes = (
{
closed = 1;
nodes = (
(616,640,l),
(670,640,l),
(670,666,ls),
(670,693,o),
(661,720,o),
(616,720,cs),
(395,720,o),
(104,580,o),
(104,60,cs),
(104,0,l),
(139,0,ls),
(169,0,o),
(194,10,o),
(194,60,cs),
(194,151,o),
(204,230,o),
(222,299,c),
(526,299,l),
(526,60,ls),
(526,10,o),
(556,0,o),
(586,0,cs),
(899,0,ls),
(934,0,o),
(969,12,o),
(969,70,c),
(616,70,l,{
name = hr00;
})
);
},
{
closed = 1;
nodes = (
(526,374,l),
(247,374,l),
(306,521,o),
(409,603,o),
(526,630,c)
);
},
{
closed = 1;
nodes = (
(436,787,o),
(569,819,o),
(569,865,cs),
(569,878,o),
(562,896,o),
(545,922,cs),
(532,942,l),
(322,811,l),
(345,770,l)
);
}
);
};
layerId = master01;
shapes = (
{
ref = A;
},
{
pos = (204,0);
ref = acutecomb.case;
}
);
width = 779;
}
);
unicode = 193;
},
{
glyphname = Abreve;
lastChange = "2023-02-03 15:38:13 +0000";
layers = (
{
background = {
shapes = (
{
closed = 1;
nodes = (
(616,640,l),
(670,640,l),
(670,666,ls),
(670,693,o),
(661,720,o),
(616,720,cs),
(395,720,o),
(104,580,o),
(104,60,cs),
(104,0,l),
(139,0,ls),
(169,0,o),
(194,10,o),
(194,60,cs),
(194,151,o),
(204,230,o),
(222,299,c),
(526,299,l),
(526,60,ls),
(526,10,o),
(556,0,o),
(586,0,cs),
(899,0,ls),
(934,0,o),
(969,12,o),
(969,70,c),
(616,70,l,{
name = hr00;
})
);
},
{
closed = 1;
nodes = (
(526,374,l),
(247,374,l),
(306,521,o),
(409,603,o),
(526,630,c)
);
},
{
closed = 1;
nodes = (
(287,909,l),
(347,809,o),
(388,771,o),
(439,771,cs),
(490,771,o),
(531,809,o),
(591,909,c),
(551,942,l),
(439,849,l),
(327,942,l,{
name = hr00;
})
);
}
);
};
layerId = master01;
shapes = (
{
ref = A;
},
{
pos = (60,0);
ref = brevecomb.case;
}
);
width = 779;
}
);
unicode = 258;
},
{
glyphname = Acircumflex;
lastChange = "2023-02-03 15:46:51 +0000";
layers = (
{
background = {
shapes = (
{
closed = 1;
nodes = (
(616,640,l),
(670,640,l),
(670,666,ls),
(670,693,o),
(661,720,o),
(616,720,cs),
(395,720,o),
(104,580,o),
(104,60,cs),
(104,0,l),
(139,0,ls),
(169,0,o),
(194,10,o),
(194,60,cs),
(194,151,o),
(204,230,o),
(222,299,c),
(526,299,l),
(526,60,ls),
(526,10,o),
(556,0,o),
(586,0,cs),
(899,0,ls),
(934,0,o),
(969,12,o),
(969,70,c),
(616,70,l,{
name = hr00;
})
);
},
{
closed = 1;
nodes = (
(526,374,l),
(247,374,l),
(306,521,o),
(409,603,o),
(526,630,c)
);
},
{
closed = 1;
nodes = (
(476,942,l),
(436,942,l),
(291,811,l),
(315,771,l),
(376,784,o),
(432,817,o),
(456,845,c),
(477,820,o),
(539,783,o),
(597,771,c),
(621,811,l)
);
}
);
};
layerId = master01;
shapes = (
{
ref = A;
},
{
pos = (256,0);
ref = circumflexcomb.case;
}
);
width = 779;
}
);
unicode = 194;
},
{
glyphname = Adieresis;
lastChange = "2023-02-03 15:38:13 +0000";
layers = (
{
background = {
shapes = (
{
closed = 1;
nodes = (
(616,640,l),
(670,640,l),
(670,666,ls),
(670,693,o),
(661,720,o),
(616,720,cs),
(395,720,o),
(104,580,o),
(104,60,cs),
(104,0,l),
(139,0,ls),
(169,0,o),
(194,10,o),
(194,60,cs),
(194,151,o),
(204,230,o),
(222,299,c),
(526,299,l),
(526,60,ls),
(526,10,o),
(556,0,o),
(586,0,cs),
(899,0,ls),
(934,0,o),
(969,12,o),
(969,70,c),
(616,70,l,{
name = hr00;
})
);
},
{
closed = 1;
nodes = (
(526,374,l),
(247,374,l),
(306,521,o),
(409,603,o),
(526,630,c)
);
},
{
closed = 1;
nodes = (
(289,820,o),
(309,793,o),
(350,793,cs),
(390,793,o),
(412,820,o),
(412,854,cs),
(412,887,o),
(390,916,o),
(350,916,cs),
(309,916,o),
(289,887,o),
(289,854,cs)
);
},
{
closed = 1;
nodes = (
(511,820,o),
(531,793,o),
(572,793,cs),
(612,793,o),
(634,820,o),
(634,854,cs),
(634,887,o),
(612,916,o),
(572,916,cs),
(531,916,o),
(511,887,o),
(511,854,cs)
);
}
);
};
layerId = master01;
shapes = (
{
ref = A;
},
{
pos = (205,0);
ref = dieresiscomb.case;
}
);
width = 779;
}
);
unicode = 196;
},
{
glyphname = Agrave;
lastChange = "2023-02-03 15:38:13 +0000";
layers = (
{
background = {
shapes = (
{
closed = 1;
nodes = (
(616,640,l),
(670,640,l),
(670,666,ls),
(670,693,o),
(661,720,o),
(616,720,cs),
(395,720,o),
(104,580,o),
(104,60,cs),
(104,0,l),
(139,0,ls),
(169,0,o),
(194,10,o),
(194,60,cs),
(194,151,o),
(204,230,o),
(222,299,c),
(526,299,l),
(526,60,ls),
(526,10,o),
(556,0,o),
(586,0,cs),
(899,0,ls),
(934,0,o),
(969,12,o),
(969,70,c),
(616,70,l,{
name = hr00;
})
);
},
{
closed = 1;
nodes = (
(526,374,l),
(247,374,l),
(306,521,o),
(409,603,o),
(526,630,c)
);
},
{
closed = 1;
nodes = (
(340,942,l),
(327,922,ls),
(310,896,o),
(302,878,o),
(302,865,cs),
(302,819,o),
(435,787,o),
(527,770,c),
(549,811,l)
);
}
);
};
layerId = master01;
shapes = (
{
ref = A;
},
{
pos = (124,0);
ref = gravecomb.case;
}
);
width = 779;
}
);
unicode = 192;
},
{
glyphname = Amacron;
lastChange = "2023-02-03 15:38:13 +0000";
layers = (
{
background = {
shapes = (
{
closed = 1;
nodes = (
(616,640,l),
(670,640,l),
(670,666,ls),
(670,693,o),
(661,720,o),
(616,720,cs),
(395,720,o),
(104,580,o),
(104,60,cs),
(104,0,l),
(139,0,ls),
(169,0,o),
(194,10,o),
(194,60,cs),
(194,151,o),
(204,230,o),
(222,299,c),
(526,299,l),
(526,60,ls),
(526,10,o),
(556,0,o),
(586,0,cs),
(899,0,ls),
(934,0,o),
(969,12,o),
(969,70,c),
(616,70,l,{
name = hr00;
})
);
},
{
closed = 1;
nodes = (
(526,374,l),
(247,374,l),
(306,521,o),
(409,603,o),
(526,630,c)
);
},
{
closed = 1;
nodes = (
(599,819,ls),
(599,849,o),
(589,880,o),
(539,880,cs),
(279,880,l),
(279,854,ls),
(279,827,o),
(288,800,o),
(333,800,cs),
(599,800,l,{
name = hr00;
})
);
}
);
};
layerId = master01;
shapes = (
{
ref = A;
},
{
pos = (111,0);
ref = macroncomb.case;
}
);
width = 779;
}
);
unicode = 256;
},
{
glyphname = Aogonek;
lastChange = "2023-02-03 15:38:25 +0000";
layers = (
{
background = {
shapes = (
{
closed = 1;
nodes = (
(616,640,l),
(670,640,l),
(670,666,ls),
(670,693,o),
(661,720,o),
(616,720,cs),
(395,720,o),
(104,580,o),
(104,60,cs),
(104,0,l),
(139,0,ls),
(169,0,o),
(194,10,o),
(194,60,cs),
(194,151,o),
(204,230,o),
(222,299,c),
(526,299,l),
(526,60,ls),
(526,10,o),
(556,0,o),
(586,0,cs),
(899,0,ls),
(934,0,o),
(969,12,o),
(969,70,c),
(616,70,l,{
name = hr00;
})
);
},
{
closed = 1;
nodes = (
(526,374,l),
(247,374,l),
(306,521,o),
(409,603,o),
(526,630,c)
);
},
{
closed = 1;
nodes = (
(536,37,o),
(500,-36,o),
(500,-98,cs),
(500,-159,o),
(537,-238,o),
(652,-238,cs),
(728,-238,o),
(774,-217,o),
(774,-162,cs),
(774,-152,o),
(773,-141,o),
(770,-129,c),
(734,-150,o),
(700,-158,o),
(672,-158,cs),
(617,-158,o),
(587,-130,o),
(587,-81,cs),
(587,-29,o),
(629,0,o),
(688,0,c),
(688,37,l,{
name = hr00;
})
);
}
);
};
layerId = master01;
shapes = (
{
ref = A;
},
{
pos = (175,0);
ref = ogonekcomb;
}
);
width = 779;
}
);
unicode = 260;
},
{
glyphname = Aring;
lastChange = "2023-02-03 15:38:52 +0000";
layers = (
{
background = {
shapes = (
{
closed = 1;
nodes = (
(616,640,l),
(670,640,l),
(670,666,ls),
(670,693,o),
(661,720,o),
(616,720,cs),
(395,720,o),
(104,580,o),
(104,60,cs),
(104,0,l),
(139,0,ls),
(169,0,o),
(194,10,o),
(194,60,cs),
(194,151,o),
(204,230,o),
(222,299,c),
(526,299,l),
(526,60,ls),
(526,10,o),
(556,0,o),
(586,0,cs),
(899,0,ls),
(934,0,o),
(969,12,o),
(969,70,c),
(616,70,l)
);
},
{
closed = 1;
nodes = (
(526,374,l),
(247,374,l),
(306,521,o),
(409,603,o),
(526,630,c)
);
},
{
closed = 1;
nodes = (
(507,761,o),
(545,811,o),
(545,877,cs,{
name = hr01;
}),
(545,944,o),
(507,994,o),
(426,994,cs),
(345,994,o),
(307,944,o),
(307,877,cs),
(307,811,o),
(345,761,o),
(426,761,c)
);
},
{
closed = 1;
nodes = (
(389,825,o),
(372,847,o),
(372,877,cs),
(372,908,o),
(389,930,o),
(426,930,cs),
(463,930,o),
(480,908,o),
(480,877,cs),
(480,847,o),
(463,825,o),
(426,825,cs)
);
}
);
};
layerId = master01;
shapes = (
{
ref = A;
},
{
pos = (293,0);
ref = ringcomb.case;
}
);
width = 779;
}
);
unicode = 197;
},
{
glyphname = Aringacute;
lastChange = "2023-02-03 15:38:41 +0000";
layers = (
{
background = {
shapes = (
{
closed = 1;
nodes = (
(616,640,l),
(670,640,l),
(670,666,ls),
(670,693,o),
(661,720,o),
(616,720,cs),
(395,720,o),
(104,580,o),
(104,60,cs),
(104,0,l),
(139,0,ls),
(169,0,o),
(194,10,o),
(194,60,cs),
(194,151,o),
(204,230,o),
(222,299,c),
(526,299,l),
(526,60,ls),
(526,10,o),
(556,0,o),
(586,0,cs),
(899,0,ls),
(934,0,o),
(969,12,o),
(969,70,c),
(616,70,l,{
name = hr00;
})
);
},
{
closed = 1;
nodes = (
(526,374,l),
(247,374,l),
(306,521,o),
(409,603,o),
(526,630,c)
);
},
{
closed = 1;
nodes = (
(508,741,o),
(546,791,o),
(546,857,cs),
(546,890,o),
(537,918,o),
(518,939,c),
(567,955,o),
(607,976,o),
(607,1000,cs),
(607,1013,o),
(601,1030,o),
(585,1054,cs),
(572,1073,l),
(412,973,l),
(341,967,o),
(308,919,o),
(308,857,cs),
(308,791,o),
(346,741,o),
(427,741,cs)
);
},
{
closed = 1;
nodes = (
(390,805,o),
(373,827,o),
(373,857,cs),
(373,888,o),
(390,910,o),
(427,910,cs,{
name = hr01;
}),
(464,910,o),
(481,888,o),
(481,857,cs),
(481,827,o),
(464,805,o),
(427,805,cs)
);
}
);
};
layerId = master01;
shapes = (
{
closed = 1;
nodes = (
(508,741,o),
(546,791,o),
(546,857,cs),
(546,890,o),
(537,918,o),
(518,939,c),
(567,955,o),
(607,976,o),
(607,1000,cs),
(607,1013,o),
(601,1030,o),
(585,1054,cs),
(572,1073,l),
(412,973,l),
(341,967,o),
(308,919,o),
(308,857,cs),
(308,791,o),
(346,741,o),
(427,741,cs)
);
},
{
ref = A;
},
{
closed = 1;
nodes = (
(390,805,o),
(373,827,o),
(373,857,cs),
(373,888,o),
(390,910,o),
(427,910,cs,{
name = hr01;
}),
(464,910,o),
(481,888,o),
(481,857,cs),
(481,827,o),
(464,805,o),
(427,805,cs)
);
}
);
width = 779;
}
);
unicode = 506;
},
{
glyphname = Atilde;
lastChange = "2023-02-03 15:38:13 +0000";
layers = (
{
background = {
shapes = (
{
closed = 1;
nodes = (
(616,640,l),
(670,640,l),
(670,666,ls),
(670,693,o),
(661,720,o),
(616,720,cs),
(395,720,o),
(104,580,o),
(104,60,cs),
(104,0,l),
(139,0,ls),
(169,0,o),
(194,10,o),
(194,60,cs),
(194,151,o),
(204,230,o),
(222,299,c),
(526,299,l),
(526,60,ls),
(526,10,o),
(556,0,o),
(586,0,cs),
(899,0,ls),
(934,0,o),
(969,12,o),
(969,70,c),
(616,70,l)
);
},
{
closed = 1;
nodes = (
(526,374,l),
(247,374,l),
(306,521,o),
(409,603,o),
(526,630,c)
);
},
{
closed = 1;
nodes = (
(312,889,o),
(310,872,o),
(310,859,cs),
(310,815,o),
(348,783,o),
(398,783,cs),
(417,783,o),
(438,787,o),
(460,797,cs),
(494,812,ls),
(522,824,o),
(541,830,o),
(554,830,cs,{
name = hr01;
}),
(573,830,o),
(584,822,o),
(596,811,cs),
(622,786,l),
(641,807,o),
(643,824,o),
(643,837,cs),
(643,881,o),
(605,913,o),
(555,913,cs),
(536,913,o),
(515,909,o),
(493,899,cs),
(459,884,ls),
(431,872,o),
(412,866,o),
(399,866,cs,{
name = hr02;
}),
(380,866,o),
(369,874,o),
(357,885,cs),
(331,910,l)
);
}
);
};
layerId = master01;
shapes = (
{
ref = A;
},
{
pos = (103,0);
ref = tildecomb.case;
}
);
width = 779;
}
);
unicode = 195;
},
{
glyphname = AE;
lastChange = "2023-02-03 15:43:46 +0000";
layers = (
{
anchors = (
{
name = bottom;
pos = (484,0);
},
{
name = top;
pos = (546,710);
}
);
background = {
shapes = (
{
closed = 1;
nodes = (
(139,0,ls),
(169,0,o),
(194,10,o),
(194,60,cs),
(194,152,o),
(204,231,o),
(222,299,c),
(507,299,l),
(519,153,o),
(601,0,o),
(856,0,cs),
(1087,0,ls),
(1122,0,o),
(1157,12,o),
(1157,70,c),
(860,70,ls),
(658,70,o),
(606,206,o),
(597,299,c),
(790,299,ls),
(825,299,o),
(860,316,o),
(860,374,c),
(596,374,l),
(603,493,o),
(651,630,o),
(860,630,cs),
(942,630,l),
(942,656,ls),
(942,683,o),
(933,710,o),
(888,710,cs),
(866,710,ls),
(785,710,o),
(720,694,o),
(669,667,c),
(667,690,o),
(654,710,o),
(616,710,cs),
(395,710,o),
(104,580,o),
(104,60,cs),
(104,0,l,{
name = hr00;
})
);
},
{
closed = 1;
nodes = (
(248,374,l),
(322,553,o),
(464,630,o),
(615,630,c),
(544,567,o),
(513,474,o),
(507,374,c)
);
}
);
};
layerId = master01;
shapes = (
{
closed = 1;
nodes = (
(139,0,ls),
(169,0,o),
(194,10,o),
(194,60,cs),
(194,152,o),
(204,231,o),
(222,299,c),
(507,299,l),
(519,153,o),
(601,0,o),
(856,0,cs),
(1087,0,ls),
(1122,0,o),
(1157,12,o),
(1157,70,c),
(860,70,ls),
(658,70,o),
(606,206,o),
(597,299,c),
(790,299,ls),
(825,299,o),
(860,316,o),
(860,374,c),
(596,374,l),
(603,493,o),
(651,630,o),
(860,630,cs),
(942,630,l),
(942,656,ls),
(942,683,o),
(933,710,o),
(888,710,cs),
(866,710,ls),
(785,710,o),
(720,694,o),
(669,667,c),
(667,690,o),
(654,710,o),
(616,710,cs),
(395,710,o),
(104,580,o),
(104,60,cs),
(104,0,l,{
name = hr00;
})
);
},
{
closed = 1;
nodes = (
(248,374,l),
(322,553,o),
(464,630,o),
(615,630,c),
(544,567,o),
(513,474,o),
(507,374,c)
);
}
);
width = 967;
}
);
unicode = 198;
},
{
glyphname = AEacute;
lastChange = "2023-02-03 15:43:46 +0000";
layers = (
{
background = {
shapes = (
{
closed = 1;
nodes = (
(139,0,ls),
(169,0,o),
(194,10,o),
(194,60,cs),
(194,152,o),
(204,231,o),
(222,299,c),
(507,299,l),
(519,153,o),
(601,0,o),
(856,0,cs),
(1087,0,ls),
(1122,0,o),
(1157,12,o),
(1157,70,c),
(860,70,ls),
(658,70,o),
(606,206,o),
(597,299,c),
(790,299,ls),
(825,299,o),
(860,316,o),
(860,374,c),
(596,374,l),
(603,493,o),
(651,630,o),
(860,630,cs),
(942,630,l),
(942,656,ls),
(942,683,o),
(933,710,o),
(888,710,cs),
(866,710,ls),
(785,710,o),
(720,694,o),
(669,667,c),
(667,690,o),
(654,710,o),
(616,710,cs),
(395,710,o),
(104,580,o),
(104,60,cs),
(104,0,l,{
name = hr00;
})
);
},
{
closed = 1;
nodes = (
(248,374,l),
(322,553,o),
(464,630,o),
(615,630,c),
(544,567,o),
(513,474,o),
(507,374,c)
);
},
{
closed = 1;
nodes = (
(586,787,o),
(719,819,o),
(719,865,cs),
(719,878,o),
(712,896,o),
(695,922,cs),
(682,942,l),
(472,811,l),
(495,770,l,{
name = hr00;
})
);
}
);
};
layerId = master01;
shapes = (
{
ref = AE;
},
{
pos = (309,0);
ref = acutecomb.case;
}
);
width = 967;
}
);
unicode = 508;
},
{
glyphname = B;
lastChange = "2023-02-03 14:58:37 +0000";
layers = (
{
anchors = (
{
name = bottom;
pos = (367,0);
},
{
name = center;
pos = (367,355);
},
{
name = top;
pos = (367,710);
}
);
background = {
shapes = (
{
closed = 1;
nodes = (
(106,60,ls),
(106,10,o),
(136,0,o),
(166,0,cs),
(853,0,ls),
(888,0,o),
(923,12,o),
(923,70,c),
(482,70,l),
(624,144,o),
(691,264,o),
(691,357,cs),
(691,427,o),
(651,437,o),
(601,437,cs),
(583,437,l),
(636,481,o),
(660,542,o),
(660,581,cs,{
name = hr01;
}),
(660,689,o),
(613,710,o),
(468,710,cs),
(139,710,ls),
(116,710,o),
(90,700,o),
(90,650,cs),
(90,630,l),
(160,630,l),
(160,120,l),
(189,120,ls),
(219,120,o),
(250,130,o),
(250,180,cs),
(250,630,l),
(468,630,ls),
(545,630,o),
(570,622,o),
(570,581,cs),
(570,538,o),
(528,437,o),
(427,437,cs),
(294,437,l),
(294,367,o),
(345,343,o),
(390,343,cs),
(423,343,o),
(462,352,o),
(489,367,c,{
name = hr02;
}),
(611,367,l),
(611,279,o),
(512,70,o),
(179,70,cs),
(106,70,l)
);
}
);
};
layerId = master01;
shapes = (
{
closed = 1;
nodes = (
(106,60,ls),
(106,10,o),
(136,0,o),
(166,0,cs),
(853,0,ls),
(888,0,o),
(923,12,o),
(923,70,c),
(482,70,l),
(624,144,o),
(691,264,o),
(691,357,cs),
(691,427,o),
(651,437,o),
(601,437,cs),
(583,437,l),
(636,481,o),
(660,542,o),
(660,581,cs,{
name = hr01;
}),
(660,689,o),
(613,710,o),
(468,710,cs),
(139,710,ls),
(116,710,o),
(90,700,o),
(90,650,cs),
(90,630,l),
(160,630,l),
(160,120,l),
(189,120,ls),
(219,120,o),
(250,130,o),
(250,180,cs),
(250,630,l),
(468,630,ls),
(545,630,o),
(570,622,o),
(570,581,cs),
(570,538,o),
(528,437,o),
(427,437,cs),
(294,437,l),
(294,367,o),
(345,343,o),
(390,343,cs),
(423,343,o),
(462,352,o),
(489,367,c,{
name = hr02;
}),
(611,367,l),
(611,279,o),
(512,70,o),
(179,70,cs),
(106,70,l)
);
}
);
width = 733;
}
);
unicode = 66;
},
{
glyphname = C;
lastChange = "2023-02-03 15:44:14 +0000";
layers = (
{
anchors = (
{
name = bottom;
pos = (372,0);
},
{
name = top;
pos = (378,710);
}
);
background = {
shapes = (
{
closed = 1;
nodes = (
(175,430,o),
(303,640,o),
(532,640,cs),
(586,640,l),
(586,666,ls),
(586,693,o),
(577,720,o),
(532,720,cs),
(311,720,o),
(85,553,o),
(85,80,cs),
(85,10,o),
(125,0,o),
(175,0,cs),
(675,0,ls),
(710,0,o),
(745,12,o),
(745,70,c),
(175,70,l,{
name = hr00;
})
);
}
);
};
layerId = master01;
shapes = (
{
closed = 1;
nodes = (
(175,430,o),
(303,640,o),
(532,640,cs),
(586,640,l),
(586,666,ls),
(586,693,o),
(577,720,o),
(532,720,cs),
(311,720,o),
(85,553,o),
(85,80,cs),
(85,10,o),
(125,0,o),
(175,0,cs),
(675,0,ls),
(710,0,o),
(745,12,o),
(745,70,c),
(175,70,l,{
name = hr00;
})
);
}
);
width = 555;
}
);
unicode = 67;
},
{
glyphname = Cacute;
lastChange = "2023-02-03 15:44:07 +0000";
layers = (
{
background = {
shapes = (
{
closed = 1;
nodes = (
(175,430,o),
(303,640,o),
(532,640,cs),
(586,640,l),
(586,666,ls),
(586,693,o),
(577,720,o),
(532,720,cs),
(311,720,o),
(85,553,o),
(85,80,cs),
(85,10,o),
(125,0,o),
(175,0,cs),
(675,0,ls),
(710,0,o),
(745,12,o),
(745,70,c),
(175,70,l,{
name = hr00;
})
);
},
{
closed = 1;
nodes = (
(368,787,o),
(501,819,o),
(501,865,cs),
(501,878,o),
(494,896,o),
(477,922,cs),
(464,942,l),
(254,811,l),
(277,770,l,{
name = hr00;
})
);
}
);
};
layerId = master01;
shapes = (
{
ref = C;
},
{
pos = (141,0);
ref = acutecomb.case;
}
);
width = 555;
}
);
unicode = 262;
},
{
glyphname = Ccaron;
lastChange = "2023-02-03 15:44:07 +0000";
layers = (
{
background = {
shapes = (
{
closed = 1;
nodes = (
(175,430,o),
(303,640,o),
(532,640,cs),
(586,640,l),
(586,666,ls),
(586,693,o),
(577,720,o),
(532,720,cs),
(311,720,o),
(85,553,o),
(85,80,cs),
(85,10,o),
(125,0,o),
(175,0,cs),
(675,0,ls),
(710,0,o),
(745,12,o),
(745,70,c),
(175,70,l,{
name = hr00;
})
);
},
{
closed = 1;
nodes = (
(358,771,l),
(398,771,l),
(543,902,l),
(519,942,l),
(458,929,o),
(402,896,o),
(378,868,c),
(357,893,o),
(295,930,o),
(237,942,c),
(213,902,l,{
name = hr00;
})
);
}
);
};
layerId = master01;
shapes = (
{
ref = C;
},
{
pos = (-3,0);
ref = caroncomb.case;
}
);
width = 555;
}
);
unicode = 268;
},
{
glyphname = Ccedilla;
lastChange = "2023-02-03 15:44:14 +0000";
layers = (
{
background = {
shapes = (
{
closed = 1;
nodes = (
(175,430,o),
(303,640,o),
(532,640,cs),
(586,640,l),
(586,666,ls),
(586,693,o),
(577,720,o),
(532,720,cs),
(311,720,o),
(85,553,o),
(85,80,cs),
(85,10,o),
(125,0,o),
(175,0,cs),
(302,0,l),
(278,-123,o),
(278,-129,o),
(278,-134,cs),
(278,-151,o),
(286,-160,o),
(308,-160,cs),
(403,-160,l),
(403,-224,o),
(372,-243,o),
(281,-243,cs),
(260,-243,l),
(260,-300,o),
(267,-310,o),
(301,-310,cs),
(418,-310,o),
(484,-250,o),
(484,-149,cs),
(484,-122,o),
(467,-93,o),
(433,-93,cs),
(344,-93,l),
(362,0,l),
(675,0,ls),
(710,0,o),
(745,12,o),
(745,70,c),
(175,70,l,{
name = hr00;
})
);
}
);
};
layerId = master01;
shapes = (
{
ref = C;
},
{
pos = (120,0);
ref = cedillacomb;
}
);
width = 555;
}
);
unicode = 199;
},
{
glyphname = Ccircumflex;
lastChange = "2023-02-03 15:46:47 +0000";
layers = (
{
background = {
shapes = (
{
closed = 1;
nodes = (
(175,430,o),
(303,640,o),
(532,640,cs),
(586,640,l),
(586,666,ls),
(586,693,o),
(577,720,o),
(532,720,cs),
(311,720,o),
(85,553,o),
(85,80,cs),
(85,10,o),
(125,0,o),
(175,0,cs),
(675,0,ls),
(710,0,o),
(745,12,o),
(745,70,c),
(175,70,l,{
name = hr00;
})
);
},
{
closed = 1;
nodes = (
(398,942,l),
(358,942,l),
(213,811,l),
(237,771,l),
(298,784,o),
(354,817,o),
(378,845,c),
(399,820,o),
(461,783,o),
(519,771,c),
(543,811,l,{
name = hr00;
})
);
}
);
};
layerId = master01;
shapes = (
{
ref = C;
},
{
pos = (193,0);
ref = circumflexcomb.case;
}
);
width = 555;
}
);
unicode = 264;
},
{
glyphname = Cdotaccent;
lastChange = "2023-02-03 15:44:07 +0000";
layers = (
{
background = {
shapes = (
{
closed = 1;
nodes = (
(175,430,o),
(303,640,o),
(532,640,cs),
(586,640,l),
(586,666,ls),
(586,693,o),
(577,720,o),
(532,720,cs),
(311,720,o),
(85,553,o),
(85,80,cs),
(85,10,o),
(125,0,o),
(175,0,cs),
(675,0,ls),
(710,0,o),
(745,12,o),
(745,70,c),
(175,70,l,{
name = hr00;
})
);
},
{
closed = 1;
nodes = (
(316,820,o),
(328,793,o),
(377,793,cs),
(425,793,o),
(439,820,o),
(439,854,cs),
(439,887,o),
(425,916,o),
(377,916,cs),
(328,916,o),
(316,887,o),
(316,854,cs,{
name = hr00;
})
);
}
);
};
layerId = master01;
shapes = (
{
ref = C;
},
{
pos = (142,0);
ref = dotaccentcomb.case;
}
);
width = 555;
}
);
unicode = 266;
},
{
glyphname = D;
lastChange = "2023-02-03 14:58:37 +0000";
layers = (
{
anchors = (
{
name = bottom;
pos = (357,0);
},
{
name = center;
pos = (357,355);
},
{
name = top;
pos = (357,710);
}
);
background = {
shapes = (
{
closed = 1;
nodes = (
(671,508,o),
(425,720,o),
(166,720,cs),
(136,720,o),
(106,710,o),
(106,660,cs),
(106,640,l),
(124,640,o),
(142,639,o),
(160,638,c),
(160,120,l),
(189,120,ls),
(219,120,o),
(250,130,o),
(250,180,cs),
(250,625,l),
(496,570,o),
(581,374,o),
(581,219,cs),
(581,156,o),
(541,70,o),
(419,70,cs),
(90,70,l),
(90,60,ls),
(90,10,o),
(120,0,o),
(150,0,cs),
(833,0,ls),
(868,0,o),
(903,12,o),
(903,70,c),
(594,70,l),
(654,106,o),
(671,163,o),
(671,219,cs,{
name = hr00;
})
);
}
);
};
layerId = master01;
shapes = (
{
closed = 1;
nodes = (
(671,508,o),
(425,720,o),
(166,720,cs),
(136,720,o),
(106,710,o),
(106,660,cs),
(106,640,l),
(124,640,o),
(142,639,o),
(160,638,c),
(160,120,l),
(189,120,ls),
(219,120,o),
(250,130,o),
(250,180,cs),
(250,625,l),
(496,570,o),
(581,374,o),
(581,219,cs),
(581,156,o),
(541,70,o),
(419,70,cs),
(90,70,l),
(90,60,ls),
(90,10,o),
(120,0,o),
(150,0,cs),
(833,0,ls),
(868,0,o),
(903,12,o),
(903,70,c),
(594,70,l),
(654,106,o),
(671,163,o),
(671,219,cs,{
name = hr00;
})
);
}
);
width = 713;
}
);
unicode = 68;
},
{
glyphname = Eth;
lastChange = "2023-02-03 14:57:40 +0000";
layers = (
{
background = {
shapes = (
{
closed = 1;
nodes = (
(671,508,o),
(425,720,o),
(166,720,cs),
(136,720,o),
(106,710,o),
(106,660,cs),
(106,640,l),
(124,640,o),
(142,639,o),
(160,638,c),
(160,390,l),
(119,390,ls),
(74,390,o),
(65,365,o),
(65,320,c),
(160,320,l),
(160,120,l),
(189,120,ls),
(219,120,o),
(250,130,o),
(250,180,cs),
(250,320,l),
(379,320,ls),
(423,320,o),
(433,345,o),
(433,390,c),
(250,390,l),
(250,625,l),
(496,570,o),
(581,374,o),
(581,219,cs),
(581,156,o),
(541,70,o),
(419,70,cs),
(90,70,l),
(90,60,ls),
(90,10,o),
(120,0,o),
(150,0,cs),
(833,0,ls),
(868,0,o),
(903,12,o),
(903,70,c),
(594,70,l),
(654,106,o),
(671,163,o),
(671,219,cs,{
name = hr00;
})
);
}
);
};
layerId = master01;
shapes = (
{
closed = 1;
nodes = (
(671,508,o),
(425,720,o),
(166,720,cs),
(136,720,o),
(106,710,o),
(106,660,cs),
(106,640,l),
(124,640,o),
(142,639,o),
(160,638,c),
(160,390,l),
(119,390,ls),
(74,390,o),
(65,365,o),
(65,320,c),
(160,320,l),
(160,120,l),
(189,120,ls),
(219,120,o),
(250,130,o),
(250,180,cs),
(250,320,l),
(379,320,ls),
(423,320,o),
(433,345,o),
(433,390,c),
(250,390,l),
(250,625,l),
(496,570,o),
(581,374,o),
(581,219,cs),
(581,156,o),
(541,70,o),
(419,70,cs),
(90,70,l),
(90,60,ls),
(90,10,o),
(120,0,o),
(150,0,cs),
(833,0,ls),
(868,0,o),
(903,12,o),
(903,70,c),
(594,70,l),
(654,106,o),
(671,163,o),
(671,219,cs,{
name = hr00;
})
);
}
);
width = 713;
}
);
unicode = 208;
},
{
glyphname = Dcaron;
lastChange = "2023-02-03 14:58:50 +0000";
layers = (
{
background = {
shapes = (
{
closed = 1;
nodes = (
(671,508,o),
(425,720,o),
(166,720,cs),
(136,720,o),
(106,710,o),
(106,660,cs),
(106,640,l),
(124,640,o),
(142,639,o),
(160,638,c),
(160,120,l),
(189,120,ls),
(219,120,o),
(250,130,o),
(250,180,cs),
(250,625,l),
(496,570,o),
(581,374,o),
(581,219,cs),
(581,156,o),
(541,70,o),
(419,70,cs),
(90,70,l),
(90,60,ls),
(90,10,o),
(120,0,o),
(150,0,cs),
(833,0,ls),
(868,0,o),
(903,12,o),
(903,70,c),
(594,70,l),
(654,106,o),
(671,163,o),
(671,219,cs,{
name = hr00;
})
);
},
{
closed = 1;
nodes = (
(337,771,l),
(377,771,l),
(522,902,l),
(498,942,l),
(437,929,o),
(381,896,o),
(357,868,c),
(336,893,o),
(274,930,o),
(216,942,c),
(192,902,l,{
name = hr00;
})
);
}
);
};
layerId = master01;
shapes = (
{
ref = D;
},
{
pos = (-24,0);
ref = caroncomb.case;
}
);
width = 713;
}
);
unicode = 270;
},
{
glyphname = Dcroat;
lastChange = "2023-02-03 14:58:50 +0000";
layers = (
{
background = {
shapes = (
{
closed = 1;
nodes = (
(671,508,o),
(425,720,o),
(166,720,cs),
(136,720,o),
(106,710,o),
(106,660,cs),
(106,640,l),
(124,640,o),
(142,639,o),
(160,638,c),
(160,390,l),
(119,390,ls),
(74,390,o),
(65,365,o),
(65,320,c),
(160,320,l),
(160,120,l),
(189,120,ls),
(219,120,o),
(250,130,o),
(250,180,cs),
(250,320,l),
(379,320,ls),
(423,320,o),
(433,345,o),
(433,390,c),
(250,390,l),
(250,625,l),
(496,570,o),
(581,374,o),
(581,219,cs),
(581,156,o),
(541,70,o),
(419,70,cs),
(90,70,l),
(90,60,ls),
(90,10,o),
(120,0,o),
(150,0,cs),
(833,0,ls),
(868,0,o),
(903,12,o),
(903,70,c),
(594,70,l),
(654,106,o),
(671,163,o),
(671,219,cs,{
name = hr00;
})
);
}
);
};
layerId = master01;
shapes = (
{
ref = Eth;
}
);
width = 713;
}
);
unicode = 272;
},
{
glyphname = E;
lastChange = "2023-02-03 15:44:46 +0000";
layers = (
{
anchors = (
{
name = bottom;
pos = (347,0);
},
{
name = ogonek;
pos = (735,37);
},
{
name = top;
pos = (449,710);
},
{
name = topleft;
pos = (20,710);
}
);
background = {
shapes = (
{
closed = 1;
nodes = (
(233,131,o),
(270,238,o),
(388,299,c),
(590,299,l),
(590,379,o),
(539,403,o),
(494,403,cs),
(444,403,o),
(399,392,o),
(360,374,c),
(253,374,l,{
name = hr01;
}),
(253,462,o),
(371,640,o),
(650,640,cs),
(704,640,l),
(704,666,ls),
(704,693,o),
(695,720,o),
(650,720,cs),
(379,720,o),
(173,525,o),
(173,379,cs),
(173,312,o),
(209,300,o),
(256,299,c),
(188,229,o),
(153,140,o),
(153,80,cs,{
name = hr02;
}),
(153,10,o),
(193,0,o),
(243,0,cs),
(813,0,ls),
(848,0,o),
(883,12,o),
(883,70,c),
(233,70,l)
);
}
);
};
layerId = master01;
shapes = (
{
closed = 1;
nodes = (
(233,131,o),
(270,238,o),
(388,299,c),
(590,299,l),
(590,379,o),
(539,403,o),
(494,403,cs),
(444,403,o),
(399,392,o),
(360,374,c),
(253,374,l,{
name = hr01;
}),
(253,462,o),
(371,640,o),
(650,640,cs),
(704,640,l),
(704,666,ls),
(704,693,o),
(695,720,o),
(650,720,cs),
(379,720,o),
(173,525,o),
(173,379,cs),
(173,312,o),
(209,300,o),
(256,299,c),
(188,229,o),
(153,140,o),
(153,80,cs,{
name = hr02;
}),
(153,10,o),
(193,0,o),
(243,0,cs),
(813,0,ls),
(848,0,o),
(883,12,o),
(883,70,c),
(233,70,l)
);
}
);
width = 693;
}
);
unicode = 69;
},
{
glyphname = Eacute;
lastChange = "2023-02-03 15:44:36 +0000";
layers = (
{
background = {
shapes = (
{
closed = 1;
nodes = (
(233,131,o),
(270,238,o),
(388,299,c),
(590,299,l),
(590,379,o),
(539,403,o),
(494,403,cs),
(444,403,o),
(399,392,o),
(360,374,c),
(253,374,l,{
name = hr01;
}),
(253,462,o),
(371,640,o),
(650,640,cs),
(704,640,l),
(704,666,ls),
(704,693,o),
(695,720,o),
(650,720,cs),
(379,720,o),
(173,525,o),
(173,379,cs),
(173,312,o),
(209,300,o),
(256,299,c),
(188,229,o),
(153,140,o),
(153,80,cs,{
name = hr02;
}),
(153,10,o),
(193,0,o),
(243,0,cs),
(813,0,ls),
(848,0,o),
(883,12,o),
(883,70,c),
(233,70,l)
);
},
{
closed = 1;
nodes = (
(469,787,o),
(602,819,o),
(602,865,cs),
(602,878,o),
(595,896,o),
(578,922,cs),
(565,942,l),
(355,811,l),
(378,770,l)
);
}
);
};
layerId = master01;
shapes = (
{
ref = E;
},
{
pos = (212,0);
ref = acutecomb.case;
}
);
width = 693;
}
);
unicode = 201;
},
{
glyphname = Ebreve;
lastChange = "2023-02-03 15:44:36 +0000";
layers = (
{
background = {
shapes = (
{
closed = 1;
nodes = (
(233,131,o),
(270,238,o),
(388,299,c),
(590,299,l),
(590,379,o),
(539,403,o),
(494,403,cs),
(444,403,o),
(399,392,o),
(360,374,c),
(253,374,l,{
name = hr01;
}),
(253,462,o),
(371,640,o),
(650,640,cs),
(704,640,l),
(704,666,ls),
(704,693,o),
(695,720,o),
(650,720,cs),
(379,720,o),
(173,525,o),
(173,379,cs),
(173,312,o),
(209,300,o),
(256,299,c),
(188,229,o),
(153,140,o),
(153,80,cs,{
name = hr02;
}),
(153,10,o),
(193,0,o),
(243,0,cs),
(813,0,ls),
(848,0,o),
(883,12,o),
(883,70,c),
(233,70,l)
);
},
{
closed = 1;
nodes = (
(295,909,l),
(355,809,o),
(396,771,o),
(447,771,cs),
(498,771,o),
(539,809,o),
(599,909,c),
(559,942,l),
(447,849,l),
(335,942,l,{
name = hr00;
})
);
}
);
};
layerId = master01;
shapes = (
{
ref = E;
},
{
pos = (68,0);
ref = brevecomb.case;
}
);
width = 693;
}
);
unicode = 276;
},
{
glyphname = Ecaron;
lastChange = "2023-02-03 15:44:36 +0000";
layers = (
{
background = {
shapes = (
{
closed = 1;
nodes = (
(233,131,o),
(270,238,o),
(388,299,c),
(590,299,l),
(590,379,o),
(539,403,o),
(494,403,cs),
(444,403,o),
(399,392,o),
(360,374,c),
(253,374,l,{
name = hr01;
}),
(253,462,o),
(371,640,o),
(650,640,cs),
(704,640,l),
(704,666,ls),
(704,693,o),
(695,720,o),
(650,720,cs),
(379,720,o),
(173,525,o),
(173,379,cs),
(173,312,o),
(209,300,o),
(256,299,c),
(188,229,o),
(153,140,o),
(153,80,cs,{
name = hr02;
}),
(153,10,o),
(193,0,o),
(243,0,cs),
(813,0,ls),
(848,0,o),
(883,12,o),
(883,70,c),
(233,70,l)
);
},
{
closed = 1;
nodes = (
(427,771,l),
(467,771,l),
(612,902,l),
(588,942,l),
(527,929,o),
(471,896,o),
(447,868,c),
(426,893,o),
(364,930,o),
(306,942,c),
(282,902,l,{
name = hr00;
})
);
}
);
};
layerId = master01;
shapes = (
{
ref = E;
},
{
pos = (68,0);
ref = caroncomb.case;
}
);
width = 693;
}
);
unicode = 282;
},
{
glyphname = Ecircumflex;
lastChange = "2023-02-03 15:46:47 +0000";
layers = (
{
background = {
shapes = (
{
closed = 1;
nodes = (
(233,131,o),
(270,238,o),
(388,299,c),
(590,299,l),
(590,379,o),
(539,403,o),
(494,403,cs),
(444,403,o),
(399,392,o),
(360,374,c),
(253,374,l,{
name = hr01;
}),
(253,462,o),
(371,640,o),
(650,640,cs),
(704,640,l),
(704,666,ls),
(704,693,o),
(695,720,o),
(650,720,cs),
(379,720,o),
(173,525,o),
(173,379,cs),
(173,312,o),
(209,300,o),
(256,299,c),
(188,229,o),
(153,140,o),
(153,80,cs,{
name = hr02;
}),
(153,10,o),
(193,0,o),
(243,0,cs),
(813,0,ls),
(848,0,o),
(883,12,o),
(883,70,c),
(233,70,l)
);
},
{
closed = 1;
nodes = (
(470,942,l),
(430,942,l),
(285,811,l),
(309,771,l),
(370,784,o),
(426,817,o),
(450,845,c),
(471,820,o),
(533,783,o),
(591,771,c),
(615,811,l)
);
}
);
};
layerId = master01;
shapes = (
{
ref = E;
},
{
pos = (264,0);
ref = circumflexcomb.case;
}
);
width = 693;
}
);
unicode = 202;
},
{
glyphname = Edieresis;
lastChange = "2023-02-03 15:44:36 +0000";
layers = (
{
background = {
shapes = (
{
closed = 1;
nodes = (
(233,131,o),
(270,238,o),
(388,299,c),
(590,299,l),
(590,379,o),
(539,403,o),
(494,403,cs),
(444,403,o),
(399,392,o),
(360,374,c),
(253,374,l,{
name = hr01;
}),
(253,462,o),
(371,640,o),
(650,640,cs),
(704,640,l),
(704,666,ls),
(704,693,o),
(695,720,o),
(650,720,cs),
(379,720,o),
(173,525,o),
(173,379,cs),
(173,312,o),
(209,300,o),
(256,299,c),
(188,229,o),
(153,140,o),
(153,80,cs,{
name = hr02;
}),
(153,10,o),
(193,0,o),
(243,0,cs),
(813,0,ls),
(848,0,o),
(883,12,o),
(883,70,c),
(233,70,l)
);
},
{
closed = 1;
nodes = (
(276,820,o),
(296,793,o),
(337,793,cs),
(377,793,o),
(399,820,o),
(399,854,cs),
(399,887,o),
(377,916,o),
(337,916,cs),
(296,916,o),
(276,887,o),
(276,854,cs)
);
},
{
closed = 1;
nodes = (
(498,820,o),
(518,793,o),
(559,793,cs),
(599,793,o),
(621,820,o),
(621,854,cs),
(621,887,o),
(599,916,o),
(559,916,cs),
(518,916,o),
(498,887,o),
(498,854,cs)
);
}
);
};
layerId = master01;
shapes = (
{
ref = E;
},
{
pos = (213,0);
ref = dieresiscomb.case;
}
);
width = 693;
}
);
unicode = 203;
},
{
glyphname = Edotaccent;
lastChange = "2023-02-03 15:44:36 +0000";
layers = (
{
background = {
shapes = (
{
closed = 1;
nodes = (
(233,131,o),
(270,238,o),
(388,299,c),
(590,299,l),
(590,379,o),
(539,403,o),
(494,403,cs),
(444,403,o),
(399,392,o),
(360,374,c),
(253,374,l,{
name = hr01;
}),
(253,462,o),
(371,640,o),
(650,640,cs),
(704,640,l),
(704,666,ls),
(704,693,o),
(695,720,o),
(650,720,cs),
(379,720,o),
(173,525,o),
(173,379,cs),
(173,312,o),
(209,300,o),
(256,299,c),
(188,229,o),
(153,140,o),
(153,80,cs,{
name = hr02;
}),
(153,10,o),
(193,0,o),
(243,0,cs),
(813,0,ls),
(848,0,o),
(883,12,o),
(883,70,c),
(233,70,l)
);
},
{
closed = 1;
nodes = (
(385,820,o),
(397,793,o),
(446,793,cs),
(494,793,o),
(508,820,o),
(508,854,cs),
(508,887,o),
(494,916,o),
(446,916,cs),
(397,916,o),
(385,887,o),
(385,854,cs,{
name = hr00;
})
);
}
);
};
layerId = master01;
shapes = (
{
ref = E;
},
{
pos = (213,0);
ref = dotaccentcomb.case;
}
);
width = 693;
}
);
unicode = 278;
},
{
glyphname = Egrave;
lastChange = "2023-02-03 15:44:36 +0000";
layers = (
{
background = {
shapes = (
{
closed = 1;
nodes = (
(233,131,o),
(270,238,o),
(388,299,c),
(590,299,l),
(590,379,o),
(539,403,o),
(494,403,cs),
(444,403,o),
(399,392,o),
(360,374,c),
(253,374,l,{
name = hr01;
}),
(253,462,o),
(371,640,o),
(650,640,cs),
(704,640,l),
(704,666,ls),
(704,693,o),
(695,720,o),
(650,720,cs),
(379,720,o),
(173,525,o),
(173,379,cs),
(173,312,o),
(209,300,o),
(256,299,c),
(188,229,o),
(153,140,o),
(153,80,cs,{
name = hr02;
}),
(153,10,o),
(193,0,o),
(243,0,cs),
(813,0,ls),
(848,0,o),
(883,12,o),
(883,70,c),
(233,70,l)
);
},
{
closed = 1;
nodes = (
(392,942,l),
(379,922,ls),
(362,896,o),
(354,878,o),
(354,865,cs),
(354,819,o),
(487,787,o),
(579,770,c),
(601,811,l)
);
}
);
};
layerId = master01;
shapes = (
{
ref = E;
},
{
pos = (132,0);
ref = gravecomb.case;
}
);
width = 693;
}
);
unicode = 200;
},
{
glyphname = Emacron;
lastChange = "2023-02-03 15:44:36 +0000";
layers = (
{
background = {
shapes = (
{
closed = 1;
nodes = (
(233,131,o),
(270,238,o),
(388,299,c),
(590,299,l),
(590,379,o),
(539,403,o),
(494,403,cs),
(444,403,o),
(399,392,o),
(360,374,c),
(253,374,l,{
name = hr01;
}),
(253,462,o),
(371,640,o),
(650,640,cs),
(704,640,l),
(704,666,ls),
(704,693,o),
(695,720,o),
(650,720,cs),
(379,720,o),
(173,525,o),
(173,379,cs),
(173,312,o),
(209,300,o),
(256,299,c),
(188,229,o),
(153,140,o),
(153,80,cs,{
name = hr02;
}),
(153,10,o),
(193,0,o),
(243,0,cs),
(813,0,ls),
(848,0,o),
(883,12,o),
(883,70,c),
(233,70,l)
);
},
{
closed = 1;
nodes = (
(606,819,ls),
(606,849,o),
(596,880,o),
(546,880,cs),
(286,880,l),
(286,854,ls),
(286,827,o),
(295,800,o),
(340,800,cs),
(606,800,l,{
name = hr00;
})
);
}
);
};
layerId = master01;
shapes = (
{
ref = E;
},
{
pos = (119,0);
ref = macroncomb.case;
}
);
width = 693;
}
);
unicode = 274;
},
{
glyphname = Eogonek;
lastChange = "2023-02-03 15:44:46 +0000";
layers = (
{
background = {
shapes = (
{
closed = 1;
nodes = (
(233,131,o),
(270,238,o),
(388,299,c),
(590,299,l),
(590,379,o),
(539,403,o),
(494,403,cs),
(444,403,o),
(399,392,o),
(360,374,c),
(253,374,l,{
name = hr01;
}),
(253,462,o),
(371,640,o),
(650,640,cs),
(704,640,l),
(704,666,ls),
(704,693,o),
(695,720,o),
(650,720,cs),
(379,720,o),
(173,525,o),
(173,379,cs),
(173,312,o),
(209,300,o),
(256,299,c),
(188,229,o),
(153,140,o),
(153,80,cs,{
name = hr02;
}),
(153,10,o),
(193,0,o),
(243,0,cs),
(813,0,ls),
(848,0,o),
(883,12,o),
(883,70,c),
(233,70,l)
);
},
{
closed = 1;
nodes = (
(497,37,o),
(461,-36,o),
(461,-98,cs),
(461,-159,o),
(498,-238,o),
(613,-238,cs),
(689,-238,o),
(735,-217,o),
(735,-162,cs),
(735,-152,o),
(734,-141,o),
(731,-129,c),
(695,-150,o),
(661,-158,o),
(633,-158,cs),
(578,-158,o),
(548,-130,o),
(548,-81,cs),
(548,-29,o),
(590,0,o),
(649,0,c),
(649,37,l,{
name = hr00;
})
);
}
);
};
layerId = master01;
shapes = (
{
ref = E;
},
{
pos = (136,0);
ref = ogonekcomb;
}
);
width = 693;
}
);
unicode = 280;
},
{
glyphname = F;
lastChange = "2023-02-03 14:58:37 +0000";
layers = (
{
anchors = (
{
name = bottom;
pos = (274,0);
},
{
name = top;
pos = (274,710);
}
);
background = {
shapes = (
{
closed = 1;
nodes = (
(190,-208,o),
(133,-230,o),
(13,-230,cs),
(-43,-230,l),
(-43,-241,ls),
(-43,-290,o),
(-29,-310,o),
(13,-310,cs),
(202,-310,o),
(280,-226,o),
(280,0,cs),
(280,299,l),
(687,299,ls),
(722,299,o),
(757,316,o),
(757,374,c),
(280,374,l),
(280,462,o),
(294,640,o),
(525,640,cs),
(577,640,l),
(577,660,ls),
(577,710,o),
(554,720,o),
(531,720,cs),
(255,720,o),
(190,530,o),
(190,374,c),
(130,374,ls),
(95,374,o),
(60,352,o),
(60,299,c),
(190,299,l),
(190,2,ls,{
name = hr00;
})
);
}
);
};
layerId = master01;
shapes = (
{
closed = 1;
nodes = (
(190,-208,o),
(133,-230,o),
(13,-230,cs),
(-43,-230,l),
(-43,-241,ls),
(-43,-290,o),
(-29,-310,o),
(13,-310,cs),
(202,-310,o),
(280,-226,o),
(280,0,cs),
(280,299,l),
(687,299,ls),
(722,299,o),
(757,316,o),
(757,374,c),
(280,374,l),
(280,462,o),
(294,640,o),
(525,640,cs),
(577,640,l),
(577,660,ls),
(577,710,o),
(554,720,o),
(531,720,cs),
(255,720,o),
(190,530,o),
(190,374,c),
(130,374,ls),
(95,374,o),
(60,352,o),
(60,299,c),
(190,299,l),
(190,2,ls,{
name = hr00;
})
);
}
);
width = 547;
}
);
unicode = 70;
},
{
glyphname = G;
lastChange = "2023-02-03 15:45:29 +0000";
layers = (
{
anchors = (
{
name = bottom;
pos = (358,0);
},
{
name = top;
pos = (380,710);
}
);
background = {
shapes = (
{
closed = 1;
nodes = (
(175,430,o),
(303,640,o),
(532,640,cs),
(586,640,l),
(586,666,ls),
(586,693,o),
(577,720,o),
(532,720,cs),
(311,720,o),
(85,553,o),
(85,80,cs),
(85,10,o),
(125,0,o),
(175,0,cs),
(494,0,l),
(490,-208,o),
(437,-230,o),
(318,-230,cs),
(262,-230,l),
(262,-241,ls),
(262,-290,o),
(276,-310,o),
(318,-310,cs),
(500,-310,o),
(578,-246,o),
(584,0,c),
(835,0,ls),
(870,0,o),
(905,12,o),
(905,70,c),
(585,70,l),
(585,320,l),
(584,331,o),
(575,340,o),
(564,340,cs),
(515,340,ls),
(504,340,o),
(495,331,o),
(495,320,cs),
(495,70,l),
(175,70,l,{
name = hr00;
})
);
}
);
};
layerId = master01;
shapes = (
{
closed = 1;
nodes = (
(175,430,o),
(303,640,o),
(532,640,cs),
(586,640,l),
(586,666,ls),
(586,693,o),
(577,720,o),
(532,720,cs),
(311,720,o),
(85,553,o),
(85,80,cs),
(85,10,o),
(125,0,o),
(175,0,cs),
(494,0,l),
(490,-208,o),
(437,-230,o),
(318,-230,cs),
(262,-230,l),
(262,-241,ls),
(262,-290,o),
(276,-310,o),
(318,-310,cs),
(500,-310,o),
(578,-246,o),
(584,0,c),
(835,0,ls),
(870,0,o),
(905,12,o),
(905,70,c),
(585,70,l),
(585,320,l),
(584,331,o),
(575,340,o),
(564,340,cs),
(515,340,ls),
(504,340,o),
(495,331,o),
(495,320,cs),
(495,70,l),
(175,70,l,{
name = hr00;
})
);
}
);
width = 715;
}
);
unicode = 71;
},
{
glyphname = Gbreve;
lastChange = "2023-02-03 15:45:29 +0000";
layers = (
{
background = {
shapes = (
{
closed = 1;
nodes = (
(175,430,o),
(303,640,o),
(532,640,cs),
(586,640,l),
(586,666,ls),
(586,693,o),
(577,720,o),
(532,720,cs),
(311,720,o),
(85,553,o),
(85,80,cs),
(85,10,o),
(125,0,o),
(175,0,cs),
(494,0,l),
(490,-208,o),
(437,-230,o),
(318,-230,cs),
(262,-230,l),
(262,-241,ls),
(262,-290,o),
(276,-310,o),
(318,-310,cs),
(500,-310,o),
(578,-246,o),
(584,0,c),
(835,0,ls),
(870,0,o),
(905,12,o),
(905,70,c),
(585,70,l),
(585,320,l),
(584,331,o),
(575,340,o),
(564,340,cs),
(515,340,ls),
(504,340,o),
(495,331,o),
(495,320,cs),
(495,70,l),
(175,70,l,{
name = hr00;
})
);
},
{
closed = 1;
nodes = (
(236,909,l),
(296,809,o),
(337,771,o),
(388,771,cs),
(439,771,o),
(480,809,o),
(540,909,c),
(500,942,l),
(388,849,l),
(276,942,l,{
name = hr00;
})
);
}
);
};
layerId = master01;
shapes = (
{
ref = G;
},
{
pos = (-1,0);
ref = brevecomb.case;
}
);
width = 715;
}
);
unicode = 286;
},
{
glyphname = Gcircumflex;
lastChange = "2023-02-03 15:46:47 +0000";
layers = (
{
background = {
shapes = (
{
closed = 1;
nodes = (
(175,430,o),
(303,640,o),
(532,640,cs),
(586,640,l),
(586,666,ls),
(586,693,o),
(577,720,o),
(532,720,cs),
(311,720,o),
(85,553,o),
(85,80,cs),
(85,10,o),
(125,0,o),
(175,0,cs),
(494,0,l),
(490,-208,o),
(437,-230,o),
(318,-230,cs),
(262,-230,l),
(262,-241,ls),
(262,-290,o),
(276,-310,o),
(318,-310,cs),
(500,-310,o),
(578,-246,o),
(584,0,c),
(835,0,ls),
(870,0,o),
(905,12,o),
(905,70,c),
(585,70,l),
(585,320,l),
(584,331,o),
(575,340,o),
(564,340,cs),
(515,340,ls),
(504,340,o),
(495,331,o),
(495,320,cs),
(495,70,l),
(175,70,l,{
name = hr00;
})
);
},
{
closed = 1;
nodes = (
(378,942,l),
(338,942,l),
(193,811,l),
(217,771,l),
(278,784,o),
(334,817,o),
(358,845,c),
(379,820,o),
(441,783,o),
(499,771,c),
(523,811,l,{
name = hr00;
})
);
}
);
};
layerId = master01;
shapes = (
{
ref = G;
},
{
pos = (195,0);
ref = circumflexcomb.case;
}
);
width = 715;
}
);
unicode = 284;
},
{
glyphname = Gcommaaccent;
lastChange = "2023-02-03 15:45:23 +0000";
layers = (
{
background = {
shapes = (
{
closed = 1;
nodes = (
(860,0,o),
(895,12,o),
(895,70,c),
(585,70,l),
(585,253,l),
(617,262,o),
(634,289,o),
(634,322,cs),
(634,362,o),
(609,395,o),
(561,395,cs),
(516,395,o),
(492,366,o),
(489,330,c),
(321,330,l),
(321,304,ls),
(321,277,o),
(330,250,o),
(375,250,cs),
(495,250,l),
(495,70,l),
(175,70,l),
(175,430,o),
(303,640,o),
(532,640,cs),
(586,640,l),
(586,666,ls),
(586,693,o),
(577,720,o),
(532,720,cs),
(311,720,o),
(85,553,o),
(85,80,cs),
(85,10,o),
(125,0,o),
(175,0,cs),
(825,0,l)
);
},
{
closed = 1;
nodes = (
(372,-314,o),
(427,-230,o),
(427,-159,cs),
(427,-102,o),
(404,-77,o),
(354,-77,cs),
(323,-77,l),
(323,-132,ls),
(323,-245,o),
(305,-286,o),
(288,-328,c),
(325,-359,l,{
name = hr00;
})
);
}
);
};
layerId = master01;
shapes = (
{
ref = G;
},
{
pos = (79,0);
ref = commaaccentcomb;
}
);
width = 715;
}
);
unicode = 290;
},
{
glyphname = Gdotaccent;
lastChange = "2023-02-03 15:45:29 +0000";
layers = (
{
background = {
shapes = (
{
closed = 1;
nodes = (
(175,430,o),
(303,640,o),
(532,640,cs),
(586,640,l),
(586,666,ls),
(586,693,o),
(577,720,o),
(532,720,cs),
(311,720,o),
(85,553,o),
(85,80,cs),
(85,10,o),
(125,0,o),
(175,0,cs),
(494,0,l),
(490,-208,o),
(437,-230,o),
(318,-230,cs),
(262,-230,l),
(262,-241,ls),
(262,-290,o),
(276,-310,o),
(318,-310,cs),
(500,-310,o),
(578,-246,o),
(584,0,c),
(835,0,ls),
(870,0,o),
(905,12,o),
(905,70,c),
(585,70,l),
(585,320,l),
(584,331,o),
(575,340,o),
(564,340,cs),
(515,340,ls),
(504,340,o),
(495,331,o),
(495,320,cs),
(495,70,l),
(175,70,l,{
name = hr00;
})
);
},
{
closed = 1;
nodes = (
(326,820,o),
(338,793,o),
(387,793,cs),
(435,793,o),
(449,820,o),
(449,854,cs),
(449,887,o),
(435,916,o),
(387,916,cs),
(338,916,o),
(326,887,o),
(326,854,cs,{
name = hr00;
})
);
}
);
};
layerId = master01;
shapes = (
{
ref = G;
},
{
pos = (144,0);
ref = dotaccentcomb.case;
}
);
width = 715;
}
);
unicode = 288;
},
{
glyphname = H;
lastChange = "2023-02-03 14:58:37 +0000";
layers = (
{
anchors = (
{
name = bottom;
pos = (404,0);
},
{
name = center;
pos = (404,355);
},
{
name = top;
pos = (404,710);
},
{
name = topleft;
pos = (20,710);
}
);
background = {
shapes = (
{
closed = 1;
nodes = (
(676,701,o),
(667,710,o),
(656,710,cs),
(607,710,ls),
(596,710,o),
(587,701,o),
(587,690,cs),
(587,374,l),
(250,374,l),
(250,690,ls),
(250,701,o),
(240,710,o),
(229,710,cs),
(180,710,ls),
(169,710,o),
(160,701,o),
(160,690,cs),
(160,60,ls),
(160,10,o),
(191,0,o),
(221,0,cs),
(250,0,l),
(250,299,l),
(587,299,l),
(587,60,ls),
(587,10,o),
(617,0,o),
(647,0,cs),
(927,0,ls),
(962,0,o),
(997,12,o),
(997,70,c),
(677,70,l),
(677,690,l,{
name = hr00;
})
);
}
);
};
layerId = master01;
shapes = (
{
closed = 1;
nodes = (
(676,701,o),
(667,710,o),
(656,710,cs),
(607,710,ls),
(596,710,o),
(587,701,o),
(587,690,cs),
(587,374,l),
(250,374,l),
(250,690,ls),
(250,701,o),
(240,710,o),
(229,710,cs),
(180,710,ls),
(169,710,o),
(160,701,o),
(160,690,cs),
(160,60,ls),
(160,10,o),
(191,0,o),
(221,0,cs),
(250,0,l),
(250,299,l),
(587,299,l),
(587,60,ls),
(587,10,o),
(617,0,o),
(647,0,cs),
(927,0,ls),
(962,0,o),
(997,12,o),
(997,70,c),
(677,70,l),
(677,690,l,{
name = hr00;
})
);
}
);
width = 807;
}
);
unicode = 72;
},
{
glyphname = Hbar;
lastChange = "2023-02-03 15:45:50 +0000";
layers = (
{
background = {
shapes = (
{
closed = 1;
nodes = (
(676,701,o),
(667,710,o),
(656,710,cs),
(607,710,ls),
(596,710,o),
(587,701,o),
(587,690,cs),
(587,374,l),
(250,374,l),
(250,690,ls),
(250,701,o),
(240,710,o),
(229,710,cs),
(180,710,ls),
(169,710,o),
(160,701,o),
(160,690,cs),
(160,60,ls),
(160,10,o),
(191,0,o),
(221,0,cs),
(250,0,l),
(250,299,l),
(587,299,l),
(587,60,ls),
(587,10,o),
(617,0,o),
(647,0,cs),
(927,0,ls),
(962,0,o),
(997,12,o),
(997,70,c),
(677,70,l),
(677,690,l,{
name = hr00;
})
);
},
{
closed = 1;
nodes = (
(766,490,o),
(786,515,o),
(786,560,c),
(158,560,ls),
(68,560,o),
(50,535,o),
(50,490,c),
(678,490,l,{
name = hr00;
})
);
}
);
};
layerId = master01;
shapes = (
{
closed = 1;
nodes = (
(678,490,l,{
name = hr00;
}),
(766,490,o),
(786,515,o),
(786,560,c),
(158,560,ls),
(68,560,o),
(50,535,o),
(50,490,c)
);
},
{
alignment = -1;
ref = H;
}
);
width = 807;
}
);
unicode = 294;
},
{
glyphname = Hcircumflex;
lastChange = "2023-02-03 15:46:51 +0000";
layers = (
{
background = {
shapes = (
{
closed = 1;
nodes = (
(676,701,o),
(667,710,o),
(656,710,cs),
(607,710,ls),
(596,710,o),
(587,701,o),
(587,690,cs),
(587,374,l),
(250,374,l),
(250,690,ls),
(250,701,o),
(240,710,o),
(229,710,cs),
(180,710,ls),
(169,710,o),
(160,701,o),
(160,690,cs),
(160,60,ls),
(160,10,o),
(191,0,o),
(221,0,cs),
(250,0,l),
(250,299,l),
(587,299,l),
(587,60,ls),
(587,10,o),
(617,0,o),
(647,0,cs),
(927,0,ls),
(962,0,o),
(997,12,o),
(997,70,c),
(677,70,l),
(677,690,l,{
name = hr00;
})
);
},
{
closed = 1;
nodes = (
(439,942,l),
(399,942,l),
(254,811,l),
(278,771,l),
(339,784,o),
(395,817,o),
(419,845,c),
(440,820,o),
(502,783,o),
(560,771,c),
(584,811,l,{
name = hr00;
})
);
}
);
};
layerId = master01;
shapes = (
{
ref = H;
},
{
pos = (219,0);
ref = circumflexcomb.case;
}
);
width = 807;
}
);
unicode = 292;
},
{
glyphname = I;
lastChange = "2023-02-03 15:46:26 +0000";
layers = (
{
anchors = (
{
name = bottom;
pos = (220,0);
},
{
name = ogonek;
pos = (459,37);
},
{
name = top;
pos = (235,710);
},
{
name = topleft;
pos = (20,710);
}
);
background = {
shapes = (
{
closed = 1;
nodes = (
(90,12,o),
(125,0,o),
(160,0,cs),
(560,0,ls),
(595,0,o),
(630,12,o),
(630,70,c),
(280,70,l),
(280,630,l),
(380,630,l),
(380,649,ls),
(380,679,o),
(370,710,o),
(320,710,cs),
(90,710,l),
(90,684,ls),
(90,657,o),
(99,630,o),
(144,630,cs),
(190,630,l),
(190,70,l),
(90,70,l,{
name = hr00;
})
);
}
);
};
layerId = master01;
shapes = (
{
closed = 1;
nodes = (
(90,12,o),
(125,0,o),
(160,0,cs),
(560,0,ls),
(595,0,o),
(630,12,o),
(630,70,c),
(280,70,l),
(280,630,l),
(380,630,l),
(380,649,ls),
(380,679,o),
(370,710,o),
(320,710,cs),
(90,710,l),
(90,684,ls),
(90,657,o),
(99,630,o),
(144,630,cs),
(190,630,l),
(190,70,l),
(90,70,l,{
name = hr00;
})
);
}
);
width = 440;
}
);
unicode = 73;
},
{
glyphname = IJ;
lastChange = "2023-02-03 14:58:50 +0000";
layers = (
{
background = {
shapes = (
{
closed = 1;
nodes = (
(90,12,o),
(125,0,o),
(160,0,cs),
(560,0,ls),
(595,0,o),
(630,12,o),
(630,70,c),
(280,70,l),
(280,630,l),
(380,630,l),
(380,649,ls),
(380,679,o),
(370,710,o),
(320,710,cs),
(90,710,l),
(90,684,ls),
(90,657,o),
(99,630,o),
(144,630,cs),
(190,630,l),
(190,70,l),
(90,70,l,{
name = hr00;
})
);
},
{
closed = 1;
nodes = (
(1100,0,o),
(1135,12,o),
(1135,70,c),
(755,70,l),
(798,121,o),
(817,205,o),
(817,340,cs),
(817,633,l),
(849,642,o),
(866,669,o),
(866,702,cs),
(866,742,o),
(841,775,o),
(793,775,cs),
(748,775,o),
(724,746,o),
(721,710,c),
(453,710,l),
(453,684,ls),
(453,657,o),
(462,630,o),
(507,630,cs),
(727,630,l),
(727,340,ls),
(727,104,o),
(675,70,o),
(550,70,cs),
(440,70,l),
(440,54,ls),
(440,27,o),
(449,0,o),
(493,0,cs),
(1065,0,ls,{
name = hr00;
})
);
}
);
};
layerId = master01;
shapes = (
{
ref = I;
},
{
pos = (440,0);
ref = J;
}
);
width = 945;
}
);
unicode = 306;
},
{
glyphname = Iacute;
lastChange = "2023-02-03 15:46:09 +0000";
layers = (
{
background = {
shapes = (
{
closed = 1;
nodes = (
(90,12,o),
(125,0,o),
(160,0,cs),
(560,0,ls),
(595,0,o),
(630,12,o),
(630,70,c),
(280,70,l),
(280,630,l),
(380,630,l),
(380,649,ls),
(380,679,o),
(370,710,o),
(320,710,cs),
(90,710,l),
(90,684,ls),
(90,657,o),
(99,630,o),
(144,630,cs),
(190,630,l),
(190,70,l),
(90,70,l,{
name = hr00;
})
);
},
{
closed = 1;
nodes = (
(227,787,o),
(360,819,o),
(360,865,cs),
(360,878,o),
(353,896,o),
(336,922,cs),
(323,942,l),
(113,811,l),
(136,770,l)
);
}
);
};
layerId = master01;
shapes = (
{
ref = I;
},
{
pos = (-2,0);
ref = acutecomb.case;
}
);
width = 440;
}
);
unicode = 205;
},
{
glyphname = Ibreve;
lastChange = "2023-02-03 15:46:09 +0000";
layers = (
{
background = {
shapes = (
{
closed = 1;
nodes = (
(90,12,o),
(125,0,o),
(160,0,cs),
(560,0,ls),
(595,0,o),
(630,12,o),
(630,70,c),
(280,70,l),
(280,630,l),
(380,630,l),
(380,649,ls),
(380,679,o),
(370,710,o),
(320,710,cs),
(90,710,l),
(90,684,ls),
(90,657,o),
(99,630,o),
(144,630,cs),
(190,630,l),
(190,70,l),
(90,70,l,{
name = hr00;
})
);
},
{
closed = 1;
nodes = (
(85,909,l),
(145,809,o),
(186,771,o),
(237,771,cs),
(288,771,o),
(329,809,o),
(389,909,c),
(349,942,l),
(237,849,l),
(125,942,l,{
name = hr00;
})
);
}
);
};
layerId = master01;
shapes = (
{
ref = I;
},
{
pos = (-146,0);
ref = brevecomb.case;
}
);
width = 440;
}
);
unicode = 300;
},
{
glyphname = Icircumflex;
lastChange = "2023-02-03 15:46:47 +0000";
layers = (
{
background = {
shapes = (
{
closed = 1;
nodes = (
(90,12,o),
(125,0,o),
(160,0,cs),
(560,0,ls),
(595,0,o),
(630,12,o),
(630,70,c),
(280,70,l),
(280,630,l),
(380,630,l),
(380,649,ls),
(380,679,o),
(370,710,o),
(320,710,cs),
(90,710,l),
(90,684,ls),
(90,657,o),
(99,630,o),
(144,630,cs),
(190,630,l),
(190,70,l),
(90,70,l,{
name = hr00;
})
);
},
{
closed = 1;
nodes = (
(255,942,l),
(215,942,l),
(70,811,l),
(94,771,l),
(155,784,o),
(211,817,o),
(235,845,c),
(256,820,o),
(318,783,o),
(376,771,c),
(400,811,l)
);
}
);
};
layerId = master01;
shapes = (
{
ref = I;
},
{
pos = (50,0);
ref = circumflexcomb.case;
}
);
width = 440;
}
);
unicode = 206;
},
{
glyphname = Idieresis;
lastChange = "2023-02-03 15:46:09 +0000";
layers = (
{
background = {
shapes = (
{
closed = 1;
nodes = (
(90,12,o),
(125,0,o),
(160,0,cs),
(560,0,ls),
(595,0,o),
(630,12,o),
(630,70,c),
(280,70,l),
(280,630,l),
(380,630,l),
(380,649,ls),
(380,679,o),
(370,710,o),
(320,710,cs),
(90,710,l),
(90,684,ls),
(90,657,o),
(99,630,o),
(144,630,cs),
(190,630,l),
(190,70,l),
(90,70,l,{
name = hr00;
})
);
},
{
closed = 1;
nodes = (
(63,820,o),
(83,793,o),
(124,793,cs),
(164,793,o),
(186,820,o),
(186,854,cs),
(186,887,o),
(164,916,o),
(124,916,cs),
(83,916,o),
(63,887,o),
(63,854,cs)
);
},
{
closed = 1;
nodes = (
(285,820,o),
(305,793,o),
(346,793,cs),
(386,793,o),
(408,820,o),
(408,854,cs),
(408,887,o),
(386,916,o),
(346,916,cs),
(305,916,o),
(285,887,o),
(285,854,cs)
);
}
);
};
layerId = master01;
shapes = (
{
ref = I;
},
{
pos = (-1,0);
ref = dieresiscomb.case;
}
);
width = 440;
}
);
unicode = 207;
},
{
glyphname = Idotaccent;
lastChange = "2023-02-03 15:46:09 +0000";
layers = (
{
background = {
shapes = (
{
closed = 1;
nodes = (
(90,12,o),
(125,0,o),
(160,0,cs),
(560,0,ls),
(595,0,o),
(630,12,o),
(630,70,c),
(280,70,l),
(280,630,l),
(380,630,l),
(380,649,ls),
(380,679,o),
(370,710,o),
(320,710,cs),
(90,710,l),
(90,684,ls),
(90,657,o),
(99,630,o),
(144,630,cs),
(190,630,l),
(190,70,l),
(90,70,l,{
name = hr00;
})
);
},
{
closed = 1;
nodes = (
(176,820,o),
(188,793,o),
(237,793,cs),
(285,793,o),
(299,820,o),
(299,854,cs),
(299,887,o),
(285,916,o),
(237,916,cs),
(188,916,o),
(176,887,o),
(176,854,cs,{
name = hr00;
})
);
}
);
};
layerId = master01;
shapes = (
{
ref = I;
},
{
pos = (-1,0);
ref = dotaccentcomb.case;
}
);
width = 440;
}
);
unicode = 304;
},
{
glyphname = Igrave;
lastChange = "2023-02-03 15:46:09 +0000";
layers = (
{
background = {
shapes = (
{
closed = 1;
nodes = (
(90,12,o),
(125,0,o),
(160,0,cs),
(560,0,ls),
(595,0,o),
(630,12,o),
(630,70,c),
(280,70,l),
(280,630,l),
(380,630,l),
(380,649,ls),
(380,679,o),
(370,710,o),
(320,710,cs),
(90,710,l),
(90,684,ls),
(90,657,o),
(99,630,o),
(144,630,cs),
(190,630,l),
(190,70,l),
(90,70,l,{
name = hr00;
})
);
},
{
closed = 1;
nodes = (
(149,942,l),
(136,922,ls),
(119,896,o),
(111,878,o),
(111,865,cs),
(111,819,o),
(244,787,o),
(336,770,c),
(358,811,l)
);
}
);
};
layerId = master01;
shapes = (
{
ref = I;
},
{
pos = (-82,0);
ref = gravecomb.case;
}
);
width = 440;
}
);
unicode = 204;
},
{
glyphname = Imacron;
lastChange = "2023-02-03 15:46:09 +0000";
layers = (
{
background = {
shapes = (
{
closed = 1;
nodes = (
(90,12,o),
(125,0,o),
(160,0,cs),
(560,0,ls),
(595,0,o),
(630,12,o),
(630,70,c),
(280,70,l),
(280,630,l),
(380,630,l),
(380,649,ls),
(380,679,o),
(370,710,o),
(320,710,cs),
(90,710,l),
(90,684,ls),
(90,657,o),
(99,630,o),
(144,630,cs),
(190,630,l),
(190,70,l),
(90,70,l,{
name = hr00;
})
);
},
{
closed = 1;
nodes = (
(396,839,ls),
(396,869,o),
(386,900,o),
(336,900,cs),
(76,900,l),
(76,874,ls),
(76,847,o),
(85,820,o),
(130,820,cs),
(396,820,l,{
name = hr00;
})
);
}
);
};
layerId = master01;
shapes = (
{
ref = I;
},
{
pos = (-95,0);
ref = macroncomb.case;
}
);
width = 440;
}
);
unicode = 298;
},
{
glyphname = Iogonek;
lastChange = "2023-02-03 15:46:26 +0000";
layers = (
{
background = {
shapes = (
{
closed = 1;
nodes = (
(90,12,o),
(125,0,o),
(160,0,cs),
(560,0,ls),
(595,0,o),
(630,12,o),
(630,70,c),
(280,70,l),
(280,630,l),
(380,630,l),
(380,649,ls),
(380,679,o),
(370,710,o),
(320,710,cs),
(90,710,l),
(90,684,ls),
(90,657,o),
(99,630,o),
(144,630,cs),
(190,630,l),
(190,70,l),
(90,70,l,{
name = hr00;
})
);
},
{
closed = 1;
nodes = (
(221,37,o),
(185,-36,o),
(185,-98,cs),
(185,-159,o),
(222,-238,o),
(337,-238,cs),
(413,-238,o),
(459,-217,o),
(459,-162,cs),
(459,-152,o),
(458,-141,o),
(455,-129,c),
(419,-150,o),
(385,-158,o),
(357,-158,cs),
(302,-158,o),
(272,-130,o),
(272,-81,cs),
(272,-29,o),
(314,0,o),
(373,0,c),
(373,37,l,{
name = hr00;
})
);
}
);
};
layerId = master01;
shapes = (
{
ref = I;
},
{
pos = (-140,0);
ref = ogonekcomb;
}
);
width = 440;
}
);
unicode = 302;
},
{
glyphname = Itilde;
lastChange = "2023-02-03 15:46:09 +0000";
layers = (
{
background = {
shapes = (
{
closed = 1;
nodes = (
(90,12,o),
(125,0,o),
(160,0,cs),
(560,0,ls),
(595,0,o),
(630,12,o),
(630,70,c),
(280,70,l),
(280,630,l),
(380,630,l),
(380,649,ls),
(380,679,o),
(370,710,o),
(320,710,cs),
(90,710,l),
(90,684,ls),
(90,657,o),
(99,630,o),
(144,630,cs),
(190,630,l),
(190,70,l),
(90,70,l,{
name = hr00;
})
);
},
{
closed = 1;
nodes = (
(72,889,o),
(70,872,o),
(70,859,cs),
(70,815,o),
(108,783,o),
(158,783,cs),
(177,783,o),
(198,787,o),
(220,797,cs),
(254,812,ls),
(282,824,o),
(301,830,o),
(314,830,cs,{
name = hr01;
}),
(333,830,o),
(344,822,o),
(356,811,cs),
(382,786,l),
(401,807,o),
(403,824,o),
(403,837,cs),
(403,881,o),
(365,913,o),
(315,913,cs),
(296,913,o),
(275,909,o),
(253,899,cs),
(219,884,ls),
(191,872,o),
(172,866,o),
(159,866,cs,{
name = hr02;
}),
(140,866,o),
(129,874,o),
(117,885,cs),
(91,910,l)
);
}
);
};
layerId = master01;
shapes = (
{
ref = I;
},
{
pos = (-103,0);
ref = tildecomb.case;
}
);
width = 440;
}
);
unicode = 296;
},
{
glyphname = J;
lastChange = "2023-02-03 15:46:39 +0000";
layers = (
{
anchors = (
{
name = bottom;
pos = (253,0);
},
{
name = top;
pos = (223,710);
}
);
background = {
shapes = (
{
closed = 1;
nodes = (
(660,0,o),
(695,12,o),
(695,70,c),
(315,70,l),
(358,121,o),
(377,205,o),
(377,340,cs),
(377,633,l),
(409,642,o),
(426,669,o),
(426,702,cs),
(426,742,o),
(401,775,o),
(353,775,cs),
(308,775,o),
(284,746,o),
(281,710,c),
(13,710,l),
(13,684,ls),
(13,657,o),
(22,630,o),
(67,630,cs),
(287,630,l),
(287,340,ls),
(287,104,o),
(235,70,o),
(110,70,cs),
(0,70,l),
(0,54,ls),
(0,27,o),
(9,0,o),
(53,0,cs),
(625,0,ls,{
name = hr00;
})
);
}
);
};
layerId = master01;
shapes = (
{
closed = 1;
nodes = (
(660,0,o),
(695,12,o),
(695,70,c),
(315,70,l),
(358,121,o),
(377,205,o),
(377,340,cs),
(377,633,l),
(409,642,o),
(426,669,o),
(426,702,cs),
(426,742,o),
(401,775,o),
(353,775,cs),
(308,775,o),
(284,746,o),
(281,710,c),
(13,710,l),
(13,684,ls),
(13,657,o),
(22,630,o),
(67,630,cs),
(287,630,l),
(287,340,ls),
(287,104,o),
(235,70,o),
(110,70,cs),
(0,70,l),
(0,54,ls),
(0,27,o),
(9,0,o),
(53,0,cs),
(625,0,ls,{
name = hr00;
})
);
}
);
width = 505;
}
);
unicode = 74;
},
{
glyphname = Jcircumflex;
lastChange = "2023-02-03 15:46:47 +0000";
layers = (
{
background = {
shapes = (
{
closed = 1;
nodes = (
(660,0,o),
(695,12,o),
(695,70,c),
(315,70,l),
(358,121,o),
(377,205,o),
(377,340,cs),
(377,633,l),
(409,642,o),
(426,669,o),
(426,702,cs),
(426,742,o),
(401,775,o),
(353,775,cs),
(308,775,o),
(284,746,o),
(281,710,c),
(13,710,l),
(13,684,ls),
(13,657,o),
(22,630,o),
(67,630,cs),
(287,630,l),
(287,340,ls),
(287,104,o),
(235,70,o),
(110,70,cs),
(0,70,l),
(0,54,ls),
(0,27,o),
(9,0,o),
(53,0,cs),
(625,0,ls,{
name = hr00;
})
);
},
{
closed = 1;
nodes = (
(243,962,l),
(203,962,l),
(58,831,l),
(82,791,l),
(143,804,o),
(199,837,o),
(223,865,c),
(244,840,o),
(306,803,o),
(364,791,c),
(388,831,l,{
name = hr00;
})
);
}
);
};
layerId = master01;
shapes = (
{
ref = J;
},
{
pos = (38,0);
ref = circumflexcomb.case;
}
);
width = 505;
}
);
unicode = 308;
},
{
glyphname = K;
lastChange = "2023-02-03 15:47:23 +0000";
layers = (
{
anchors = (
{
name = bottom;
pos = (390,0);
},
{
name = top;
pos = (320,710);
}
);
background = {
shapes = (
{
closed = 1;
nodes = (
(250,98,o),
(272,212,o),
(309,317,c),
(356,245,ls),
(437,119,o),
(509,0,o),
(682,0,cs),
(753,0,ls),
(788,0,o),
(830,12,o),
(830,70,c),
(687,70,ls),
(568,70,o),
(514,149,o),
(409,307,cs),
(345,404,l),
(409,538,o),
(500,640,o),
(603,640,cs),
(657,640,l),
(657,666,ls),
(657,693,o),
(648,720,o),
(603,720,cs),
(447,720,o),
(315,559,o),
(250,343,c),
(250,690,ls,{
name = hr01;
}),
(250,701,o),
(241,710,o),
(230,710,cs),
(180,710,ls),
(169,710,o),
(160,701,o),
(160,690,cs),
(160,191,l),
(147,160,o),
(139,127,o),
(139,91,cs),
(139,28,o),
(165,0,o),
(220,0,cs),
(250,0,l)
);
}
);
};
layerId = master01;
shapes = (
{
closed = 1;
nodes = (
(250,98,o),
(272,212,o),
(309,317,c),
(356,245,ls),
(438,120,o),
(509,0,o),
(682,0,cs),
(753,0,ls),
(788,0,o),
(830,12,o),
(830,70,c),
(687,70,ls),
(568,70,o),
(513,149,o),
(409,307,cs),
(345,404,l),
(409,538,o),
(500,640,o),
(603,640,cs),
(657,640,l),
(657,666,ls),
(657,693,o),
(648,720,o),
(603,720,cs),
(447,720,o),
(315,559,o),
(250,343,c),
(250,690,ls,{
name = hr01;
}),
(250,701,o),
(241,710,o),
(230,710,cs),
(180,710,ls),
(169,710,o),
(160,701,o),
(160,690,cs),
(160,191,l),
(147,160,o),
(139,127,o),
(139,91,cs),
(139,28,o),
(165,0,o),
(220,0,cs),
(250,0,l)
);
}
);
width = 640;
}
);
unicode = 75;
},
{
glyphname = Kcommaaccent;
lastChange = "2023-02-03 15:47:23 +0000";
layers = (
{
background = {
shapes = (
{
closed = 1;
nodes = (
(250,98,o),
(272,212,o),
(309,317,c),
(356,245,ls),
(437,119,o),
(509,0,o),
(682,0,cs),
(753,0,ls),
(788,0,o),
(830,12,o),
(830,70,c),
(687,70,ls),
(568,70,o),
(514,149,o),
(409,307,cs),
(345,404,l),
(409,538,o),
(500,640,o),
(603,640,cs),
(657,640,l),
(657,666,ls),
(657,693,o),
(648,720,o),
(603,720,cs),
(447,720,o),
(315,559,o),
(250,343,c),
(250,690,ls,{
name = hr01;
}),
(250,701,o),
(241,710,o),
(230,710,cs),
(180,710,ls),
(169,710,o),
(160,701,o),
(160,690,cs),
(160,191,l),
(147,160,o),
(139,127,o),
(139,91,cs),
(139,28,o),
(165,0,o),
(220,0,cs),
(250,0,l)
);
},
{
closed = 1;
nodes = (
(404,-314,o),
(459,-230,o),
(459,-159,cs),
(459,-102,o),
(436,-77,o),
(386,-77,cs),
(355,-77,l),
(355,-132,ls),
(355,-245,o),
(337,-286,o),
(320,-328,c),
(357,-359,l,{
name = hr00;
})
);
}
);
};
layerId = master01;
shapes = (
{
ref = K;
},
{
pos = (111,0);
ref = commaaccentcomb;
}
);
width = 640;
}
);
unicode = 310;
},
{
glyphname = L;
lastChange = "2023-02-08 08:58:30 +0000";
layers = (
{
anchors = (
{
name = bottom;
pos = (356,0);
},
{
name = center;
pos = (255,355);
},
{
name = top;
pos = (305,710);
},
{
name = topright;
pos = (543,822);
}
);
background = {
shapes = (
{
closed = 1;
nodes = (
(238,720,o),
(160,651,o),
(160,380,cs),
(160,70,l),
(60,70,l),
(60,12,o),
(95,0,o),
(130,0,cs),
(630,0,ls),
(665,0,o),
(700,12,o),
(700,70,c),
(250,70,l),
(250,380,ls),
(250,616,o),
(302,640,o),
(427,640,cs),
(497,640,l),
(497,666,ls),
(497,693,o),
(488,720,o),
(443,720,cs),
(427,720,ls,{
name = hr00;
})
);
}
);
};
layerId = master01;
shapes = (
{
closed = 1;
nodes = (
(238,720,o),
(160,651,o),
(160,380,cs),
(160,70,l),
(60,70,l),
(60,12,o),
(95,0,o),
(130,0,cs),
(630,0,ls),
(665,0,o),
(700,12,o),
(700,70,c),
(250,70,l),
(250,380,ls),
(250,616,o),
(302,640,o),
(427,640,cs),
(497,640,l),
(497,666,ls),
(497,693,o),
(488,720,o),
(443,720,cs),
(427,720,ls,{
name = hr00;
})
);
}
);
width = 510;
}
);
unicode = 76;
},
{
glyphname = Lacute;
lastChange = "2023-02-03 15:47:31 +0000";
layers = (
{
background = {
shapes = (
{
closed = 1;
nodes = (
(238,720,o),
(160,651,o),
(160,380,cs),
(160,70,l),
(60,70,l),
(60,12,o),
(95,0,o),
(130,0,cs),
(630,0,ls),
(665,0,o),
(700,12,o),
(700,70,c),
(250,70,l),
(250,380,ls),
(250,616,o),
(302,640,o),
(427,640,cs),
(497,640,l),
(497,666,ls),
(497,693,o),
(488,720,o),
(443,720,cs),
(427,720,ls,{
name = hr00;
})
);
},
{
closed = 1;
nodes = (
(346,787,o),
(479,819,o),
(479,865,cs),
(479,878,o),
(472,896,o),
(455,922,cs),
(442,942,l),
(232,811,l),
(255,770,l,{
name = hr00;
})
);
}
);
};
layerId = master01;
shapes = (
{
ref = L;
},
{
pos = (68,0);
ref = acutecomb.case;
}
);
width = 510;
}
);
unicode = 313;
},
{
glyphname = Lcaron;
lastChange = "2023-02-08 08:58:30 +0000";
layers = (
{
background = {
shapes = (
{
closed = 1;
nodes = (
(238,720,o),
(160,651,o),
(160,380,cs),
(160,70,l),
(60,70,l),
(60,12,o),
(95,0,o),
(130,0,cs),
(630,0,ls),
(665,0,o),
(700,12,o),
(700,70,c),
(250,70,l),
(250,380,ls),
(250,616,o),
(302,640,o),
(427,640,cs),
(497,640,l),
(497,666,ls),
(497,693,o),
(488,720,o),
(443,720,cs),
(427,720,ls,{
name = hr00;
})
);
},
{
closed = 1;
nodes = (
(594,586,o),
(649,670,o),
(649,741,cs),
(649,798,o),
(626,823,o),
(576,823,cs),
(545,823,l),
(545,768,ls),
(545,655,o),
(527,614,o),
(510,572,c),
(547,541,l,{
name = hr00;
})
);
}
);
};
layerId = master01;
shapes = (
{
ref = L;
},
{
pos = (363,0);
ref = caroncomb.alt;
}
);
width = 510;
}
);
unicode = 317;
},
{
glyphname = Lcommaaccent;
lastChange = "2023-02-03 15:47:49 +0000";
layers = (
{
background = {
shapes = (
{
closed = 1;
nodes = (
(238,720,o),
(160,651,o),
(160,380,cs),
(160,70,l),
(60,70,l),
(60,12,o),
(95,0,o),
(130,0,cs),
(630,0,ls),
(665,0,o),
(700,12,o),
(700,70,c),
(250,70,l),
(250,380,ls),
(250,616,o),
(302,640,o),
(427,640,cs),
(497,640,l),
(497,666,ls),
(497,693,o),
(488,720,o),
(443,720,cs),
(427,720,ls,{
name = hr00;
})
);
},
{
closed = 1;
nodes = (
(370,-314,o),
(425,-230,o),
(425,-159,cs),
(425,-102,o),
(402,-77,o),
(352,-77,cs),
(321,-77,l),
(321,-132,ls),
(321,-245,o),
(303,-286,o),
(286,-328,c),
(323,-359,l,{
name = hr00;
})
);
}
);
};
layerId = master01;
shapes = (
{
ref = L;
},
{
pos = (77,0);
ref = commaaccentcomb;
}
);
width = 510;
}
);
unicode = 315;
},
{
glyphname = Ldot;
lastChange = "2023-02-03 15:48:59 +0000";
layers = (
{
background = {
shapes = (
{
closed = 1;
nodes = (
(238,720,o),
(160,651,o),
(160,380,cs),
(160,70,l),
(60,70,l),
(60,12,o),
(95,0,o),
(130,0,cs),
(630,0,ls),
(665,0,o),
(700,12,o),
(700,70,c),
(250,70,l),
(250,380,ls),
(250,616,o),
(302,640,o),
(427,640,cs),
(497,640,l),
(497,666,ls),
(497,693,o),
(488,720,o),
(443,720,cs),
(427,720,ls,{
name = hr00;
})
);
},
{
closed = 1;
nodes = (
(321,316,o),
(334,287,o),
(388,287,cs),
(440,287,o),
(456,316,o),
(456,354,cs),
(456,391,o),
(440,422,o),
(388,422,cs),
(334,422,o),
(321,391,o),
(321,354,cs,{
name = hr00;
})
);
}
);
};
layerId = master01;
shapes = (
{
ref = L;
},
{
pos = (107,0);
ref = periodcentered;
}
);
width = 510;
}
);
unicode = 319;
},
{
glyphname = Lslash;
lastChange = "2023-02-03 14:57:40 +0000";
layers = (
{
background = {
shapes = (
{
closed = 1;
nodes = (
(65,257,o),
(78,245,o),
(95,245,cs),
(104,245,o),
(115,249,o),
(127,255,cs),
(160,272,l),
(160,70,l),
(60,70,l),
(60,12,o),
(95,0,o),
(130,0,cs),
(630,0,ls),
(665,0,o),
(700,12,o),
(700,70,c),
(250,70,l),
(250,317,l),
(363,375,l),
(345,411,o),
(331,423,o),
(314,423,cs),
(305,423,o),
(295,419,o),
(283,413,cs),
(250,396,l),
(252,617,o),
(305,640,o),
(427,640,cs),
(497,640,l),
(497,666,ls),
(497,693,o),
(488,720,o),
(443,720,cs),
(427,720,ls),
(238,720,o),
(160,651,o),
(160,380,cs),
(160,350,l),
(47,293,l,{
name = hr00;
})
);
}
);
};
layerId = master01;
shapes = (
{
closed = 1;
nodes = (
(65,257,o),
(78,245,o),
(95,245,cs),
(104,245,o),
(115,249,o),
(127,255,cs),
(160,272,l),
(160,70,l),
(60,70,l),
(60,12,o),
(95,0,o),
(130,0,cs),
(630,0,ls),
(665,0,o),
(700,12,o),
(700,70,c),
(250,70,l),
(250,317,l),
(363,375,l),
(345,411,o),
(331,423,o),
(314,423,cs),
(305,423,o),
(295,419,o),
(283,413,cs),
(250,396,l),
(252,617,o),
(305,640,o),
(427,640,cs),
(497,640,l),
(497,666,ls),
(497,693,o),
(488,720,o),
(443,720,cs),
(427,720,ls),
(238,720,o),
(160,651,o),
(160,380,cs),
(160,350,l),
(47,293,l,{
name = hr00;
})
);
}
);
width = 510;
}
);
unicode = 321;
},
{
glyphname = M;
lastChange = "2023-02-03 14:58:37 +0000";
layers = (
{
anchors = (
{
name = bottom;
pos = (597,0);
},
{
name = top;
pos = (597,710);
}
);
background = {
shapes = (
{
closed = 1;
nodes = (
(250,63,ls),
(250,342,o),
(479,640,o),
(567,640,c),
(567,191,l),
(554,160,o),
(546,127,o),
(546,91,cs),
(546,28,o),
(572,0,o),
(627,0,cs),
(657,0,l),
(657,63,ls),
(657,342,o),
(886,640,o),
(974,640,c),
(974,60,ls),
(974,10,o),
(1002,0,o),
(1033,0,cs),
(1313,0,ls),
(1348,0,o),
(1383,12,o),
(1383,70,c),
(1064,70,l),
(1064,630,ls),
(1064,680,o),
(1044,720,o),
(974,720,cs),
(873,720,o),
(739,558,o),
(657,371,c),
(657,630,ls),
(657,680,o),
(637,720,o),
(567,720,cs),
(466,720,o),
(332,558,o),
(250,371,c),
(250,690,ls,{
name = hr01;
}),
(250,701,o),
(241,710,o),
(230,710,cs),
(180,710,ls),
(169,710,o),
(160,701,o),
(160,690,cs),
(160,191,l),
(147,160,o),
(139,127,o),
(139,91,cs),
(139,30,o),
(163,0,o),
(214,0,cs),
(250,0,l)
);
}
);
};
layerId = master01;
shapes = (
{
closed = 1;
nodes = (
(250,63,ls),
(250,342,o),
(479,640,o),
(567,640,c),
(567,191,l),
(554,160,o),
(546,127,o),
(546,91,cs),
(546,28,o),
(572,0,o),
(627,0,cs),
(657,0,l),
(657,63,ls),
(657,342,o),
(886,640,o),
(974,640,c),
(974,60,ls),
(974,10,o),
(1002,0,o),
(1033,0,cs),
(1313,0,ls),
(1348,0,o),
(1383,12,o),
(1383,70,c),
(1064,70,l),
(1064,630,ls),
(1064,680,o),
(1044,720,o),
(974,720,cs),
(873,720,o),
(739,558,o),
(657,371,c),
(657,630,ls),
(657,680,o),
(637,720,o),
(567,720,cs),
(466,720,o),
(332,558,o),
(250,371,c),
(250,690,ls,{
name = hr01;
}),
(250,701,o),
(241,710,o),
(230,710,cs),
(180,710,ls),
(169,710,o),
(160,701,o),
(160,690,cs),
(160,191,l),
(147,160,o),
(139,127,o),
(139,91,cs),
(139,30,o),
(163,0,o),
(214,0,cs),
(250,0,l)
);
}
);
width = 1193;
}
);
unicode = 77;
},
{
glyphname = N;
lastChange = "2023-02-03 15:49:50 +0000";
layers = (
{
anchors = (
{
name = bottom;
pos = (434,0);
},
{
name = top;
pos = (429,710);
}
);
background = {
shapes = (
{
closed = 1;
nodes = (
(250,63,ls),
(250,342,o),
(492,640,o),
(587,640,c),
(587,60,ls),
(587,10,o),
(617,0,o),
(647,0,cs),
(927,0,ls),
(962,0,o),
(997,12,o),
(997,70,c),
(677,70,l),
(677,630,ls),
(677,680,o),
(657,720,o),
(587,720,cs),
(478,720,o),
(335,554,o),
(250,363,c),
(250,690,ls,{
name = hr01;
}),
(250,701,o),
(241,710,o),
(230,710,cs),
(180,710,ls),
(169,710,o),
(160,701,o),
(160,690,cs),
(160,191,l),
(147,160,o),
(139,127,o),
(139,91,cs),
(139,28,o),
(165,0,o),
(220,0,cs),
(250,0,l)
);
}
);
};
layerId = master01;
shapes = (
{
closed = 1;
nodes = (
(250,63,ls),
(250,342,o),
(492,640,o),
(587,640,c),
(587,60,ls),
(587,10,o),
(617,0,o),
(647,0,cs),
(927,0,ls),
(962,0,o),
(997,12,o),
(997,70,c),
(677,70,l),
(677,630,ls),
(677,680,o),
(657,720,o),
(587,720,cs),
(478,720,o),
(335,554,o),
(250,363,c),
(250,690,ls,{
name = hr01;
}),
(250,701,o),
(241,710,o),
(230,710,cs),
(180,710,ls),
(169,710,o),
(160,701,o),
(160,690,cs),
(160,191,l),
(147,160,o),
(139,127,o),
(139,91,cs),
(139,28,o),
(165,0,o),
(220,0,cs),
(250,0,l)
);
}
);
width = 807;
}
);
unicode = 78;
},
{
glyphname = Nacute;
lastChange = "2023-02-03 15:49:50 +0000";
layers = (
{
background = {
shapes = (
{
closed = 1;
nodes = (
(250,63,ls),
(250,342,o),
(492,640,o),
(587,640,c),
(587,60,ls),
(587,10,o),
(617,0,o),
(647,0,cs),
(927,0,ls),
(962,0,o),
(997,12,o),
(997,70,c),
(677,70,l),
(677,630,ls),
(677,680,o),
(657,720,o),
(587,720,cs),
(478,720,o),
(335,554,o),
(250,363,c),
(250,690,ls,{
name = hr01;
}),
(250,701,o),
(241,710,o),
(230,710,cs),
(180,710,ls),
(169,710,o),
(160,701,o),
(160,690,cs),
(160,191,l),
(147,160,o),
(139,127,o),
(139,91,cs),
(139,28,o),
(165,0,o),
(220,0,cs),
(250,0,l)
);
},
{
closed = 1;
nodes = (
(444,787,o),
(577,819,o),
(577,865,cs),
(577,878,o),
(570,896,o),
(553,922,cs),
(540,942,l),
(330,811,l),
(353,770,l,{
name = hr00;
})
);
}
);
};
layerId = master01;
shapes = (
{
ref = N;
},
{
pos = (192,0);
ref = acutecomb.case;
}
);
width = 807;
}
);
unicode = 323;
},
{
glyphname = Ncaron;
lastChange = "2023-02-03 15:49:50 +0000";
layers = (
{
background = {
shapes = (
{
closed = 1;
nodes = (
(250,63,ls),
(250,342,o),
(492,640,o),
(587,640,c),
(587,60,ls),
(587,10,o),
(617,0,o),
(647,0,cs),
(927,0,ls),
(962,0,o),
(997,12,o),
(997,70,c),
(677,70,l),
(677,630,ls),
(677,680,o),
(657,720,o),
(587,720,cs),
(478,720,o),
(335,554,o),
(250,363,c),
(250,690,ls,{
name = hr01;
}),
(250,701,o),
(241,710,o),
(230,710,cs),
(180,710,ls),
(169,710,o),
(160,701,o),
(160,690,cs),
(160,191,l),
(147,160,o),
(139,127,o),
(139,91,cs),
(139,28,o),
(165,0,o),
(220,0,cs),
(250,0,l)
);
},
{
closed = 1;
nodes = (
(413,791,l),
(453,791,l),
(598,922,l),
(574,962,l),
(513,949,o),
(457,916,o),
(433,888,c),
(412,913,o),
(350,950,o),
(292,962,c),
(268,922,l,{
name = hr00;
})
);
}
);
};
layerId = master01;
shapes = (
{
ref = N;
},
{
pos = (48,0);
ref = caroncomb.case;
}
);
width = 807;
}
);
unicode = 327;
},
{
glyphname = Ncommaaccent;
lastChange = "2023-02-03 15:49:39 +0000";
layers = (
{
background = {
shapes = (
{
closed = 1;
nodes = (
(250,63,ls),
(250,342,o),
(492,640,o),
(587,640,c),
(587,60,ls),
(587,10,o),
(617,0,o),
(647,0,cs),
(927,0,ls),
(962,0,o),
(997,12,o),
(997,70,c),
(677,70,l),
(677,630,ls),
(677,680,o),
(657,720,o),
(587,720,cs),
(478,720,o),
(335,554,o),
(250,363,c),
(250,690,ls,{
name = hr01;
}),
(250,701,o),
(241,710,o),
(230,710,cs),
(180,710,ls),
(169,710,o),
(160,701,o),
(160,690,cs),
(160,191,l),
(147,160,o),
(139,127,o),
(139,91,cs),
(139,28,o),
(165,0,o),
(220,0,cs),
(250,0,l)
);
},
{
closed = 1;
nodes = (
(448,-314,o),
(503,-230,o),
(503,-159,cs),
(503,-102,o),
(480,-77,o),
(430,-77,cs),
(399,-77,l),
(399,-132,ls),
(399,-245,o),
(381,-286,o),
(364,-328,c),
(401,-359,l,{
name = hr00;
})
);
}
);
};
layerId = master01;
shapes = (
{
ref = N;
},
{
pos = (155,0);
ref = commaaccentcomb;
}
);
width = 807;
}
);
unicode = 325;
},
{
glyphname = Ntilde;
lastChange = "2023-02-03 15:49:50 +0000";
layers = (
{
background = {
shapes = (
{
closed = 1;
nodes = (
(250,63,ls),
(250,342,o),
(492,640,o),
(587,640,c),
(587,60,ls),
(587,10,o),
(617,0,o),
(647,0,cs),
(927,0,ls),
(962,0,o),
(997,12,o),
(997,70,c),
(677,70,l),
(677,630,ls),
(677,680,o),
(657,720,o),
(587,720,cs),
(478,720,o),
(335,554,o),
(250,363,c),
(250,690,ls,{
name = hr01;
}),
(250,701,o),
(241,710,o),
(230,710,cs),
(180,710,ls),
(169,710,o),
(160,701,o),
(160,690,cs),
(160,191,l),
(147,160,o),
(139,127,o),
(139,91,cs),
(139,28,o),
(165,0,o),
(220,0,cs),
(250,0,l)
);
},
{
closed = 1;
nodes = (
(283,889,o),
(281,872,o),
(281,859,cs),
(281,815,o),
(319,783,o),
(369,783,cs),
(388,783,o),
(409,787,o),
(431,797,cs),
(465,812,ls),
(493,824,o),
(512,830,o),
(525,830,cs,{
name = hr02;
}),
(544,830,o),
(555,822,o),
(567,811,cs),
(593,786,l),
(612,807,o),
(614,824,o),
(614,837,cs),
(614,881,o),
(576,913,o),
(526,913,cs),
(507,913,o),
(486,909,o),
(464,899,cs),
(430,884,ls),
(402,872,o),
(383,866,o),
(370,866,cs,{
name = hr03;
}),
(351,866,o),
(340,874,o),
(328,885,cs),
(302,910,l)
);
}
);
};
layerId = master01;
shapes = (
{
ref = N;
},
{
pos = (91,0);
ref = tildecomb.case;
}
);
width = 807;
}
);
unicode = 209;
},
{
glyphname = Eng;
lastChange = "2023-02-03 14:58:37 +0000";
layers = (
{
anchors = (
{
name = bottom;
pos = (404,0);
},
{
name = top;
pos = (404,710);
}
);
background = {
shapes = (
{
closed = 1;
nodes = (
(250,63,ls),
(250,342,o),
(492,640,o),
(587,640,c),
(587,30,ls),
(587,-206,o),
(535,-230,o),
(410,-230,cs),
(354,-230,l),
(354,-241,ls),
(354,-290,o),
(368,-310,o),
(410,-310,cs),
(592,-310,o),
(676,-246,o),
(676,0,c),
(927,0,ls),
(962,0,o),
(997,12,o),
(997,70,c),
(677,70,l),
(677,630,ls),
(677,680,o),
(657,720,o),
(587,720,cs),
(478,720,o),
(335,554,o),
(250,363,c),
(250,690,ls),
(250,701,o),
(241,710,o),
(230,710,cs),
(180,710,ls),
(169,710,o),
(160,701,o),
(160,690,cs),
(160,191,l),
(147,160,o),
(139,127,o),
(139,91,cs),
(139,28,o),
(165,0,o),
(220,0,cs),
(250,0,l,{
name = hr00;
})
);
}
);
};
layerId = master01;
shapes = (
{
closed = 1;
nodes = (
(250,63,ls),
(250,342,o),
(492,640,o),
(587,640,c),
(587,30,ls),
(587,-206,o),
(535,-230,o),
(410,-230,cs),
(354,-230,l),
(354,-241,ls),
(354,-290,o),
(368,-310,o),
(410,-310,cs),
(592,-310,o),
(676,-246,o),
(676,0,c),
(927,0,ls),
(962,0,o),
(997,12,o),
(997,70,c),
(677,70,l),
(677,630,ls),
(677,680,o),
(657,720,o),
(587,720,cs),
(478,720,o),
(335,554,o),
(250,363,c),
(250,690,ls),
(250,701,o),
(241,710,o),
(230,710,cs),
(180,710,ls),
(169,710,o),
(160,701,o),
(160,690,cs),
(160,191,l),
(147,160,o),
(139,127,o),
(139,91,cs),
(139,28,o),
(165,0,o),
(220,0,cs),
(250,0,l,{
name = hr00;
})
);
}
);
width = 807;
}
);
unicode = 330;
},
{
glyphname = O;
lastChange = "2023-02-03 15:50:13 +0000";
layers = (
{
anchors = (
{
name = bottom;
pos = (381,0);
},
{
name = center;
pos = (381,355);
},
{
name = ogonek;
pos = (685,10);
},
{
name = top;
pos = (397,710);
},
{
name = topleft;
pos = (20,710);
},
{
name = topright;
pos = (741,710);
}
);
background = {
shapes = (
{
closed = 1;
nodes = (
(670,682,o),
(657,720,o),
(591,720,cs),
(267,720,o),
(115,589,o),
(115,282,cs),
(115,84,ls),
(115,38,o),
(128,0,o),
(194,0,cs),
(881,0,ls),
(916,0,o),
(951,12,o),
(951,70,c),
(495,70,l),
(613,133,o),
(670,249,o),
(670,437,cs),
(670,636,ls,{
name = hr00;
})
);
},
{
closed = 1;
nodes = (
(205,538,o),
(313,640,o),
(580,640,c),
(580,437,ls),
(580,181,o),
(472,70,o),
(205,70,c),
(205,282,ls)
);
}
);
};
layerId = master01;
shapes = (
{
closed = 1;
nodes = (
(670,682,o),
(657,720,o),
(591,720,cs),
(267,720,o),
(115,589,o),
(115,282,cs),
(115,84,ls),
(115,38,o),
(128,0,o),
(194,0,cs),
(881,0,ls),
(916,0,o),
(951,12,o),
(951,70,c),
(495,70,l),
(613,133,o),
(670,249,o),
(670,437,cs),
(670,636,ls,{
name = hr00;
})
);
},
{
closed = 1;
nodes = (
(205,538,o),
(313,640,o),
(580,640,c),
(580,437,ls),
(580,181,o),
(472,70,o),
(205,70,c),
(205,282,ls)
);
}
);
width = 761;
}
);
unicode = 79;
},
{
glyphname = Oacute;
lastChange = "2023-02-03 15:50:13 +0000";
layers = (
{
background = {
shapes = (
{
closed = 1;
nodes = (
(690,682,o),
(677,720,o),
(611,720,cs),
(287,720,o),
(135,589,o),
(135,282,cs),
(135,84,ls),
(135,38,o),
(148,0,o),
(214,0,cs),
(901,0,ls),
(936,0,o),
(971,12,o),
(971,70,c),
(515,70,l),
(633,133,o),
(690,249,o),
(690,437,cs),
(690,636,ls,{
name = hr00;
})
);
},
{
closed = 1;
nodes = (
(225,538,o),
(333,640,o),
(600,640,c),
(600,437,ls),
(600,181,o),
(492,70,o),
(225,70,c),
(225,282,ls)
);
},
{
closed = 1;
nodes = (
(436,787,o),
(569,819,o),
(569,865,cs),
(569,878,o),
(562,896,o),
(545,922,cs),
(532,942,l),
(322,811,l),
(345,770,l)
);
}
);
};
layerId = master01;
shapes = (
{
ref = O;
},
{
pos = (160,0);
ref = acutecomb.case;
}
);
width = 761;
}
);
unicode = 211;
},
{
glyphname = Obreve;
lastChange = "2023-02-03 15:50:13 +0000";
layers = (
{
background = {
shapes = (
{
closed = 1;
nodes = (
(670,682,o),
(657,720,o),
(591,720,cs),
(267,720,o),
(115,589,o),
(115,282,cs),
(115,84,ls),
(115,38,o),
(128,0,o),
(194,0,cs),
(881,0,ls),
(916,0,o),
(951,12,o),
(951,70,c),
(495,70,l),
(613,133,o),
(670,249,o),
(670,437,cs),
(670,636,ls,{
name = hr00;
})
);
},
{
closed = 1;
nodes = (
(205,538,o),
(313,640,o),
(580,640,c),
(580,437,ls),
(580,181,o),
(472,70,o),
(205,70,c),
(205,282,ls)
);
},
{
closed = 1;
nodes = (
(259,909,l),
(319,809,o),
(360,771,o),
(411,771,cs),
(462,771,o),
(503,809,o),
(563,909,c),
(523,942,l),
(411,849,l),
(299,942,l,{
name = hr00;
})
);
}
);
};
layerId = master01;
shapes = (
{
ref = O;
},
{
pos = (16,0);
ref = brevecomb.case;
}
);
width = 761;
}
);
unicode = 334;
},
{
glyphname = Ocircumflex;
lastChange = "2023-02-03 15:50:13 +0000";
layers = (
{
background = {
shapes = (
{
closed = 1;
nodes = (
(670,682,o),
(657,720,o),
(591,720,cs),
(267,720,o),
(115,589,o),
(115,282,cs),
(115,84,ls),
(115,38,o),
(128,0,o),
(194,0,cs),
(881,0,ls),
(916,0,o),
(951,12,o),
(951,70,c),
(495,70,l),
(613,133,o),
(670,249,o),
(670,437,cs),
(670,636,ls,{
name = hr00;
})
);
},
{
closed = 1;
nodes = (
(205,538,o),
(313,640,o),
(580,640,c),
(580,437,ls),
(580,181,o),
(472,70,o),
(205,70,c),
(205,282,ls)
);
},
{
closed = 1;
nodes = (
(415,942,l),
(375,942,l),
(230,811,l),
(254,771,l),
(315,784,o),
(371,817,o),
(395,845,c),
(416,820,o),
(478,783,o),
(536,771,c),
(560,811,l)
);
}
);
};
layerId = master01;
shapes = (
{
ref = O;
},
{
pos = (212,0);
ref = circumflexcomb.case;
}
);
width = 761;
}
);
unicode = 212;
},
{
glyphname = Odieresis;
lastChange = "2023-02-03 15:50:13 +0000";
layers = (
{
background = {
shapes = (
{
closed = 1;
nodes = (
(690,682,o),
(677,720,o),
(611,720,cs),
(287,720,o),
(135,589,o),
(135,282,cs),
(135,84,ls),
(135,38,o),
(148,0,o),
(214,0,cs),
(901,0,ls),
(936,0,o),
(971,12,o),
(971,70,c),
(515,70,l),
(633,133,o),
(690,249,o),
(690,437,cs),
(690,636,ls,{
name = hr00;
})
);
},
{
closed = 1;
nodes = (
(225,538,o),
(333,640,o),
(600,640,c),
(600,437,ls),
(600,181,o),
(492,70,o),
(225,70,c),
(225,282,ls)
);
},
{
closed = 1;
nodes = (
(273,820,o),
(293,793,o),
(334,793,cs),
(374,793,o),
(396,820,o),
(396,854,cs),
(396,887,o),
(374,916,o),
(334,916,cs),
(293,916,o),
(273,887,o),
(273,854,cs)
);
},
{
closed = 1;
nodes = (
(495,820,o),
(515,793,o),
(556,793,cs),
(596,793,o),
(618,820,o),
(618,854,cs),
(618,887,o),
(596,916,o),
(556,916,cs),
(515,916,o),
(495,887,o),
(495,854,cs)
);
}
);
};
layerId = master01;
shapes = (
{
ref = O;
},
{
pos = (161,0);
ref = dieresiscomb.case;
}
);
width = 761;
}
);
unicode = 214;
},
{
glyphname = Ograve;
lastChange = "2023-02-03 15:50:13 +0000";
layers = (
{
background = {
shapes = (
{
closed = 1;
nodes = (
(670,682,o),
(657,720,o),
(591,720,cs),
(267,720,o),
(115,589,o),
(115,282,cs),
(115,84,ls),
(115,38,o),
(128,0,o),
(194,0,cs),
(881,0,ls),
(916,0,o),
(951,12,o),
(951,70,c),
(495,70,l),
(613,133,o),
(670,249,o),
(670,437,cs),
(670,636,ls,{
name = hr00;
})
);
},
{
closed = 1;
nodes = (
(205,538,o),
(313,640,o),
(580,640,c),
(580,437,ls),
(580,181,o),
(472,70,o),
(205,70,c),
(205,282,ls)
);
},
{
closed = 1;
nodes = (
(324,942,l),
(311,922,ls),
(294,896,o),
(286,878,o),
(286,865,cs),
(286,819,o),
(419,787,o),
(511,770,c),
(533,811,l)
);
}
);
};
layerId = master01;
shapes = (
{
ref = O;
},
{
pos = (80,0);
ref = gravecomb.case;
}
);
width = 761;
}
);
unicode = 210;
},
{
glyphname = Ohungarumlaut;
lastChange = "2023-02-03 15:51:17 +0000";
layers = (
{
background = {
shapes = (
{
closed = 1;
nodes = (
(670,682,o),
(657,720,o),
(591,720,cs),
(267,720,o),
(115,589,o),
(115,282,cs),
(115,84,ls),
(115,38,o),
(128,0,o),
(194,0,cs),
(881,0,ls),
(916,0,o),
(951,12,o),
(951,70,c),
(495,70,l),
(613,133,o),
(670,249,o),
(670,437,cs),
(670,636,ls,{
name = hr00;
})
);
},
{
closed = 1;
nodes = (
(205,538,o),
(313,640,o),
(580,640,c),
(580,437,ls),
(580,181,o),
(472,70,o),
(205,70,c),
(205,282,ls)
);
},
{
closed = 1;
nodes = (
(356,807,o),
(449,839,o),
(449,885,cs),
(449,898,o),
(442,916,o),
(425,942,cs),
(412,962,l),
(242,831,l),
(265,790,l,{
name = hr00;
})
);
},
{
closed = 1;
nodes = (
(586,807,o),
(679,839,o),
(679,885,cs),
(679,898,o),
(672,916,o),
(655,942,cs),
(642,962,l),
(472,831,l),
(495,790,l)
);
}
);
};
layerId = master01;
shapes = (
{
ref = O;
},
{
pos = (55,0);
ref = hungarumlautcomb.case;
}
);
width = 761;
}
);
unicode = 336;
},
{
glyphname = Omacron;
lastChange = "2023-02-03 15:50:13 +0000";
layers = (
{
background = {
shapes = (
{
closed = 1;
nodes = (
(670,682,o),
(657,720,o),
(591,720,cs),
(267,720,o),
(115,589,o),
(115,282,cs),
(115,84,ls),
(115,38,o),
(128,0,o),
(194,0,cs),
(881,0,ls),
(916,0,o),
(951,12,o),
(951,70,c),
(495,70,l),
(613,133,o),
(670,249,o),
(670,437,cs),
(670,636,ls,{
name = hr00;
})
);
},
{
closed = 1;
nodes = (
(205,538,o),
(313,640,o),
(580,640,c),
(580,437,ls),
(580,181,o),
(472,70,o),
(205,70,c),
(205,282,ls)
);
},
{
closed = 1;
nodes = (
(570,819,ls),
(570,849,o),
(560,880,o),
(510,880,cs),
(250,880,l),
(250,854,ls),
(250,827,o),
(259,800,o),
(304,800,cs),
(570,800,l,{
name = hr00;
})
);
}
);
};
layerId = master01;
shapes = (
{
ref = O;
},
{
pos = (67,0);
ref = macroncomb.case;
}
);
width = 761;
}
);
unicode = 332;
},
{
glyphname = Oslash;
lastChange = "2023-02-03 14:58:37 +0000";
layers = (
{
anchors = (
{
name = bottom;
pos = (381,0);
},
{
name = top;
pos = (381,710);
}
);
background = {
shapes = (
{
closed = 1;
nodes = (
(538,810,ls),
(495,810,o),
(476,805,o),
(461,750,cs),
(450,710,l),
(223,674,o),
(115,540,o),
(115,282,cs),
(115,84,ls),
(115,38,o),
(128,0,o),
(194,0,cs),
(260,0,l),
(234,-100,l),
(243,-100,ls),
(292,-100,o),
(307,-89,o),
(320,-40,cs),
(330,0,l),
(881,0,ls),
(916,0,o),
(951,12,o),
(951,70,c),
(495,70,l),
(613,133,o),
(670,249,o),
(670,437,cs),
(670,636,ls),
(670,682,o),
(657,720,o),
(591,720,cs),
(567,720,o),
(544,719,o),
(522,718,c),
(547,810,l,{
name = hr00;
})
);
},
{
closed = 1;
nodes = (
(580,437,ls),
(580,235,o),
(512,123,o),
(353,85,c),
(500,636,l),
(525,639,o),
(552,640,o),
(580,640,c)
);
},
{
closed = 1;
nodes = (
(205,482,o),
(271,588,o),
(427,625,c),
(280,73,l),
(256,71,o),
(231,70,o),
(205,70,c),
(205,282,ls)
);
}
);
};
layerId = master01;
shapes = (
{
closed = 1;
nodes = (
(538,810,ls),
(495,810,o),
(476,805,o),
(461,750,cs),
(450,710,l),
(223,674,o),
(115,540,o),
(115,282,cs),
(115,84,ls),
(115,38,o),
(128,0,o),
(194,0,cs),
(260,0,l),
(234,-100,l),
(243,-100,ls),
(292,-100,o),
(307,-89,o),
(320,-40,cs),
(330,0,l),
(881,0,ls),
(916,0,o),
(951,12,o),
(951,70,c),
(495,70,l),
(613,133,o),
(670,249,o),
(670,437,cs),
(670,636,ls),
(670,682,o),
(657,720,o),
(591,720,cs),
(567,720,o),
(544,719,o),
(522,718,c),
(547,810,l,{
name = hr00;
})
);
},
{
closed = 1;
nodes = (
(580,437,ls),
(580,235,o),
(512,123,o),
(353,85,c),
(500,636,l),
(525,639,o),
(552,640,o),
(580,640,c)
);
},
{
closed = 1;
nodes = (
(205,482,o),
(271,588,o),
(427,625,c),
(280,73,l),
(256,71,o),
(231,70,o),
(205,70,c),
(205,282,ls)
);
}
);
width = 761;
}
);
unicode = 216;
},
{
glyphname = Oslashacute;
lastChange = "2023-02-03 14:59:44 +0000";
layers = (
{
background = {
shapes = (
{
closed = 1;
nodes = (
(538,810,ls),
(495,810,o),
(476,805,o),
(461,750,cs),
(450,710,l),
(223,674,o),
(115,540,o),
(115,282,cs),
(115,84,ls),
(115,38,o),
(128,0,o),
(194,0,cs),
(260,0,l),
(234,-100,l),
(243,-100,ls),
(292,-100,o),
(307,-89,o),
(320,-40,cs),
(330,0,l),
(881,0,ls),
(916,0,o),
(951,12,o),
(951,70,c),
(495,70,l),
(613,133,o),
(670,249,o),
(670,437,cs),
(670,636,ls),
(670,682,o),
(657,720,o),
(591,720,cs),
(567,720,o),
(544,719,o),
(522,718,c),
(547,810,l,{
name = hr00;
})
);
},
{
closed = 1;
nodes = (
(580,437,ls),
(580,235,o),
(512,123,o),
(353,85,c),
(500,636,l),
(525,639,o),
(552,640,o),
(580,640,c)
);
},
{
closed = 1;
nodes = (
(205,482,o),
(271,588,o),
(427,625,c),
(280,73,l),
(256,71,o),
(231,70,o),
(205,70,c),
(205,282,ls)
);
},
{
closed = 1;
nodes = (
(437,839,o),
(570,871,o),
(570,917,cs),
(570,930,o),
(563,948,o),
(546,974,cs),
(533,994,l),
(323,863,l),
(346,822,l,{
name = hr00;
})
);
}
);
};
layerId = master01;
shapes = (
{
ref = Oslash;
},
{
pos = (144,0);
ref = acutecomb.case;
}
);
width = 761;
}
);
unicode = 510;
},
{
glyphname = Otilde;
lastChange = "2023-02-03 15:50:13 +0000";
layers = (
{
background = {
shapes = (
{
closed = 1;
nodes = (
(670,682,o),
(657,720,o),
(591,720,cs),
(267,720,o),
(115,589,o),
(115,282,cs),
(115,84,ls),
(115,38,o),
(128,0,o),
(194,0,cs),
(881,0,ls),
(916,0,o),
(951,12,o),
(951,70,c),
(495,70,l),
(613,133,o),
(670,249,o),
(670,437,cs),
(670,636,ls)
);
},
{
closed = 1;
nodes = (
(205,538,o),
(313,640,o),
(580,640,c),
(580,437,ls),
(580,181,o),
(472,70,o),
(205,70,c),
(205,282,ls)
);
},
{
closed = 1;
nodes = (
(256,889,o),
(254,872,o),
(254,859,cs),
(254,815,o),
(292,783,o),
(342,783,cs),
(361,783,o),
(382,787,o),
(404,797,cs),
(438,812,ls),
(466,824,o),
(485,830,o),
(498,830,cs,{
name = hr01;
}),
(517,830,o),
(528,822,o),
(540,811,cs),
(566,786,l),
(585,807,o),
(587,824,o),
(587,837,cs),
(587,881,o),
(549,913,o),
(499,913,cs),
(480,913,o),
(459,909,o),
(437,899,cs),
(403,884,ls),
(375,872,o),
(356,866,o),
(343,866,cs,{
name = hr02;
}),
(324,866,o),
(313,874,o),
(301,885,cs),
(275,910,l)
);
}
);
};
layerId = master01;
shapes = (
{
ref = O;
},
{
pos = (59,0);
ref = tildecomb.case;
}
);
width = 761;
}
);
unicode = 213;
},
{
glyphname = OE;
lastChange = "2023-02-03 14:58:37 +0000";
layers = (
{
anchors = (
{
name = bottom;
pos = (511,0);
},
{
name = top;
pos = (511,710);
}
);
background = {
shapes = (
{
closed = 1;
nodes = (
(670,682,o),
(657,720,o),
(591,720,cs),
(267,720,o),
(115,589,o),
(115,282,cs),
(115,84,ls),
(115,38,o),
(128,0,o),
(194,0,cs),
(399,0,o),
(536,53,o),
(608,169,c),
(646,74,o),
(732,0,o),
(910,0,cs),
(1141,0,ls),
(1176,0,o),
(1211,12,o),
(1211,70,c),
(914,70,ls),
(712,70,o),
(676,206,o),
(670,299,c),
(844,299,ls),
(879,299,o),
(914,316,o),
(914,374,c),
(669,374,l),
(673,493,o),
(705,630,o),
(914,630,cs),
(996,630,l),
(996,656,ls),
(996,683,o),
(987,710,o),
(942,710,cs,{
name = hr01;
}),
(920,710,ls),
(801,710,o),
(722,676,o),
(670,623,c),
(670,636,ls)
);
},
{
closed = 1;
nodes = (
(580,182,o),
(472,80,o),
(205,80,c),
(205,282,ls),
(205,538,o),
(313,640,o),
(580,640,c),
(580,438,ls)
);
}
);
};
layerId = master01;
shapes = (
{
closed = 1;
nodes = (
(670,682,o),
(657,720,o),
(591,720,cs),
(267,720,o),
(115,589,o),
(115,282,cs),
(115,84,ls),
(115,38,o),
(128,0,o),
(194,0,cs),
(399,0,o),
(536,53,o),
(608,169,c),
(646,74,o),
(732,0,o),
(910,0,cs),
(1141,0,ls),
(1176,0,o),
(1211,12,o),
(1211,70,c),
(914,70,ls),
(712,70,o),
(676,206,o),
(670,299,c),
(844,299,ls),
(879,299,o),
(914,316,o),
(914,374,c),
(669,374,l),
(673,493,o),
(705,630,o),
(914,630,cs),
(996,630,l),
(996,656,ls),
(996,683,o),
(987,710,o),
(942,710,cs,{
name = hr01;
}),
(920,710,ls),
(801,710,o),
(722,676,o),
(670,623,c),
(670,636,ls)
);
},
{
closed = 1;
nodes = (
(580,182,o),
(472,80,o),
(205,80,c),
(205,282,ls),
(205,538,o),
(313,640,o),
(580,640,c),
(580,438,ls)
);
}
);
width = 1021;
}
);
unicode = 338;
},
{
glyphname = P;
lastChange = "2023-02-03 14:58:37 +0000";
layers = (
{
anchors = (
{
name = bottom;
pos = (309,0);
},
{
name = top;
pos = (309,710);
}
);
background = {
shapes = (
{
closed = 1;
nodes = (
(170,60,ls),
(170,10,o),
(201,0,o),
(231,0,cs),
(737,0,ls),
(772,0,o),
(807,12,o),
(807,70,c),
(260,70,l),
(260,212,l),
(429,253,o),
(601,389,o),
(601,532,cs),
(601,585,o),
(573,710,o),
(349,710,cs),
(149,710,ls),
(126,710,o),
(100,700,o),
(100,650,cs),
(100,630,l),
(349,630,ls),
(471,630,o),
(511,589,o),
(511,532,cs),
(511,456,o),
(435,338,o),
(260,296,c),
(260,520,ls),
(260,570,o),
(229,580,o),
(199,580,cs),
(170,580,l),
(170,282,l),
(152,280,o),
(134,280,o),
(116,280,c),
(116,260,ls),
(116,210,o),
(138,200,o),
(161,200,cs),
(170,200,l,{
name = hr00;
})
);
}
);
};
layerId = master01;
shapes = (
{
closed = 1;
nodes = (
(170,60,ls),
(170,10,o),
(201,0,o),
(231,0,cs),
(737,0,ls),
(772,0,o),
(807,12,o),
(807,70,c),
(260,70,l),
(260,212,l),
(429,253,o),
(601,389,o),
(601,532,cs),
(601,585,o),
(573,710,o),
(349,710,cs),
(149,710,ls),
(126,710,o),
(100,700,o),
(100,650,cs),
(100,630,l),
(349,630,ls),
(471,630,o),
(511,589,o),
(511,532,cs),
(511,456,o),
(435,338,o),
(260,296,c),
(260,520,ls),
(260,570,o),
(229,580,o),
(199,580,cs),
(170,580,l),
(170,282,l),
(152,280,o),
(134,280,o),
(116,280,c),
(116,260,ls),
(116,210,o),
(138,200,o),
(161,200,cs),
(170,200,l,{
name = hr00;
})
);
}
);
width = 617;
}
);
unicode = 80;
},
{
glyphname = Thorn;
lastChange = "2023-02-03 14:58:37 +0000";
layers = (
{
anchors = (
{
name = bottom;
pos = (309,0);
},
{
name = top;
pos = (309,710);
}
);
background = {
shapes = (
{
closed = 1;
nodes = (
(170,60,ls),
(170,10,o),
(201,0,o),
(231,0,cs),
(737,0,ls),
(772,0,o),
(807,12,o),
(807,70,c),
(260,70,l),
(260,132,l),
(429,173,o),
(601,309,o),
(601,452,cs),
(601,505,o),
(573,630,o),
(349,630,cs),
(260,630,l),
(260,690,ls),
(260,701,o),
(250,710,o),
(239,710,cs),
(190,710,ls),
(179,710,o),
(170,701,o),
(170,690,cs),
(170,202,l),
(152,200,o),
(134,200,o),
(116,200,c),
(116,180,ls),
(116,130,o),
(138,120,o),
(161,120,cs),
(170,120,l,{
name = hr00;
})
);
},
{
closed = 1;
nodes = (
(471,550,o),
(511,509,o),
(511,452,cs),
(511,376,o),
(435,258,o),
(260,216,c),
(260,550,l),
(349,550,ls)
);
}
);
};
layerId = master01;
shapes = (
{
closed = 1;
nodes = (
(170,60,ls),
(170,10,o),
(201,0,o),
(231,0,cs),
(737,0,ls),
(772,0,o),
(807,12,o),
(807,70,c),
(260,70,l),
(260,132,l),
(429,173,o),
(601,309,o),
(601,452,cs),
(601,505,o),
(573,630,o),
(349,630,cs),
(260,630,l),
(260,690,ls),
(260,701,o),
(250,710,o),
(239,710,cs),
(190,710,ls),
(179,710,o),
(170,701,o),
(170,690,cs),
(170,202,l),
(152,200,o),
(134,200,o),
(116,200,c),
(116,180,ls),
(116,130,o),
(138,120,o),
(161,120,cs),
(170,120,l,{
name = hr00;
})
);
},
{
closed = 1;
nodes = (
(471,550,o),
(511,509,o),
(511,452,cs),
(511,376,o),
(435,258,o),
(260,216,c),
(260,550,l),
(349,550,ls)
);
}
);
width = 617;
}
);
unicode = 222;
},
{
glyphname = Q;
lastChange = "2023-02-03 14:58:37 +0000";
layers = (
{
anchors = (
{
name = bottom;
pos = (381,0);
},
{
name = top;
pos = (381,710);
}
);
background = {
shapes = (
{
closed = 1;
nodes = (
(205,538,o),
(313,640,o),
(580,640,c),
(580,437,ls),
(580,181,o),
(472,70,o),
(205,70,cs),
(115,70,l),
(115,-4,o),
(162,-20,o),
(204,-20,cs),
(238,-20,o),
(271,-11,o),
(300,0,c,{
name = hr01;
}),
(881,0,ls),
(916,0,o),
(951,12,o),
(951,70,c),
(498,70,l),
(614,133,o),
(670,251,o),
(670,437,cs),
(670,636,ls),
(670,682,o),
(657,720,o),
(591,720,cs),
(267,720,o),
(115,589,o),
(115,282,cs),
(115,222,l),
(144,222,ls),
(174,222,o),
(205,232,o),
(205,282,cs)
);
}
);
};
layerId = master01;
shapes = (
{
closed = 1;
nodes = (
(205,538,o),
(313,640,o),
(580,640,c),
(580,437,ls),
(580,181,o),
(472,70,o),
(205,70,cs),
(115,70,l),
(115,-4,o),
(162,-20,o),
(204,-20,cs),
(238,-20,o),
(271,-11,o),
(300,0,c,{
name = hr01;
}),
(881,0,ls),
(916,0,o),
(951,12,o),
(951,70,c),
(498,70,l),
(614,133,o),
(670,251,o),
(670,437,cs),
(670,636,ls),
(670,682,o),
(657,720,o),
(591,720,cs),
(267,720,o),
(115,589,o),
(115,282,cs),
(115,222,l),
(144,222,ls),
(174,222,o),
(205,232,o),
(205,282,cs)
);
}
);
width = 761;
}
);
unicode = 81;
},
{
glyphname = R;
lastChange = "2023-02-03 15:50:36 +0000";
layers = (
{
anchors = (
{
name = bottom;
pos = (374,0);
},
{
name = top;
pos = (324,710);
}
);
background = {
shapes = (
{
closed = 1;
nodes = (
(796,0,o),
(837,2,o),
(837,70,c),
(730,70,ls),
(531,70,o),
(456,199,o),
(448,298,c),
(537,360,o),
(601,444,o),
(601,532,cs),
(601,585,o),
(573,710,o),
(349,710,cs),
(149,710,ls),
(126,710,o),
(100,700,o),
(100,650,cs),
(100,630,l),
(349,630,ls),
(471,630,o),
(511,589,o),
(511,532,cs),
(511,456,o),
(435,338,o),
(260,296,c),
(260,520,ls),
(260,570,o),
(229,580,o),
(199,580,cs),
(170,580,l),
(170,282,l),
(152,280,o),
(134,280,o),
(116,280,c),
(116,260,ls),
(116,210,o),
(138,200,o),
(161,200,cs),
(170,200,l),
(170,20,ls),
(170,9,o),
(179,0,o),
(190,0,cs),
(240,0,ls),
(251,0,o),
(260,9,o),
(260,20,cs),
(260,212,l),
(298,221,o),
(336,235,o),
(372,253,c),
(406,120,o),
(492,0,o),
(714,0,cs,{
name = hr00;
})
);
}
);
};
layerId = master01;
shapes = (
{
closed = 1;
nodes = (
(796,0,o),
(837,2,o),
(837,70,c),
(730,70,ls),
(531,70,o),
(456,199,o),
(448,298,c),
(537,360,o),
(601,444,o),
(601,532,cs),
(601,585,o),
(573,710,o),
(349,710,cs),
(149,710,ls),
(126,710,o),
(100,700,o),
(100,650,cs),
(100,630,l),
(349,630,ls),
(471,630,o),
(511,589,o),
(511,532,cs),
(511,456,o),
(435,338,o),
(260,296,c),
(260,520,ls),
(260,570,o),
(229,580,o),
(199,580,cs),
(170,580,l),
(170,282,l),
(152,280,o),
(134,280,o),
(116,280,c),
(116,260,ls),
(116,210,o),
(138,200,o),
(161,200,cs),
(170,200,l),
(170,20,ls),
(170,9,o),
(179,0,o),
(190,0,cs),
(240,0,ls),
(251,0,o),
(260,9,o),
(260,20,cs),
(260,212,l),
(298,221,o),
(336,235,o),
(372,253,c),
(406,120,o),
(492,0,o),
(714,0,cs,{
name = hr00;
})
);
}
);
width = 647;
}
);
unicode = 82;
},
{
glyphname = Racute;
lastChange = "2023-02-03 14:59:44 +0000";
layers = (
{
background = {
shapes = (
{
closed = 1;
nodes = (
(796,0,o),
(837,2,o),
(837,70,c),
(730,70,ls),
(531,70,o),
(456,199,o),
(448,298,c),
(537,360,o),
(601,444,o),
(601,532,cs),
(601,585,o),
(573,710,o),
(349,710,cs),
(149,710,ls),
(126,710,o),
(100,700,o),
(100,650,cs),
(100,630,l),
(349,630,ls),
(471,630,o),
(511,589,o),
(511,532,cs),
(511,456,o),
(435,338,o),
(260,296,c),
(260,520,ls),
(260,570,o),
(229,580,o),
(199,580,cs),
(170,580,l),
(170,282,l),
(152,280,o),
(134,280,o),
(116,280,c),
(116,260,ls),
(116,210,o),
(138,200,o),
(161,200,cs),
(170,200,l),
(170,20,ls),
(170,9,o),
(179,0,o),
(190,0,cs),
(240,0,ls),
(251,0,o),
(260,9,o),
(260,20,cs),
(260,212,l),
(298,221,o),
(336,235,o),
(372,253,c),
(406,120,o),
(492,0,o),
(714,0,cs,{
name = hr00;
})
);
},
{
closed = 1;
nodes = (
(364,787,o),
(497,819,o),
(497,865,cs),
(497,878,o),
(490,896,o),
(473,922,cs),
(460,942,l),
(250,811,l),
(273,770,l,{
name = hr00;
})
);
}
);
};
layerId = master01;
shapes = (
{
ref = R;
},
{
pos = (87,0);
ref = acutecomb.case;
}
);
width = 647;
}
);
unicode = 340;
},
{
glyphname = Rcaron;
lastChange = "2023-02-03 14:58:50 +0000";
layers = (
{
background = {
shapes = (
{
closed = 1;
nodes = (
(796,0,o),
(837,2,o),
(837,70,c),
(730,70,ls),
(531,70,o),
(456,199,o),
(448,298,c),
(537,360,o),
(601,444,o),
(601,532,cs),
(601,585,o),
(573,710,o),
(349,710,cs),
(149,710,ls),
(126,710,o),
(100,700,o),
(100,650,cs),
(100,630,l),
(349,630,ls),
(471,630,o),
(511,589,o),
(511,532,cs),
(511,456,o),
(435,338,o),
(260,296,c),
(260,520,ls),
(260,570,o),
(229,580,o),
(199,580,cs),
(170,580,l),
(170,282,l),
(152,280,o),
(134,280,o),
(116,280,c),
(116,260,ls),
(116,210,o),
(138,200,o),
(161,200,cs),
(170,200,l),
(170,20,ls),
(170,9,o),
(179,0,o),
(190,0,cs),
(240,0,ls),
(251,0,o),
(260,9,o),
(260,20,cs),
(260,212,l),
(298,221,o),
(336,235,o),
(372,253,c),
(406,120,o),
(492,0,o),
(714,0,cs,{
name = hr00;
})
);
},
{
closed = 1;
nodes = (
(334,771,l),
(374,771,l),
(519,902,l),
(495,942,l),
(434,929,o),
(378,896,o),
(354,868,c),
(333,893,o),
(271,930,o),
(213,942,c),
(189,902,l,{
name = hr00;
})
);
}
);
};
layerId = master01;
shapes = (
{
ref = R;
},
{
pos = (-57,0);
ref = caroncomb.case;
}
);
width = 647;
}
);
unicode = 344;
},
{
glyphname = Rcommaaccent;
lastChange = "2023-02-03 15:50:36 +0000";
layers = (
{
background = {
shapes = (
{
closed = 1;
nodes = (
(796,0,o),
(837,2,o),
(837,70,c),
(730,70,ls),
(531,70,o),
(456,199,o),
(448,298,c),
(537,360,o),
(601,444,o),
(601,532,cs),
(601,585,o),
(573,710,o),
(349,710,cs),
(149,710,ls),
(126,710,o),
(100,700,o),
(100,650,cs),
(100,630,l),
(349,630,ls),
(471,630,o),
(511,589,o),
(511,532,cs),
(511,456,o),
(435,338,o),
(260,296,c),
(260,520,ls),
(260,570,o),
(229,580,o),
(199,580,cs),
(170,580,l),
(170,282,l),
(152,280,o),
(134,280,o),
(116,280,c),
(116,260,ls),
(116,210,o),
(138,200,o),
(161,200,cs),
(170,200,l),
(170,20,ls),
(170,9,o),
(179,0,o),
(190,0,cs),
(240,0,ls),
(251,0,o),
(260,9,o),
(260,20,cs),
(260,212,l),
(298,221,o),
(336,235,o),
(372,253,c),
(406,120,o),
(492,0,o),
(714,0,cs,{
name = hr00;
})
);
},
{
closed = 1;
nodes = (
(388,-314,o),
(443,-230,o),
(443,-159,cs),
(443,-102,o),
(420,-77,o),
(370,-77,cs),
(339,-77,l),
(339,-132,ls),
(339,-245,o),
(321,-286,o),
(304,-328,c),
(341,-359,l,{
name = hr00;
})
);
}
);
};
layerId = master01;
shapes = (
{
ref = R;
},
{
pos = (95,0);
ref = commaaccentcomb;
}
);
width = 647;
}
);
unicode = 342;
},
{
glyphname = S;
lastChange = "2023-02-03 14:58:37 +0000";
layers = (
{
anchors = (
{
name = bottom;
pos = (354,0);
},
{
name = top;
pos = (354,710);
}
);
background = {
shapes = (
{
closed = 1;
nodes = (
(180,462,o),
(199,640,o),
(522,640,cs),
(595,640,l),
(595,660,ls),
(595,710,o),
(565,720,o),
(535,720,cs),
(175,720,o),
(90,530,o),
(90,384,cs),
(90,314,o),
(130,299,o),
(180,299,cs),
(535,299,l),
(535,211,o),
(486,70,o),
(153,70,cs),
(90,70,l),
(90,60,ls),
(90,10,o),
(120,0,o),
(150,0,cs),
(827,0,ls),
(862,0,o),
(897,12,o),
(897,70,c),
(488,70,l),
(587,126,o),
(625,211,o),
(625,294,cs),
(625,364,o),
(585,374,o),
(535,374,cs),
(180,374,l,{
name = hr00;
})
);
}
);
};
layerId = master01;
shapes = (
{
closed = 1;
nodes = (
(180,462,o),
(199,640,o),
(522,640,cs),
(595,640,l),
(595,660,ls),
(595,710,o),
(565,720,o),
(535,720,cs),
(175,720,o),
(90,530,o),
(90,384,cs),
(90,314,o),
(130,299,o),
(180,299,cs),
(535,299,l),
(535,211,o),
(486,70,o),
(153,70,cs),
(90,70,l),
(90,60,ls),
(90,10,o),
(120,0,o),
(150,0,cs),
(827,0,ls),
(862,0,o),
(897,12,o),
(897,70,c),
(488,70,l),
(587,126,o),
(625,211,o),
(625,294,cs),
(625,364,o),
(585,374,o),
(535,374,cs),
(180,374,l,{
name = hr00;
})
);
}
);
width = 707;
}
);
unicode = 83;
},
{
glyphname = Sacute;
lastChange = "2023-02-03 14:59:44 +0000";
layers = (
{
background = {
shapes = (
{
closed = 1;
nodes = (
(180,462,o),
(199,640,o),
(522,640,cs),
(595,640,l),
(595,660,ls),
(595,710,o),
(565,720,o),
(535,720,cs),
(175,720,o),
(90,530,o),
(90,384,cs),
(90,314,o),
(130,299,o),
(180,299,cs),
(535,299,l),
(535,211,o),
(486,70,o),
(153,70,cs),
(90,70,l),
(90,60,ls),
(90,10,o),
(120,0,o),
(150,0,cs),
(827,0,ls),
(862,0,o),
(897,12,o),
(897,70,c),
(488,70,l),
(587,126,o),
(625,211,o),
(625,294,cs),
(625,364,o),
(585,374,o),
(535,374,cs),
(180,374,l,{
name = hr00;
})
);
},
{
closed = 1;
nodes = (
(394,787,o),
(527,819,o),
(527,865,cs),
(527,878,o),
(520,896,o),
(503,922,cs),
(490,942,l),
(280,811,l),
(303,770,l,{
name = hr00;
})
);
}
);
};
layerId = master01;
shapes = (
{
ref = S;
},
{
pos = (117,0);
ref = acutecomb.case;
}
);
width = 707;
}
);
unicode = 346;
},
{
glyphname = Scaron;
lastChange = "2023-02-03 14:58:50 +0000";
layers = (
{
background = {
shapes = (
{
closed = 1;
nodes = (
(180,462,o),
(199,640,o),
(522,640,cs),
(595,640,l),
(595,660,ls),
(595,710,o),
(565,720,o),
(535,720,cs),
(175,720,o),
(90,530,o),
(90,384,cs),
(90,314,o),
(130,299,o),
(180,299,cs),
(535,299,l),
(535,211,o),
(486,70,o),
(153,70,cs),
(90,70,l),
(90,60,ls),
(90,10,o),
(120,0,o),
(150,0,cs),
(827,0,ls),
(862,0,o),
(897,12,o),
(897,70,c),
(488,70,l),
(587,126,o),
(625,211,o),
(625,294,cs),
(625,364,o),
(585,374,o),
(535,374,cs),
(180,374,l,{
name = hr00;
})
);
},
{
closed = 1;
nodes = (
(334,791,l),
(374,791,l),
(519,922,l),
(495,962,l),
(434,949,o),
(378,916,o),
(354,888,c),
(333,913,o),
(271,950,o),
(213,962,c),
(189,922,l)
);
}
);
};
layerId = master01;
shapes = (
{
ref = S;
},
{
pos = (-27,0);
ref = caroncomb.case;
}
);
width = 707;
}
);
unicode = 352;
},
{
glyphname = Scedilla;
lastChange = "2023-02-03 14:58:50 +0000";
layers = (
{
background = {
shapes = (
{
closed = 1;
nodes = (
(180,462,o),
(199,640,o),
(522,640,cs),
(595,640,l),
(595,660,ls),
(595,710,o),
(565,720,o),
(535,720,cs),
(175,720,o),
(90,530,o),
(90,384,cs),
(90,314,o),
(130,299,o),
(180,299,cs),
(535,299,l),
(535,211,o),
(486,70,o),
(153,70,cs),
(90,70,l),
(90,60,ls),
(90,10,o),
(120,0,o),
(150,0,cs),
(827,0,ls),
(862,0,o),
(897,12,o),
(897,70,c),
(488,70,l),
(587,126,o),
(625,211,o),
(625,294,cs),
(625,364,o),
(585,374,o),
(535,374,cs),
(180,374,l,{
name = hr00;
})
);
},
{
closed = 1;
nodes = (
(260,-123,o),
(259,-129,o),
(259,-134,cs),
(259,-151,o),
(267,-160,o),
(289,-160,cs),
(384,-160,l),
(384,-224,o),
(353,-243,o),
(262,-243,cs),
(241,-243,l),
(241,-300,o),
(248,-310,o),
(282,-310,cs),
(399,-310,o),
(465,-250,o),
(465,-149,cs),
(465,-122,o),
(448,-93,o),
(414,-93,cs),
(325,-93,l),
(350,37,l),
(291,37,l,{
name = hr00;
})
);
}
);
};
layerId = master01;
shapes = (
{
ref = S;
},
{
pos = (102,0);
ref = cedillacomb;
}
);
width = 707;
}
);
unicode = 350;
},
{
glyphname = Scircumflex;
lastChange = "2023-02-03 15:46:51 +0000";
layers = (
{
background = {
shapes = (
{
closed = 1;
nodes = (
(180,462,o),
(199,640,o),
(522,640,cs),
(595,640,l),
(595,660,ls),
(595,710,o),
(565,720,o),
(535,720,cs),
(175,720,o),
(90,530,o),
(90,384,cs),
(90,314,o),
(130,299,o),
(180,299,cs),
(535,299,l),
(535,211,o),
(486,70,o),
(153,70,cs),
(90,70,l),
(90,60,ls),
(90,10,o),
(120,0,o),
(150,0,cs),
(827,0,ls),
(862,0,o),
(897,12,o),
(897,70,c),
(488,70,l),
(587,126,o),
(625,211,o),
(625,294,cs),
(625,364,o),
(585,374,o),
(535,374,cs),
(180,374,l,{
name = hr00;
})
);
},
{
closed = 1;
nodes = (
(424,942,l),
(384,942,l),
(239,811,l),
(263,771,l),
(324,784,o),
(380,817,o),
(404,845,c),
(425,820,o),
(487,783,o),
(545,771,c),
(569,811,l,{
name = hr00;
})
);
}
);
};
layerId = master01;
shapes = (
{
ref = S;
},
{
pos = (169,0);
ref = circumflexcomb.case;
}
);
width = 707;
}
);
unicode = 348;
},
{
glyphname = Scommaaccent;
lastChange = "2023-02-03 15:45:02 +0000";
layers = (
{
background = {
shapes = (
{
closed = 1;
nodes = (
(180,462,o),
(199,640,o),
(522,640,cs),
(595,640,l),
(595,660,ls),
(595,710,o),
(565,720,o),
(535,720,cs),
(175,720,o),
(90,530,o),
(90,384,cs),
(90,314,o),
(130,299,o),
(180,299,cs),
(535,299,l),
(535,211,o),
(486,70,o),
(153,70,cs),
(90,70,l),
(90,60,ls),
(90,10,o),
(120,0,o),
(150,0,cs),
(827,0,ls),
(862,0,o),
(897,12,o),
(897,70,c),
(488,70,l),
(587,126,o),
(625,211,o),
(625,294,cs),
(625,364,o),
(585,374,o),
(535,374,cs),
(180,374,l,{
name = hr00;
})
);
},
{
closed = 1;
nodes = (
(368,-314,o),
(423,-230,o),
(423,-159,cs),
(423,-102,o),
(400,-77,o),
(350,-77,cs),
(319,-77,l),
(319,-132,ls),
(319,-245,o),
(301,-286,o),
(284,-328,c),
(321,-359,l,{
name = hr00;
})
);
}
);
};
layerId = master01;
shapes = (
{
ref = S;
},
{
pos = (75,0);
ref = commaaccentcomb;
}
);
width = 707;
}
);
unicode = 536;
},
{
glyphname = T;
lastChange = "2023-02-03 15:51:02 +0000";
layers = (
{
anchors = (
{
name = bottom;
pos = (415,0);
},
{
name = center;
pos = (385,355);
},
{
name = top;
pos = (385,710);
}
);
background = {
shapes = (
{
closed = 1;
nodes = (
(238,379,o),
(376,630,o),
(605,630,cs),
(686,630,l),
(686,704,o),
(639,726,o),
(597,726,cs,{
name = hr01;
}),
(563,726,o),
(531,720,o),
(502,710,c,{
name = hr02;
}),
(111,710,l),
(111,684,ls),
(111,657,o),
(120,630,o),
(165,630,cs),
(383,630,l),
(249,525,o),
(148,327,o),
(148,84,cs),
(148,38,o),
(161,0,o),
(227,0,cs),
(890,0,ls),
(925,0,o),
(960,12,o),
(960,70,c),
(532,70,l),
(626,126,o),
(663,215,o),
(663,358,cs),
(663,418,l),
(634,418,ls),
(604,418,o),
(573,408,o),
(573,358,cs),
(573,162,o),
(505,70,o),
(238,70,c)
);
}
);
};
layerId = master01;
shapes = (
{
closed = 1;
nodes = (
(238,379,o),
(376,630,o),
(605,630,cs),
(686,630,l),
(686,704,o),
(639,726,o),
(597,726,cs,{
name = hr01;
}),
(563,726,o),
(531,720,o),
(502,710,c,{
name = hr02;
}),
(111,710,l),
(111,684,ls),
(111,657,o),
(120,630,o),
(165,630,cs),
(383,630,l),
(249,525,o),
(148,327,o),
(148,84,cs),
(148,38,o),
(161,0,o),
(227,0,cs),
(890,0,ls),
(925,0,o),
(960,12,o),
(960,70,c),
(532,70,l),
(626,126,o),
(663,215,o),
(663,358,cs),
(663,418,l),
(634,418,ls),
(604,418,o),
(573,408,o),
(573,358,cs),
(573,162,o),
(505,70,o),
(238,70,c)
);
}
);
width = 770;
}
);
unicode = 84;
},
{
glyphname = Tbar;
lastChange = "2023-02-03 15:50:54 +0000";
layers = (
{
background = {
shapes = (
{
closed = 1;
nodes = (
(238,379,o),
(376,630,o),
(605,630,cs),
(686,630,l),
(686,704,o),
(639,726,o),
(597,726,cs,{
name = hr01;
}),
(563,726,o),
(531,720,o),
(502,710,c,{
name = hr02;
}),
(111,710,l),
(111,684,ls),
(111,657,o),
(120,630,o),
(165,630,cs),
(383,630,l),
(249,525,o),
(148,327,o),
(148,84,cs),
(148,38,o),
(161,0,o),
(227,0,cs),
(890,0,ls),
(925,0,o),
(960,12,o),
(960,70,c),
(532,70,l),
(626,126,o),
(663,215,o),
(663,358,cs),
(663,418,l),
(634,418,ls),
(604,418,o),
(573,408,o),
(573,358,cs),
(573,162,o),
(505,70,o),
(238,70,c)
);
},
{
closed = 1;
nodes = (
(438,320,o),
(448,345,o),
(448,390,c),
(134,390,ls),
(89,390,o),
(80,365,o),
(80,320,c),
(394,320,l,{
name = hr00;
})
);
}
);
};
layerId = master01;
shapes = (
{
closed = 1;
nodes = (
(394,320,l,{
name = hr00;
}),
(438,320,o),
(448,345,o),
(448,390,c),
(134,390,ls),
(89,390,o),
(80,365,o),
(80,320,c)
);
},
{
alignment = -1;
ref = T;
}
);
width = 770;
}
);
unicode = 358;
},
{
glyphname = Tcaron;
lastChange = "2023-02-03 14:58:50 +0000";
layers = (
{
background = {
shapes = (
{
closed = 1;
nodes = (
(238,379,o),
(376,630,o),
(605,630,cs),
(686,630,l),
(686,704,o),
(639,726,o),
(597,726,cs,{
name = hr01;
}),
(563,726,o),
(531,720,o),
(502,710,c,{
name = hr02;
}),
(111,710,l),
(111,684,ls),
(111,657,o),
(120,630,o),
(165,630,cs),
(383,630,l),
(249,525,o),
(148,327,o),
(148,84,cs),
(148,38,o),
(161,0,o),
(227,0,cs),
(890,0,ls),
(925,0,o),
(960,12,o),
(960,70,c),
(532,70,l),
(626,126,o),
(663,215,o),
(663,358,cs),
(663,418,l),
(634,418,ls),
(604,418,o),
(573,408,o),
(573,358,cs),
(573,162,o),
(505,70,o),
(238,70,c)
);
},
{
closed = 1;
nodes = (
(365,791,l),
(405,791,l),
(550,922,l),
(526,962,l),
(465,949,o),
(409,916,o),
(385,888,c),
(364,913,o),
(302,950,o),
(244,962,c),
(220,922,l,{
name = hr00;
})
);
}
);
};
layerId = master01;
shapes = (
{
ref = T;
},
{
pos = (4,0);
ref = caroncomb.case;
}
);
width = 770;
}
);
unicode = 356;
},
{
glyphname = Tcedilla;
lastChange = "2023-02-03 15:51:02 +0000";
layers = (
{
background = {
shapes = (
{
closed = 1;
nodes = (
(238,379,o),
(376,630,o),
(605,630,cs),
(686,630,l),
(686,704,o),
(639,726,o),
(597,726,cs,{
name = hr01;
}),
(563,726,o),
(531,720,o),
(502,710,c,{
name = hr02;
}),
(111,710,l),
(111,684,ls),
(111,657,o),
(120,630,o),
(165,630,cs),
(383,630,l),
(249,525,o),
(148,327,o),
(148,84,cs),
(148,38,o),
(161,0,o),
(227,0,cs),
(890,0,ls),
(925,0,o),
(960,12,o),
(960,70,c),
(532,70,l),
(626,126,o),
(663,215,o),
(663,358,cs),
(663,418,l),
(634,418,ls),
(604,418,o),
(573,408,o),
(573,358,cs),
(573,162,o),
(505,70,o),
(238,70,c)
);
},
{
closed = 1;
nodes = (
(322,-123,o),
(321,-129,o),
(321,-134,cs),
(321,-151,o),
(329,-160,o),
(351,-160,cs),
(446,-160,l),
(446,-224,o),
(415,-243,o),
(324,-243,cs),
(303,-243,l),
(303,-300,o),
(310,-310,o),
(344,-310,cs),
(461,-310,o),
(527,-250,o),
(527,-149,cs),
(527,-122,o),
(510,-93,o),
(476,-93,cs),
(387,-93,l),
(412,37,l),
(353,37,l,{
name = hr00;
})
);
}
);
};
layerId = master01;
shapes = (
{
ref = T;
},
{
pos = (163,0);
ref = cedillacomb;
}
);
width = 770;
}
);
unicode = 354;
},
{
glyphname = Tcommaaccent;
lastChange = "2023-02-03 15:51:05 +0000";
layers = (
{
background = {
shapes = (
{
closed = 1;
nodes = (
(238,379,o),
(376,630,o),
(605,630,cs),
(686,630,l),
(686,704,o),
(639,726,o),
(597,726,cs,{
name = hr01;
}),
(563,726,o),
(531,720,o),
(502,710,c,{
name = hr02;
}),
(111,710,l),
(111,684,ls),
(111,657,o),
(120,630,o),
(165,630,cs),
(383,630,l),
(249,525,o),
(148,327,o),
(148,84,cs),
(148,38,o),
(161,0,o),
(227,0,cs),
(890,0,ls),
(925,0,o),
(960,12,o),
(960,70,c),
(532,70,l),
(626,126,o),
(663,215,o),
(663,358,cs),
(663,418,l),
(634,418,ls),
(604,418,o),
(573,408,o),
(573,358,cs),
(573,162,o),
(505,70,o),
(238,70,c)
);
},
{
closed = 1;
nodes = (
(399,-314,o),
(454,-230,o),
(454,-159,cs),
(454,-102,o),
(431,-77,o),
(381,-77,cs),
(350,-77,l),
(350,-132,ls),
(350,-245,o),
(332,-286,o),
(315,-328,c),
(352,-359,l,{
name = hr00;
})
);
}
);
};
layerId = master01;
shapes = (
{
ref = T;
},
{
pos = (136,0);
ref = commaaccentcomb;
}
);
width = 770;
}
);
unicode = 538;
},
{
glyphname = U;
lastChange = "2023-02-03 15:51:32 +0000";
layers = (
{
anchors = (
{
name = bottom;
pos = (409,0);
},
{
name = ogonek;
pos = (834,37);
},
{
name = top;
pos = (409,710);
},
{
name = topright;
pos = (797,710);
}
);
background = {
shapes = (
{
closed = 1;
nodes = (
(587,60,ls),
(587,10,o),
(618,0,o),
(648,0,cs),
(937,0,ls),
(972,0,o),
(1007,12,o),
(1007,70,c),
(677,70,l),
(677,519,l),
(689,549,o),
(698,583,o),
(698,619,cs),
(698,679,o),
(674,710,o),
(623,710,cs),
(587,710,l),
(587,647,ls),
(587,368,o),
(335,70,o),
(250,70,c),
(250,690,ls),
(250,701,o),
(241,710,o),
(230,710,cs),
(180,710,ls),
(169,710,o),
(160,701,o),
(160,690,cs),
(160,80,ls),
(160,30,o),
(180,-10,o),
(250,-10,cs,{
name = hr01;
}),
(358,-10,o),
(501,156,o),
(587,347,c)
);
}
);
};
layerId = master01;
shapes = (
{
closed = 1;
nodes = (
(587,60,ls),
(587,10,o),
(618,0,o),
(648,0,cs),
(937,0,ls),
(972,0,o),
(1007,12,o),
(1007,70,c),
(677,70,l),
(677,519,l),
(689,549,o),
(698,583,o),
(698,619,cs),
(698,679,o),
(674,710,o),
(623,710,cs),
(587,710,l),
(587,647,ls),
(587,368,o),
(335,70,o),
(250,70,c),
(250,690,ls),
(250,701,o),
(241,710,o),
(230,710,cs),
(180,710,ls),
(169,710,o),
(160,701,o),
(160,690,cs),
(160,80,ls),
(160,30,o),
(180,-10,o),
(250,-10,cs,{
name = hr01;
}),
(358,-10,o),
(501,156,o),
(587,347,c)
);
}
);
width = 817;
}
);
unicode = 85;
},
{
glyphname = Uacute;
lastChange = "2023-02-03 14:59:44 +0000";
layers = (
{
background = {
shapes = (
{
closed = 1;
nodes = (
(587,60,ls),
(587,10,o),
(618,0,o),
(648,0,cs),
(937,0,ls),
(972,0,o),
(1007,12,o),
(1007,70,c),
(677,70,l),
(677,519,l),
(689,549,o),
(698,583,o),
(698,619,cs),
(698,679,o),
(674,710,o),
(623,710,cs),
(587,710,l),
(587,647,ls),
(587,368,o),
(335,70,o),
(250,70,c),
(250,690,ls),
(250,701,o),
(241,710,o),
(230,710,cs),
(180,710,ls),
(169,710,o),
(160,701,o),
(160,690,cs),
(160,80,ls),
(160,30,o),
(180,-10,o),
(250,-10,cs,{
name = hr01;
}),
(358,-10,o),
(501,156,o),
(587,347,c)
);
},
{
closed = 1;
nodes = (
(430,787,o),
(563,819,o),
(563,865,cs),
(563,878,o),
(556,896,o),
(539,922,cs),
(526,942,l),
(316,811,l),
(339,770,l)
);
}
);
};
layerId = master01;
shapes = (
{
ref = U;
},
{
pos = (172,0);
ref = acutecomb.case;
}
);
width = 817;
}
);
unicode = 218;
},
{
glyphname = Ubreve;
lastChange = "2023-02-03 14:58:50 +0000";
layers = (
{
background = {
shapes = (
{
closed = 1;
nodes = (
(587,60,ls),
(587,10,o),
(618,0,o),
(648,0,cs),
(937,0,ls),
(972,0,o),
(1007,12,o),
(1007,70,c),
(677,70,l),
(677,519,l),
(689,549,o),
(698,583,o),
(698,619,cs),
(698,679,o),
(674,710,o),
(623,710,cs),
(587,710,l),
(587,647,ls),
(587,368,o),
(335,70,o),
(250,70,c),
(250,690,ls),
(250,701,o),
(241,710,o),
(230,710,cs),
(180,710,ls),
(169,710,o),
(160,701,o),
(160,690,cs),
(160,80,ls),
(160,30,o),
(180,-10,o),
(250,-10,cs,{
name = hr01;
}),
(358,-10,o),
(501,156,o),
(587,347,c)
);
},
{
closed = 1;
nodes = (
(266,909,l),
(326,809,o),
(367,771,o),
(418,771,cs),
(469,771,o),
(510,809,o),
(570,909,c),
(530,942,l),
(418,849,l),
(306,942,l,{
name = hr00;
})
);
}
);
};
layerId = master01;
shapes = (
{
ref = U;
},
{
pos = (28,0);
ref = brevecomb.case;
}
);
width = 817;
}
);
unicode = 364;
},
{
glyphname = Ucircumflex;
lastChange = "2023-02-03 15:46:51 +0000";
layers = (
{
background = {
shapes = (
{
closed = 1;
nodes = (
(587,60,ls),
(587,10,o),
(618,0,o),
(648,0,cs),
(937,0,ls),
(972,0,o),
(1007,12,o),
(1007,70,c),
(677,70,l),
(677,519,l),
(689,549,o),
(698,583,o),
(698,619,cs),
(698,679,o),
(674,710,o),
(623,710,cs),
(587,710,l),
(587,647,ls),
(587,368,o),
(335,70,o),
(250,70,c),
(250,690,ls),
(250,701,o),
(241,710,o),
(230,710,cs),
(180,710,ls),
(169,710,o),
(160,701,o),
(160,690,cs),
(160,80,ls),
(160,30,o),
(180,-10,o),
(250,-10,cs,{
name = hr01;
}),
(358,-10,o),
(501,156,o),
(587,347,c)
);
},
{
closed = 1;
nodes = (
(437,942,l),
(397,942,l),
(252,811,l),
(276,771,l),
(337,784,o),
(393,817,o),
(417,845,c),
(438,820,o),
(500,783,o),
(558,771,c),
(582,811,l)
);
}
);
};
layerId = master01;
shapes = (
{
ref = U;
},
{
pos = (224,0);
ref = circumflexcomb.case;
}
);
width = 817;
}
);
unicode = 219;
},
{
glyphname = Udieresis;
lastChange = "2023-02-03 14:58:50 +0000";
layers = (
{
background = {
shapes = (
{
closed = 1;
nodes = (
(587,60,ls),
(587,10,o),
(618,0,o),
(648,0,cs),
(937,0,ls),
(972,0,o),
(1007,12,o),
(1007,70,c),
(677,70,l),
(677,519,l),
(689,549,o),
(698,583,o),
(698,619,cs),
(698,679,o),
(674,710,o),
(623,710,cs),
(587,710,l),
(587,647,ls),
(587,368,o),
(335,70,o),
(250,70,c),
(250,690,ls),
(250,701,o),
(241,710,o),
(230,710,cs),
(180,710,ls),
(169,710,o),
(160,701,o),
(160,690,cs),
(160,80,ls),
(160,30,o),
(180,-10,o),
(250,-10,cs,{
name = hr01;
}),
(358,-10,o),
(501,156,o),
(587,347,c)
);
},
{
closed = 1;
nodes = (
(256,820,o),
(276,793,o),
(317,793,cs),
(357,793,o),
(379,820,o),
(379,854,cs),
(379,887,o),
(357,916,o),
(317,916,cs),
(276,916,o),
(256,887,o),
(256,854,cs)
);
},
{
closed = 1;
nodes = (
(478,820,o),
(498,793,o),
(539,793,cs),
(579,793,o),
(601,820,o),
(601,854,cs),
(601,887,o),
(579,916,o),
(539,916,cs),
(498,916,o),
(478,887,o),
(478,854,cs)
);
}
);
};
layerId = master01;
shapes = (
{
ref = U;
},
{
pos = (173,0);
ref = dieresiscomb.case;
}
);
width = 817;
}
);
unicode = 220;
},
{
glyphname = Ugrave;
lastChange = "2023-02-03 14:58:50 +0000";
layers = (
{
background = {
shapes = (
{
closed = 1;
nodes = (
(587,60,ls),
(587,10,o),
(618,0,o),
(648,0,cs),
(937,0,ls),
(972,0,o),
(1007,12,o),
(1007,70,c),
(677,70,l),
(677,519,l),
(689,549,o),
(698,583,o),
(698,619,cs),
(698,679,o),
(674,710,o),
(623,710,cs),
(587,710,l),
(587,647,ls),
(587,368,o),
(335,70,o),
(250,70,c),
(250,690,ls),
(250,701,o),
(241,710,o),
(230,710,cs),
(180,710,ls),
(169,710,o),
(160,701,o),
(160,690,cs),
(160,80,ls),
(160,30,o),
(180,-10,o),
(250,-10,cs,{
name = hr01;
}),
(358,-10,o),
(501,156,o),
(587,347,c)
);
},
{
closed = 1;
nodes = (
(336,942,l),
(323,922,ls),
(306,896,o),
(298,878,o),
(298,865,cs),
(298,819,o),
(431,787,o),
(523,770,c),
(545,811,l)
);
}
);
};
layerId = master01;
shapes = (
{
ref = U;
},
{
pos = (92,0);
ref = gravecomb.case;
}
);
width = 817;
}
);
unicode = 217;
},
{
glyphname = Uhungarumlaut;
lastChange = "2023-02-03 15:51:17 +0000";
layers = (
{
background = {
shapes = (
{
closed = 1;
nodes = (
(587,60,ls),
(587,10,o),
(618,0,o),
(648,0,cs),
(937,0,ls),
(972,0,o),
(1007,12,o),
(1007,70,c),
(677,70,l),
(677,519,l),
(689,549,o),
(698,583,o),
(698,619,cs),
(698,679,o),
(674,710,o),
(623,710,cs),
(587,710,l),
(587,647,ls),
(587,368,o),
(335,70,o),
(250,70,c),
(250,690,ls),
(250,701,o),
(241,710,o),
(230,710,cs),
(180,710,ls),
(169,710,o),
(160,701,o),
(160,690,cs),
(160,80,ls),
(160,30,o),
(180,-10,o),
(250,-10,cs,{
name = hr01;
}),
(358,-10,o),
(501,156,o),
(587,347,c)
);
},
{
closed = 1;
nodes = (
(354,807,o),
(447,839,o),
(447,885,cs),
(447,898,o),
(440,916,o),
(423,942,cs),
(410,962,l),
(240,831,l),
(263,790,l,{
name = hr00;
})
);
},
{
closed = 1;
nodes = (
(584,807,o),
(677,839,o),
(677,885,cs),
(677,898,o),
(670,916,o),
(653,942,cs),
(640,962,l),
(470,831,l),
(493,790,l)
);
}
);
};
layerId = master01;
shapes = (
{
ref = U;
},
{
pos = (67,0);
ref = hungarumlautcomb.case;
}
);
width = 817;
}
);
unicode = 368;
},
{
glyphname = Umacron;
lastChange = "2023-02-03 14:58:50 +0000";
layers = (
{
background = {
shapes = (
{
closed = 1;
nodes = (
(587,60,ls),
(587,10,o),
(618,0,o),
(648,0,cs),
(937,0,ls),
(972,0,o),
(1007,12,o),
(1007,70,c),
(677,70,l),
(677,519,l),
(689,549,o),
(698,583,o),
(698,619,cs),
(698,679,o),
(674,710,o),
(623,710,cs),
(587,710,l),
(587,647,ls),
(587,368,o),
(335,70,o),
(250,70,c),
(250,690,ls),
(250,701,o),
(241,710,o),
(230,710,cs),
(180,710,ls),
(169,710,o),
(160,701,o),
(160,690,cs),
(160,80,ls),
(160,30,o),
(180,-10,o),
(250,-10,cs,{
name = hr01;
}),
(358,-10,o),
(501,156,o),
(587,347,c)
);
},
{
closed = 1;
nodes = (
(568,819,ls),
(568,849,o),
(558,880,o),
(508,880,cs),
(248,880,l),
(248,854,ls),
(248,827,o),
(257,800,o),
(302,800,cs),
(568,800,l,{
name = hr00;
})
);
}
);
};
layerId = master01;
shapes = (
{
ref = U;
},
{
pos = (79,0);
ref = macroncomb.case;
}
);
width = 817;
}
);
unicode = 362;
},
{
glyphname = Uogonek;
lastChange = "2023-02-03 15:51:32 +0000";
layers = (
{
background = {
shapes = (
{
closed = 1;
nodes = (
(587,60,ls),
(587,10,o),
(618,0,o),
(648,0,cs),
(937,0,ls),
(972,0,o),
(1007,12,o),
(1007,70,c),
(677,70,l),
(677,519,l),
(689,549,o),
(698,583,o),
(698,619,cs),
(698,679,o),
(674,710,o),
(623,710,cs),
(587,710,l),
(587,647,ls),
(587,368,o),
(335,70,o),
(250,70,c),
(250,690,ls),
(250,701,o),
(241,710,o),
(230,710,cs),
(180,710,ls),
(169,710,o),
(160,701,o),
(160,690,cs),
(160,80,ls),
(160,30,o),
(180,-10,o),
(250,-10,cs,{
name = hr01;
}),
(358,-10,o),
(501,156,o),
(587,347,c)
);
},
{
closed = 1;
nodes = (
(596,37,o),
(560,-36,o),
(560,-98,cs),
(560,-159,o),
(597,-238,o),
(712,-238,cs),
(788,-238,o),
(834,-217,o),
(834,-162,cs),
(834,-152,o),
(833,-141,o),
(830,-129,c),
(794,-150,o),
(760,-158,o),
(732,-158,cs),
(677,-158,o),
(647,-130,o),
(647,-81,cs),
(647,-29,o),
(689,0,o),
(748,0,c),
(748,37,l,{
name = hr00;
})
);
}
);
};
layerId = master01;
shapes = (
{
ref = U;
},
{
pos = (235,0);
ref = ogonekcomb;
}
);
width = 817;
}
);
unicode = 370;
},
{
glyphname = Uring;
lastChange = "2023-02-03 14:58:50 +0000";
layers = (
{
background = {
shapes = (
{
closed = 1;
nodes = (
(587,60,ls),
(587,10,o),
(618,0,o),
(648,0,cs),
(937,0,ls),
(972,0,o),
(1007,12,o),
(1007,70,c),
(677,70,l),
(677,519,l),
(689,549,o),
(698,583,o),
(698,619,cs),
(698,679,o),
(674,710,o),
(623,710,cs),
(587,710,l),
(587,647,ls),
(587,368,o),
(335,70,o),
(250,70,c),
(250,690,ls),
(250,701,o),
(241,710,o),
(230,710,cs),
(180,710,ls),
(169,710,o),
(160,701,o),
(160,690,cs),
(160,80,ls),
(160,30,o),
(180,-10,o),
(250,-10,cs,{
name = hr01;
}),
(358,-10,o),
(501,156,o),
(587,347,c)
);
},
{
closed = 1;
nodes = (
(489,761,o),
(527,811,o),
(527,877,cs),
(527,944,o),
(489,994,o),
(408,994,cs),
(327,994,o),
(289,944,o),
(289,877,cs),
(289,811,o),
(327,761,o),
(408,761,c,{
name = hr00;
})
);
},
{
closed = 1;
nodes = (
(371,825,o),
(354,847,o),
(354,877,cs),
(354,908,o),
(371,930,o),
(408,930,cs),
(445,930,o),
(462,908,o),
(462,877,cs),
(462,847,o),
(445,825,o),
(408,825,cs)
);
}
);
};
layerId = master01;
shapes = (
{
ref = U;
},
{
pos = (261,0);
ref = ringcomb.case;
}
);
width = 817;
}
);
unicode = 366;
},
{
glyphname = Utilde;
lastChange = "2023-02-03 14:58:50 +0000";
layers = (
{
background = {
shapes = (
{
closed = 1;
nodes = (
(587,60,ls),
(587,10,o),
(618,0,o),
(648,0,cs),
(937,0,ls),
(972,0,o),
(1007,12,o),
(1007,70,c),
(677,70,l),
(677,519,l),
(689,549,o),
(698,583,o),
(698,619,cs),
(698,679,o),
(674,710,o),
(623,710,cs),
(587,710,l),
(587,647,ls),
(587,368,o),
(335,70,o),
(250,70,c),
(250,690,ls),
(250,701,o),
(241,710,o),
(230,710,cs),
(180,710,ls),
(169,710,o),
(160,701,o),
(160,690,cs),
(160,80,ls),
(160,30,o),
(180,-10,o),
(250,-10,cs,{
name = hr01;
}),
(358,-10,o),
(501,156,o),
(587,347,c)
);
},
{
closed = 1;
nodes = (
(244,889,o),
(242,872,o),
(242,859,cs),
(242,815,o),
(280,783,o),
(330,783,cs),
(349,783,o),
(370,787,o),
(392,797,cs),
(426,812,ls),
(454,824,o),
(473,830,o),
(486,830,cs,{
name = hr01;
}),
(505,830,o),
(516,822,o),
(528,811,cs),
(554,786,l),
(573,807,o),
(575,824,o),
(575,837,cs),
(575,881,o),
(537,913,o),
(487,913,cs),
(468,913,o),
(447,909,o),
(425,899,cs),
(391,884,ls),
(363,872,o),
(344,866,o),
(331,866,cs,{
name = hr02;
}),
(312,866,o),
(301,874,o),
(289,885,cs),
(263,910,l)
);
}
);
};
layerId = master01;
shapes = (
{
ref = U;
},
{
pos = (71,0);
ref = tildecomb.case;
}
);
width = 817;
}
);
unicode = 360;
},
{
glyphname = V;
lastChange = "2023-02-03 14:58:37 +0000";
layers = (
{
anchors = (
{
name = bottom;
pos = (369,0);
},
{
name = top;
pos = (369,710);
}
);
background = {
shapes = (
{
closed = 1;
nodes = (
(671,701,o),
(650,710,o),
(584,710,cs),
(557,710,l),
(557,400,l),
(503,158,o),
(380,80,o),
(250,80,c),
(250,690,ls),
(250,701,o),
(241,710,o),
(230,710,cs),
(180,710,ls),
(169,710,o),
(160,701,o),
(160,690,cs),
(160,90,ls),
(160,40,o),
(180,0,o),
(250,0,cs),
(857,0,ls),
(892,0,o),
(927,12,o),
(927,70,c),
(458,70,l),
(572,150,o),
(668,318,o),
(671,638,cs),
(671,647,ls,{
name = hr00;
})
);
}
);
};
layerId = master01;
shapes = (
{
closed = 1;
nodes = (
(671,701,o),
(650,710,o),
(584,710,cs),
(557,710,l),
(557,400,l),
(503,158,o),
(380,80,o),
(250,80,c),
(250,690,ls),
(250,701,o),
(241,710,o),
(230,710,cs),
(180,710,ls),
(169,710,o),
(160,701,o),
(160,690,cs),
(160,90,ls),
(160,40,o),
(180,0,o),
(250,0,cs),
(857,0,ls),
(892,0,o),
(927,12,o),
(927,70,c),
(458,70,l),
(572,150,o),
(668,318,o),
(671,638,cs),
(671,647,ls,{
name = hr00;
})
);
}
);
width = 737;
}
);
unicode = 86;
},
{
glyphname = W;
lastChange = "2023-02-03 15:52:24 +0000";
layers = (
{
anchors = (
{
name = bottom;
pos = (569,0);
},
{
name = top;
pos = (619,710);
}
);
background = {
shapes = (
{
closed = 1;
nodes = (
(1072,701,o),
(1051,710,o),
(985,710,cs),
(958,710,l),
(958,387,l),
(904,155,o),
(786,80,o),
(661,80,c),
(661,519,l),
(673,549,o),
(682,583,o),
(682,619,cs),
(682,682,o),
(656,710,o),
(601,710,cs),
(571,710,l),
(571,647,ls),
(571,368,o),
(335,70,o),
(250,70,c),
(250,690,ls),
(250,701,o),
(241,710,o),
(230,710,cs),
(180,710,ls),
(169,710,o),
(160,701,o),
(160,690,cs),
(160,80,ls),
(160,30,o),
(180,-10,o),
(250,-10,cs,{
name = hr01;
}),
(356,-10,o),
(489,150,o),
(571,337,c),
(571,90,ls),
(571,40,o),
(591,0,o),
(661,0,cs,{
name = hr02;
}),
(1258,0,ls),
(1293,0,o),
(1328,12,o),
(1328,70,c),
(865,70,l),
(977,150,o),
(1071,318,o),
(1072,640,cs),
(1072,647,ls)
);
}
);
};
layerId = master01;
shapes = (
{
closed = 1;
nodes = (
(1072,701,o),
(1051,710,o),
(985,710,cs),
(958,710,l),
(958,387,l),
(904,155,o),
(786,80,o),
(661,80,c),
(661,519,l),
(673,549,o),
(682,583,o),
(682,619,cs),
(682,682,o),
(656,710,o),
(601,710,cs),
(571,710,l),
(571,647,ls),
(571,368,o),
(335,70,o),
(250,70,c),
(250,690,ls),
(250,701,o),
(241,710,o),
(230,710,cs),
(180,710,ls),
(169,710,o),
(160,701,o),
(160,690,cs),
(160,80,ls),
(160,30,o),
(180,-10,o),
(250,-10,cs,{
name = hr01;
}),
(356,-10,o),
(489,150,o),
(571,337,c),
(571,90,ls),
(571,40,o),
(591,0,o),
(661,0,cs,{
name = hr02;
}),
(1258,0,ls),
(1293,0,o),
(1328,12,o),
(1328,70,c),
(865,70,l),
(977,150,o),
(1072,318,o),
(1072,640,cs),
(1072,647,ls)
);
}
);
width = 1138;
}
);
unicode = 87;
},
{
glyphname = Wacute;
lastChange = "2023-02-03 15:52:24 +0000";
layers = (
{
background = {
shapes = (
{
closed = 1;
nodes = (
(1072,701,o),
(1051,710,o),
(985,710,cs),
(958,710,l),
(958,387,l),
(904,155,o),
(786,80,o),
(661,80,c),
(661,519,l),
(673,549,o),
(682,583,o),
(682,619,cs),
(682,682,o),
(656,710,o),
(601,710,cs),
(571,710,l),
(571,647,ls),
(571,368,o),
(335,70,o),
(250,70,c),
(250,690,ls),
(250,701,o),
(241,710,o),
(230,710,cs),
(180,710,ls),
(169,710,o),
(160,701,o),
(160,690,cs),
(160,80,ls),
(160,30,o),
(180,-10,o),
(250,-10,cs,{
name = hr01;
}),
(356,-10,o),
(489,150,o),
(571,337,c),
(571,90,ls),
(571,40,o),
(591,0,o),
(661,0,cs,{
name = hr02;
}),
(1258,0,ls),
(1293,0,o),
(1328,12,o),
(1328,70,c),
(865,70,l),
(977,150,o),
(1071,318,o),
(1072,640,cs),
(1072,647,ls)
);
},
{
closed = 1;
nodes = (
(609,787,o),
(742,819,o),
(742,865,cs),
(742,878,o),
(735,896,o),
(718,922,cs),
(705,942,l),
(495,811,l),
(518,770,l,{
name = hr00;
})
);
}
);
};
layerId = master01;
shapes = (
{
ref = W;
},
{
pos = (382,0);
ref = acutecomb.case;
}
);
width = 1138;
}
);
unicode = 7810;
},
{
glyphname = Wcircumflex;
lastChange = "2023-02-03 15:52:24 +0000";
layers = (
{
background = {
shapes = (
{
closed = 1;
nodes = (
(1072,701,o),
(1051,710,o),
(985,710,cs),
(958,710,l),
(958,387,l),
(904,155,o),
(786,80,o),
(661,80,c),
(661,519,l),
(673,549,o),
(682,583,o),
(682,619,cs),
(682,682,o),
(656,710,o),
(601,710,cs),
(571,710,l),
(571,647,ls),
(571,368,o),
(335,70,o),
(250,70,c),
(250,690,ls),
(250,701,o),
(241,710,o),
(230,710,cs),
(180,710,ls),
(169,710,o),
(160,701,o),
(160,690,cs),
(160,80,ls),
(160,30,o),
(180,-10,o),
(250,-10,cs,{
name = hr01;
}),
(356,-10,o),
(489,150,o),
(571,337,c),
(571,90,ls),
(571,40,o),
(591,0,o),
(661,0,cs,{
name = hr02;
}),
(1258,0,ls),
(1293,0,o),
(1328,12,o),
(1328,70,c),
(865,70,l),
(977,150,o),
(1071,318,o),
(1072,640,cs),
(1072,647,ls)
);
},
{
closed = 1;
nodes = (
(639,942,l),
(599,942,l),
(454,811,l),
(478,771,l),
(539,784,o),
(595,817,o),
(619,845,c),
(640,820,o),
(702,783,o),
(760,771,c),
(784,811,l,{
name = hr00;
})
);
}
);
};
layerId = master01;
shapes = (
{
ref = W;
},
{
pos = (434,0);
ref = circumflexcomb.case;
}
);
width = 1138;
}
);
unicode = 372;
},
{
glyphname = Wdieresis;
lastChange = "2023-02-03 15:52:24 +0000";
layers = (
{
background = {
shapes = (
{
closed = 1;
nodes = (
(1072,701,o),
(1051,710,o),
(985,710,cs),
(958,710,l),
(958,387,l),
(904,155,o),
(786,80,o),
(661,80,c),
(661,519,l),
(673,549,o),
(682,583,o),
(682,619,cs),
(682,682,o),
(656,710,o),
(601,710,cs),
(571,710,l),
(571,647,ls),
(571,368,o),
(335,70,o),
(250,70,c),
(250,690,ls),
(250,701,o),
(241,710,o),
(230,710,cs),
(180,710,ls),
(169,710,o),
(160,701,o),
(160,690,cs),
(160,80,ls),
(160,30,o),
(180,-10,o),
(250,-10,cs,{
name = hr01;
}),
(356,-10,o),
(489,150,o),
(571,337,c),
(571,90,ls),
(571,40,o),
(591,0,o),
(661,0,cs,{
name = hr02;
}),
(1258,0,ls),
(1293,0,o),
(1328,12,o),
(1328,70,c),
(865,70,l),
(977,150,o),
(1071,318,o),
(1072,640,cs),
(1072,647,ls)
);
},
{
closed = 1;
nodes = (
(446,820,o),
(466,793,o),
(507,793,cs),
(547,793,o),
(569,820,o),
(569,854,cs),
(569,887,o),
(547,916,o),
(507,916,cs),
(466,916,o),
(446,887,o),
(446,854,cs,{
name = hr00;
})
);
},
{
closed = 1;
nodes = (
(668,820,o),
(688,793,o),
(729,793,cs),
(769,793,o),
(791,820,o),
(791,854,cs),
(791,887,o),
(769,916,o),
(729,916,cs),
(688,916,o),
(668,887,o),
(668,854,cs)
);
}
);
};
layerId = master01;
shapes = (
{
ref = W;
},
{
pos = (383,0);
ref = dieresiscomb.case;
}
);
width = 1138;
}
);
unicode = 7812;
},
{
glyphname = Wgrave;
lastChange = "2023-02-03 15:52:24 +0000";
layers = (
{
background = {
shapes = (
{
closed = 1;
nodes = (
(1072,701,o),
(1051,710,o),
(985,710,cs),
(958,710,l),
(958,387,l),
(904,155,o),
(786,80,o),
(661,80,c),
(661,519,l),
(673,549,o),
(682,583,o),
(682,619,cs),
(682,682,o),
(656,710,o),
(601,710,cs),
(571,710,l),
(571,647,ls),
(571,368,o),
(335,70,o),
(250,70,c),
(250,690,ls),
(250,701,o),
(241,710,o),
(230,710,cs),
(180,710,ls),
(169,710,o),
(160,701,o),
(160,690,cs),
(160,80,ls),
(160,30,o),
(180,-10,o),
(250,-10,cs,{
name = hr01;
}),
(356,-10,o),
(489,150,o),
(571,337,c),
(571,90,ls),
(571,40,o),
(591,0,o),
(661,0,cs,{
name = hr02;
}),
(1258,0,ls),
(1293,0,o),
(1328,12,o),
(1328,70,c),
(865,70,l),
(977,150,o),
(1071,318,o),
(1072,640,cs),
(1072,647,ls)
);
},
{
closed = 1;
nodes = (
(533,942,l),
(520,922,ls),
(503,896,o),
(495,878,o),
(495,865,cs),
(495,819,o),
(628,787,o),
(720,770,c),
(742,811,l,{
name = hr00;
})
);
}
);
};
layerId = master01;
shapes = (
{
ref = W;
},
{
pos = (302,0);
ref = gravecomb.case;
}
);
width = 1138;
}
);
unicode = 7808;
},
{
glyphname = X;
lastChange = "2023-02-03 14:58:37 +0000";
layers = (
{
anchors = (
{
name = bottom;
pos = (357,0);
},
{
name = top;
pos = (357,710);
}
);
background = {
shapes = (
{
closed = 1;
nodes = (
(54,720,o),
(45,693,o),
(45,666,cs),
(45,640,l),
(86,640,ls),
(144,640,o),
(164,627,o),
(234,506,cs),
(320,357,l),
(232,204,ls),
(162,82,o),
(136,70,o),
(88,70,cs),
(45,70,l),
(45,59,ls),
(45,10,o),
(59,0,o),
(114,0,cs),
(157,0,o),
(212,3,o),
(290,140,cs),
(367,276,l),
(446,140,ls),
(524,4,o),
(579,0,o),
(622,0,cs),
(833,0,ls),
(868,0,o),
(903,12,o),
(903,70,c),
(651,70,ls),
(603,70,o),
(580,83,o),
(510,204,cs),
(417,363,l),
(498,506,ls),
(567,628,o),
(591,640,o),
(649,640,cs),
(690,640,l),
(690,666,ls),
(690,693,o),
(681,720,o),
(636,720,cs),
(560,720,o),
(520,709,o),
(447,580,cs),
(370,444,l),
(291,580,ls),
(217,708,o),
(177,720,o),
(99,720,cs,{
name = hr00;
})
);
}
);
};
layerId = master01;
shapes = (
{
closed = 1;
nodes = (
(54,720,o),
(45,693,o),
(45,666,cs),
(45,640,l),
(86,640,ls),
(144,640,o),
(164,627,o),
(234,506,cs),
(320,357,l),
(232,204,ls),
(162,82,o),
(136,70,o),
(88,70,cs),
(45,70,l),
(45,59,ls),
(45,10,o),
(59,0,o),
(114,0,cs),
(157,0,o),
(212,3,o),
(290,140,cs),
(367,276,l),
(446,140,ls),
(524,4,o),
(579,0,o),
(622,0,cs),
(833,0,ls),
(868,0,o),
(903,12,o),
(903,70,c),
(651,70,ls),
(603,70,o),
(580,83,o),
(510,204,cs),
(417,363,l),
(498,506,ls),
(567,628,o),
(591,640,o),
(649,640,cs),
(690,640,l),
(690,666,ls),
(690,693,o),
(681,720,o),
(636,720,cs),
(560,720,o),
(520,709,o),
(447,580,cs),
(370,444,l),
(291,580,ls),
(217,708,o),
(177,720,o),
(99,720,cs,{
name = hr00;
})
);
}
);
width = 713;
}
);
unicode = 88;
},
{
glyphname = Y;
lastChange = "2023-02-03 14:58:37 +0000";
layers = (
{
anchors = (
{
name = bottom;
pos = (409,0);
},
{
name = top;
pos = (409,710);
},
{
name = topleft;
pos = (20,710);
}
);
background = {
shapes = (
{
closed = 1;
nodes = (
(587,30,ls),
(587,-206,o),
(535,-230,o),
(410,-230,cs),
(354,-230,l),
(354,-241,ls),
(354,-290,o),
(368,-310,o),
(410,-310,cs),
(592,-310,o),
(670,-246,o),
(676,0,c),
(937,0,ls),
(972,0,o),
(1007,12,o),
(1007,70,c),
(677,70,l),
(677,519,l),
(689,549,o),
(698,583,o),
(698,619,cs),
(698,679,o),
(674,710,o),
(623,710,cs),
(587,710,l),
(587,647,ls),
(587,368,o),
(335,70,o),
(250,70,c),
(250,690,ls),
(250,701,o),
(241,710,o),
(230,710,cs),
(180,710,ls),
(169,710,o),
(160,701,o),
(160,690,cs),
(160,80,ls),
(160,30,o),
(180,-10,o),
(250,-10,cs,{
name = hr01;
}),
(358,-10,o),
(501,156,o),
(587,347,c)
);
}
);
};
layerId = master01;
shapes = (
{
closed = 1;
nodes = (
(587,30,ls),
(587,-206,o),
(535,-230,o),
(410,-230,cs),
(354,-230,l),
(354,-241,ls),
(354,-290,o),
(368,-310,o),
(410,-310,cs),
(592,-310,o),
(670,-246,o),
(676,0,c),
(937,0,ls),
(972,0,o),
(1007,12,o),
(1007,70,c),
(677,70,l),
(677,519,l),
(689,549,o),
(698,583,o),
(698,619,cs),
(698,679,o),
(674,710,o),
(623,710,cs),
(587,710,l),
(587,647,ls),
(587,368,o),
(335,70,o),
(250,70,c),
(250,690,ls),
(250,701,o),
(241,710,o),
(230,710,cs),
(180,710,ls),
(169,710,o),
(160,701,o),
(160,690,cs),
(160,80,ls),
(160,30,o),
(180,-10,o),
(250,-10,cs,{
name = hr01;
}),
(358,-10,o),
(501,156,o),
(587,347,c)
);
}
);
width = 817;
}
);
unicode = 89;
},
{
glyphname = Yacute;
lastChange = "2023-02-03 14:59:44 +0000";
layers = (
{
background = {
shapes = (
{
closed = 1;
nodes = (
(587,30,ls),
(587,-206,o),
(535,-230,o),
(410,-230,cs),
(354,-230,l),
(354,-241,ls),
(354,-290,o),
(368,-310,o),
(410,-310,cs),
(592,-310,o),
(670,-246,o),
(676,0,c),
(937,0,ls),
(972,0,o),
(1007,12,o),
(1007,70,c),
(677,70,l),
(677,519,l),
(689,549,o),
(698,583,o),
(698,619,cs),
(698,679,o),
(674,710,o),
(623,710,cs),
(587,710,l),
(587,647,ls),
(587,368,o),
(335,70,o),
(250,70,c),
(250,690,ls),
(250,701,o),
(241,710,o),
(230,710,cs),
(180,710,ls),
(169,710,o),
(160,701,o),
(160,690,cs),
(160,80,ls),
(160,30,o),
(180,-10,o),
(250,-10,cs,{
name = hr01;
}),
(358,-10,o),
(501,156,o),
(587,347,c)
);
},
{
closed = 1;
nodes = (
(435,787,o),
(568,819,o),
(568,865,cs),
(568,878,o),
(561,896,o),
(544,922,cs),
(531,942,l),
(321,811,l),
(344,770,l)
);
}
);
};
layerId = master01;
shapes = (
{
ref = Y;
},
{
pos = (172,0);
ref = acutecomb.case;
}
);
width = 817;
}
);
unicode = 221;
},
{
glyphname = Ycircumflex;
lastChange = "2023-02-03 15:46:51 +0000";
layers = (
{
background = {
shapes = (
{
closed = 1;
nodes = (
(587,30,ls),
(587,-206,o),
(535,-230,o),
(410,-230,cs),
(354,-230,l),
(354,-241,ls),
(354,-290,o),
(368,-310,o),
(410,-310,cs),
(592,-310,o),
(670,-246,o),
(676,0,c),
(937,0,ls),
(972,0,o),
(1007,12,o),
(1007,70,c),
(677,70,l),
(677,519,l),
(689,549,o),
(698,583,o),
(698,619,cs),
(698,679,o),
(674,710,o),
(623,710,cs),
(587,710,l),
(587,647,ls),
(587,368,o),
(335,70,o),
(250,70,c),
(250,690,ls),
(250,701,o),
(241,710,o),
(230,710,cs),
(180,710,ls),
(169,710,o),
(160,701,o),
(160,690,cs),
(160,80,ls),
(160,30,o),
(180,-10,o),
(250,-10,cs,{
name = hr01;
}),
(358,-10,o),
(501,156,o),
(587,347,c)
);
},
{
closed = 1;
nodes = (
(443,942,l),
(403,942,l),
(258,811,l),
(282,771,l),
(343,784,o),
(399,817,o),
(423,845,c),
(444,820,o),
(506,783,o),
(564,771,c),
(588,811,l,{
name = hr00;
})
);
}
);
};
layerId = master01;
shapes = (
{
ref = Y;
},
{
pos = (224,0);
ref = circumflexcomb.case;
}
);
width = 817;
}
);
unicode = 374;
},
{
glyphname = Ydieresis;
lastChange = "2023-02-03 14:58:50 +0000";
layers = (
{
background = {
shapes = (
{
closed = 1;
nodes = (
(587,30,ls),
(587,-206,o),
(535,-230,o),
(410,-230,cs),
(354,-230,l),
(354,-241,ls),
(354,-290,o),
(368,-310,o),
(410,-310,cs),
(592,-310,o),
(670,-246,o),
(676,0,c),
(937,0,ls),
(972,0,o),
(1007,12,o),
(1007,70,c),
(677,70,l),
(677,519,l),
(689,549,o),
(698,583,o),
(698,619,cs),
(698,679,o),
(674,710,o),
(623,710,cs),
(587,710,l),
(587,647,ls),
(587,368,o),
(335,70,o),
(250,70,c),
(250,690,ls),
(250,701,o),
(241,710,o),
(230,710,cs),
(180,710,ls),
(169,710,o),
(160,701,o),
(160,690,cs),
(160,80,ls),
(160,30,o),
(180,-10,o),
(250,-10,cs,{
name = hr01;
}),
(358,-10,o),
(501,156,o),
(587,347,c)
);
},
{
closed = 1;
nodes = (
(245,820,o),
(265,793,o),
(306,793,cs),
(346,793,o),
(368,820,o),
(368,854,cs),
(368,887,o),
(346,916,o),
(306,916,cs),
(265,916,o),
(245,887,o),
(245,854,cs)
);
},
{
closed = 1;
nodes = (
(467,820,o),
(487,793,o),
(528,793,cs),
(568,793,o),
(590,820,o),
(590,854,cs),
(590,887,o),
(568,916,o),
(528,916,cs),
(487,916,o),
(467,887,o),
(467,854,cs)
);
}
);
};
layerId = master01;
shapes = (
{
ref = Y;
},
{
pos = (173,0);
ref = dieresiscomb.case;
}
);
width = 817;
}
);
unicode = 376;
},
{
glyphname = Ygrave;
lastChange = "2023-02-03 14:58:50 +0000";
layers = (
{
background = {
shapes = (
{
closed = 1;
nodes = (
(587,30,ls),
(587,-206,o),
(535,-230,o),
(410,-230,cs),
(354,-230,l),
(354,-241,ls),
(354,-290,o),
(368,-310,o),
(410,-310,cs),
(592,-310,o),
(670,-246,o),
(676,0,c),
(937,0,ls),
(972,0,o),
(1007,12,o),
(1007,70,c),
(677,70,l),
(677,519,l),
(689,549,o),
(698,583,o),
(698,619,cs),
(698,679,o),
(674,710,o),
(623,710,cs),
(587,710,l),
(587,647,ls),
(587,368,o),
(335,70,o),
(250,70,c),
(250,690,ls),
(250,701,o),
(241,710,o),
(230,710,cs),
(180,710,ls),
(169,710,o),
(160,701,o),
(160,690,cs),
(160,80,ls),
(160,30,o),
(180,-10,o),
(250,-10,cs,{
name = hr01;
}),
(358,-10,o),
(501,156,o),
(587,347,c)
);
},
{
closed = 1;
nodes = (
(355,942,l),
(342,922,ls),
(325,896,o),
(317,878,o),
(317,865,cs),
(317,819,o),
(450,787,o),
(542,770,c),
(564,811,l,{
name = hr00;
})
);
}
);
};
layerId = master01;
shapes = (
{
ref = Y;
},
{
pos = (92,0);
ref = gravecomb.case;
}
);
width = 817;
}
);
unicode = 7922;
},
{
glyphname = Z;
lastChange = "2023-02-03 14:58:37 +0000";
layers = (
{
anchors = (
{
name = bottom;
pos = (305,0);
},
{
name = center;
pos = (305,355);
},
{
name = top;
pos = (305,710);
}
);
background = {
shapes = (
{
closed = 1;
nodes = (
(575,299,o),
(610,316,o),
(610,374,c),
(467,374,l),
(496,451,o),
(513,537,o),
(513,630,cs),
(513,700,o),
(473,710,o),
(423,710,cs),
(79,710,l),
(79,684,ls),
(79,657,o),
(88,630,o),
(133,630,cs),
(423,630,l),
(423,546,o),
(403,457,o),
(369,374,c),
(239,374,ls),
(204,374,o),
(169,357,o),
(169,299,c),
(333,299,l),
(260,168,o),
(149,70,o),
(20,70,cs),
(-40,70,l),
(-40,-4,o),
(7,-20,o),
(49,-20,cs),
(83,-20,o),
(116,-11,o),
(145,0,c,{
name = hr01;
}),
(730,0,ls),
(765,0,o),
(800,12,o),
(800,70,c),
(235,70,l),
(312,122,o),
(383,201,o),
(433,299,c),
(540,299,ls)
);
}
);
};
layerId = master01;
shapes = (
{
closed = 1;
nodes = (
(575,299,o),
(610,316,o),
(610,374,c),
(467,374,l),
(496,451,o),
(513,537,o),
(513,630,cs),
(513,700,o),
(473,710,o),
(423,710,cs),
(79,710,l),
(79,684,ls),
(79,657,o),
(88,630,o),
(133,630,cs),
(423,630,l),
(423,546,o),
(403,457,o),
(369,374,c),
(239,374,ls),
(204,374,o),
(169,357,o),
(169,299,c),
(333,299,l),
(260,168,o),
(149,70,o),
(20,70,cs),
(-40,70,l),
(-40,-4,o),
(7,-20,o),
(49,-20,cs),
(83,-20,o),
(116,-11,o),
(145,0,c,{
name = hr01;
}),
(730,0,ls),
(765,0,o),
(800,12,o),
(800,70,c),
(235,70,l),
(312,122,o),
(383,201,o),
(433,299,c),
(540,299,ls)
);
}
);
width = 610;
}
);
unicode = 90;
},
{
glyphname = Zacute;
lastChange = "2023-02-03 14:59:44 +0000";
layers = (
{
background = {
shapes = (
{
closed = 1;
nodes = (
(575,299,o),
(610,316,o),
(610,374,c),
(467,374,l),
(496,451,o),
(513,537,o),
(513,630,cs),
(513,700,o),
(473,710,o),
(423,710,cs),
(79,710,l),
(79,684,ls),
(79,657,o),
(88,630,o),
(133,630,cs),
(423,630,l),
(423,546,o),
(403,457,o),
(369,374,c),
(239,374,ls),
(204,374,o),
(169,357,o),
(169,299,c),
(333,299,l),
(260,168,o),
(149,70,o),
(20,70,cs),
(-40,70,l),
(-40,-4,o),
(7,-20,o),
(49,-20,cs),
(83,-20,o),
(116,-11,o),
(145,0,c,{
name = hr01;
}),
(730,0,ls),
(765,0,o),
(800,12,o),
(800,70,c),
(235,70,l),
(312,122,o),
(383,201,o),
(433,299,c),
(540,299,ls)
);
},
{
closed = 1;
nodes = (
(315,787,o),
(448,819,o),
(448,865,cs),
(448,878,o),
(441,896,o),
(424,922,cs),
(411,942,l),
(201,811,l),
(224,770,l,{
name = hr00;
})
);
}
);
};
layerId = master01;
shapes = (
{
ref = Z;
},
{
pos = (68,0);
ref = acutecomb.case;
}
);
width = 610;
}
);
unicode = 377;
},
{
glyphname = Zcaron;
lastChange = "2023-02-03 14:58:50 +0000";
layers = (
{
background = {
shapes = (
{
closed = 1;
nodes = (
(575,299,o),
(610,316,o),
(610,374,c),
(467,374,l),
(496,451,o),
(513,537,o),
(513,630,cs),
(513,700,o),
(473,710,o),
(423,710,cs),
(79,710,l),
(79,684,ls),
(79,657,o),
(88,630,o),
(133,630,cs),
(423,630,l),
(423,546,o),
(403,457,o),
(369,374,c),
(239,374,ls),
(204,374,o),
(169,357,o),
(169,299,c),
(333,299,l),
(260,168,o),
(149,70,o),
(20,70,cs),
(-40,70,l),
(-40,-4,o),
(7,-20,o),
(49,-20,cs),
(83,-20,o),
(116,-11,o),
(145,0,c,{
name = hr01;
}),
(730,0,ls),
(765,0,o),
(800,12,o),
(800,70,c),
(235,70,l),
(312,122,o),
(383,201,o),
(433,299,c),
(540,299,ls)
);
},
{
closed = 1;
nodes = (
(285,791,l),
(325,791,l),
(470,922,l),
(446,962,l),
(385,949,o),
(329,916,o),
(305,888,c),
(284,913,o),
(222,950,o),
(164,962,c),
(140,922,l)
);
}
);
};
layerId = master01;
shapes = (
{
ref = Z;
},
{
pos = (-76,0);
ref = caroncomb.case;
}
);
width = 610;
}
);
unicode = 381;
},
{
glyphname = Zdotaccent;
lastChange = "2023-02-03 14:58:50 +0000";
layers = (
{
background = {
shapes = (
{
closed = 1;
nodes = (
(575,299,o),
(610,316,o),
(610,374,c),
(467,374,l),
(496,451,o),
(513,537,o),
(513,630,cs),
(513,700,o),
(473,710,o),
(423,710,cs),
(79,710,l),
(79,684,ls),
(79,657,o),
(88,630,o),
(133,630,cs),
(423,630,l),
(423,546,o),
(403,457,o),
(369,374,c),
(239,374,ls),
(204,374,o),
(169,357,o),
(169,299,c),
(333,299,l),
(260,168,o),
(149,70,o),
(20,70,cs),
(-40,70,l),
(-40,-4,o),
(7,-20,o),
(49,-20,cs),
(83,-20,o),
(116,-11,o),
(145,0,c,{
name = hr01;
}),
(730,0,ls),
(765,0,o),
(800,12,o),
(800,70,c),
(235,70,l),
(312,122,o),
(383,201,o),
(433,299,c),
(540,299,ls)
);
},
{
closed = 1;
nodes = (
(243,820,o),
(255,793,o),
(304,793,cs),
(352,793,o),
(366,820,o),
(366,854,cs),
(366,887,o),
(352,916,o),
(304,916,cs),
(255,916,o),
(243,887,o),
(243,854,cs,{
name = hr00;
})
);
}
);
};
layerId = master01;
shapes = (
{
ref = Z;
},
{
pos = (69,0);
ref = dotaccentcomb.case;
}
);
width = 610;
}
);
unicode = 379;
},
{
glyphname = G.alt;
lastChange = "2023-02-03 14:58:37 +0000";
layers = (
{
anchors = (
{
name = bottom;
pos = (358,0);
},
{
name = top;
pos = (358,710);
}
);
background = {
shapes = (
{
closed = 1;
nodes = (
(860,0,o),
(895,12,o),
(895,70,c),
(585,70,l),
(585,253,l),
(617,262,o),
(634,289,o),
(634,322,cs),
(634,362,o),
(609,395,o),
(561,395,cs),
(516,395,o),
(492,366,o),
(489,330,c),
(321,330,l),
(321,304,ls),
(321,277,o),
(330,250,o),
(375,250,cs),
(495,250,l),
(495,70,l),
(175,70,l),
(175,430,o),
(303,640,o),
(532,640,cs),
(586,640,l),
(586,666,ls),
(586,693,o),
(577,720,o),
(532,720,cs),
(311,720,o),
(85,553,o),
(85,80,cs),
(85,10,o),
(125,0,o),
(175,0,cs),
(825,0,l)
);
}
);
};
layerId = master01;
shapes = (
{
closed = 1;
nodes = (
(860,0,o),
(895,12,o),
(895,70,c),
(585,70,l),
(585,253,l),
(617,262,o),
(634,289,o),
(634,322,cs),
(634,362,o),
(609,395,o),
(561,395,cs),
(516,395,o),
(492,366,o),
(489,330,c),
(321,330,l),
(321,304,ls),
(321,277,o),
(330,250,o),
(375,250,cs),
(495,250,l),
(495,70,l),
(175,70,l),
(175,430,o),
(303,640,o),
(532,640,cs),
(586,640,l),
(586,666,ls),
(586,693,o),
(577,720,o),
(532,720,cs),
(311,720,o),
(85,553,o),
(85,80,cs),
(85,10,o),
(125,0,o),
(175,0,cs),
(825,0,l)
);
}
);
width = 715;
}
);
},
{
glyphname = a;
lastChange = "2023-02-03 15:53:04 +0000";
layers = (
{
anchors = (
{
name = bottom;
pos = (389,0);
},
{
name = ogonek;
pos = (803,37);
},
{
name = top;
pos = (449,540);
}
);
background = {
shapes = (
{
closed = 1;
nodes = (
(280,446,o),
(322,470,o),
(417,470,cs),
(506,470,l),
(506,480,ls),
(506,530,o),
(474,550,o),
(417,550,cs),
(251,550,o),
(190,481,o),
(190,331,cs),
(190,85,ls),
(190,35,o),
(210,-5,o),
(280,-5,cs),
(375,-5,o),
(485,74,o),
(556,198,c),
(556,60,ls),
(556,10,o),
(587,0,o),
(617,0,cs,{
name = hr01;
}),
(897,0,ls),
(932,0,o),
(967,12,o),
(967,70,c,{
name = hr02;
}),
(646,70,l),
(646,349,l),
(658,379,o),
(667,413,o),
(667,449,cs),
(667,509,o),
(643,540,o),
(592,540,cs),
(556,540,l),
(556,477,ls),
(556,198,o),
(375,75,o),
(280,75,c),
(280,331,ls)
);
}
);
};
layerId = master01;
shapes = (
{
closed = 1;
nodes = (
(280,446,o),
(322,470,o),
(417,470,cs),
(506,470,l),
(506,480,ls),
(506,530,o),
(474,550,o),
(417,550,cs),
(251,550,o),
(190,481,o),
(190,331,cs),
(190,85,ls),
(190,35,o),
(210,-5,o),
(280,-5,cs),
(375,-5,o),
(485,74,o),
(556,198,c),
(556,60,ls),
(556,10,o),
(587,0,o),
(617,0,cs,{
name = hr01;
}),
(897,0,ls),
(932,0,o),
(967,12,o),
(967,70,c,{
name = hr02;
}),
(646,70,l),
(646,349,l),
(658,379,o),
(667,413,o),
(667,449,cs),
(667,509,o),
(643,540,o),
(592,540,cs),
(556,540,l),
(556,477,ls),
(556,198,o),
(375,75,o),
(280,75,c),
(280,331,ls)
);
}
);
width = 777;
}
);
unicode = 97;
},
{
glyphname = aacute;
lastChange = "2023-02-03 15:52:51 +0000";
layers = (
{
background = {
shapes = (
{
closed = 1;
nodes = (
(280,446,o),
(322,470,o),
(417,470,cs),
(506,470,l),
(506,480,ls),
(506,530,o),
(474,550,o),
(417,550,cs),
(251,550,o),
(190,481,o),
(190,331,cs),
(190,85,ls),
(190,35,o),
(210,-5,o),
(280,-5,cs),
(375,-5,o),
(485,74,o),
(556,198,c),
(556,60,ls),
(556,10,o),
(587,0,o),
(617,0,cs,{
name = hr01;
}),
(897,0,ls),
(932,0,o),
(967,12,o),
(967,70,c,{
name = hr02;
}),
(646,70,l),
(646,349,l),
(658,379,o),
(667,413,o),
(667,449,cs),
(667,509,o),
(643,540,o),
(592,540,cs),
(556,540,l),
(556,477,ls),
(556,198,o),
(375,75,o),
(280,75,c),
(280,331,ls)
);
},
{
closed = 1;
nodes = (
(443,637,o),
(576,669,o),
(576,715,cs),
(576,728,o),
(569,746,o),
(552,772,cs),
(539,792,l),
(329,661,l),
(352,620,l)
);
}
);
};
layerId = master01;
shapes = (
{
ref = a;
},
{
pos = (162,0);
ref = acutecomb;
}
);
width = 777;
}
);
unicode = 225;
},
{
glyphname = abreve;
lastChange = "2023-02-03 15:52:51 +0000";
layers = (
{
background = {
shapes = (
{
closed = 1;
nodes = (
(280,446,o),
(322,470,o),
(417,470,cs),
(506,470,l),
(506,480,ls),
(506,530,o),
(474,550,o),
(417,550,cs),
(251,550,o),
(190,481,o),
(190,331,cs),
(190,85,ls),
(190,35,o),
(210,-5,o),
(280,-5,cs),
(375,-5,o),
(485,74,o),
(556,198,c),
(556,60,ls),
(556,10,o),
(587,0,o),
(617,0,cs,{
name = hr01;
}),
(897,0,ls),
(932,0,o),
(967,12,o),
(967,70,c,{
name = hr02;
}),
(646,70,l),
(646,349,l),
(658,379,o),
(667,413,o),
(667,449,cs),
(667,509,o),
(643,540,o),
(592,540,cs),
(556,540,l),
(556,477,ls),
(556,198,o),
(375,75,o),
(280,75,c),
(280,331,ls)
);
},
{
closed = 1;
nodes = (
(296,759,l),
(356,659,o),
(397,621,o),
(448,621,cs),
(499,621,o),
(540,659,o),
(600,759,c),
(560,792,l),
(448,699,l),
(336,792,l,{
name = hr00;
})
);
}
);
};
layerId = master01;
shapes = (
{
ref = a;
},
{
pos = (68,0);
ref = brevecomb;
}
);
width = 777;
}
);
unicode = 259;
},
{
glyphname = acircumflex;
lastChange = "2023-02-03 15:52:51 +0000";
layers = (
{
background = {
shapes = (
{
closed = 1;
nodes = (
(280,446,o),
(322,470,o),
(417,470,cs),
(506,470,l),
(506,480,ls),
(506,530,o),
(474,550,o),
(417,550,cs),
(251,550,o),
(190,481,o),
(190,331,cs),
(190,85,ls),
(190,35,o),
(210,-5,o),
(280,-5,cs),
(375,-5,o),
(485,74,o),
(556,198,c),
(556,60,ls),
(556,10,o),
(587,0,o),
(617,0,cs,{
name = hr01;
}),
(897,0,ls),
(932,0,o),
(967,12,o),
(967,70,c,{
name = hr02;
}),
(646,70,l),
(646,349,l),
(658,379,o),
(667,413,o),
(667,449,cs),
(667,509,o),
(643,540,o),
(592,540,cs),
(556,540,l),
(556,477,ls),
(556,198,o),
(375,75,o),
(280,75,c),
(280,331,ls)
);
},
{
closed = 1;
nodes = (
(458,792,l),
(418,792,l),
(273,661,l),
(297,621,l),
(358,634,o),
(414,667,o),
(438,695,c),
(459,670,o),
(521,633,o),
(579,621,c),
(603,661,l)
);
}
);
};
layerId = master01;
shapes = (
{
ref = a;
},
{
pos = (68,0);
ref = circumflexcomb;
}
);
width = 777;
}
);
unicode = 226;
},
{
glyphname = adieresis;
lastChange = "2023-02-03 15:52:51 +0000";
layers = (
{
background = {
shapes = (
{
closed = 1;
nodes = (
(280,446,o),
(322,470,o),
(417,470,cs),
(506,470,l),
(506,480,ls),
(506,530,o),
(474,550,o),
(417,550,cs),
(251,550,o),
(190,481,o),
(190,331,cs),
(190,85,ls),
(190,35,o),
(210,-5,o),
(280,-5,cs),
(375,-5,o),
(485,74,o),
(556,198,c),
(556,60,ls),
(556,10,o),
(587,0,o),
(617,0,cs,{
name = hr01;
}),
(897,0,ls),
(932,0,o),
(967,12,o),
(967,70,c,{
name = hr02;
}),
(646,70,l),
(646,349,l),
(658,379,o),
(667,413,o),
(667,449,cs),
(667,509,o),
(643,540,o),
(592,540,cs),
(556,540,l),
(556,477,ls),
(556,198,o),
(375,75,o),
(280,75,c),
(280,331,ls)
);
},
{
closed = 1;
nodes = (
(284,670,o),
(304,643,o),
(345,643,cs),
(385,643,o),
(407,670,o),
(407,704,cs),
(407,737,o),
(385,766,o),
(345,766,cs),
(304,766,o),
(284,737,o),
(284,704,cs)
);
},
{
closed = 1;
nodes = (
(506,670,o),
(526,643,o),
(567,643,cs),
(607,643,o),
(629,670,o),
(629,704,cs),
(629,737,o),
(607,766,o),
(567,766,cs),
(526,766,o),
(506,737,o),
(506,704,cs)
);
}
);
};
layerId = master01;
shapes = (
{
ref = a;
},
{
pos = (213,0);
ref = dieresiscomb;
}
);
width = 777;
}
);
unicode = 228;
},
{
glyphname = agrave;
lastChange = "2023-02-03 15:52:51 +0000";
layers = (
{
background = {
shapes = (
{
closed = 1;
nodes = (
(280,446,o),
(322,470,o),
(417,470,cs),
(506,470,l),
(506,480,ls),
(506,530,o),
(474,550,o),
(417,550,cs),
(251,550,o),
(190,481,o),
(190,331,cs),
(190,85,ls),
(190,35,o),
(210,-5,o),
(280,-5,cs),
(375,-5,o),
(485,74,o),
(556,198,c),
(556,60,ls),
(556,10,o),
(587,0,o),
(617,0,cs,{
name = hr01;
}),
(897,0,ls),
(932,0,o),
(967,12,o),
(967,70,c,{
name = hr02;
}),
(646,70,l),
(646,349,l),
(658,379,o),
(667,413,o),
(667,449,cs),
(667,509,o),
(643,540,o),
(592,540,cs),
(556,540,l),
(556,477,ls),
(556,198,o),
(375,75,o),
(280,75,c),
(280,331,ls)
);
},
{
closed = 1;
nodes = (
(332,792,l),
(319,772,ls),
(302,746,o),
(294,728,o),
(294,715,cs),
(294,669,o),
(427,637,o),
(519,620,c),
(541,661,l)
);
}
);
};
layerId = master01;
shapes = (
{
ref = a;
},
{
pos = (132,0);
ref = gravecomb;
}
);
width = 777;
}
);
unicode = 224;
},
{
glyphname = amacron;
lastChange = "2023-02-03 15:52:51 +0000";
layers = (
{
background = {
shapes = (
{
closed = 1;
nodes = (
(280,446,o),
(322,470,o),
(417,470,cs),
(506,470,l),
(506,480,ls),
(506,530,o),
(474,550,o),
(417,550,cs),
(251,550,o),
(190,481,o),
(190,331,cs),
(190,85,ls),
(190,35,o),
(210,-5,o),
(280,-5,cs),
(375,-5,o),
(485,74,o),
(556,198,c),
(556,60,ls),
(556,10,o),
(587,0,o),
(617,0,cs,{
name = hr01;
}),
(897,0,ls),
(932,0,o),
(967,12,o),
(967,70,c,{
name = hr02;
}),
(646,70,l),
(646,349,l),
(658,379,o),
(667,413,o),
(667,449,cs),
(667,509,o),
(643,540,o),
(592,540,cs),
(556,540,l),
(556,477,ls),
(556,198,o),
(375,75,o),
(280,75,c),
(280,331,ls)
);
},
{
closed = 1;
nodes = (
(608,669,ls),
(608,699,o),
(598,730,o),
(548,730,cs),
(288,730,l),
(288,704,ls),
(288,677,o),
(297,650,o),
(342,650,cs),
(608,650,l,{
name = hr00;
})
);
}
);
};
layerId = master01;
shapes = (
{
ref = a;
},
{
pos = (119,0);
ref = macroncomb;
}
);
width = 777;
}
);
unicode = 257;
},
{
glyphname = aogonek;
lastChange = "2023-02-03 15:53:04 +0000";
layers = (
{
background = {
shapes = (
{
closed = 1;
nodes = (
(280,446,o),
(322,470,o),
(417,470,cs),
(506,470,l),
(506,480,ls),
(506,530,o),
(474,550,o),
(417,550,cs),
(251,550,o),
(190,481,o),
(190,331,cs),
(190,85,ls),
(190,35,o),
(210,-5,o),
(280,-5,cs),
(375,-5,o),
(485,74,o),
(556,198,c),
(556,60,ls),
(556,10,o),
(587,0,o),
(617,0,cs,{
name = hr01;
}),
(897,0,ls),
(932,0,o),
(967,12,o),
(967,70,c,{
name = hr02;
}),
(646,70,l),
(646,349,l),
(658,379,o),
(667,413,o),
(667,449,cs),
(667,509,o),
(643,540,o),
(592,540,cs),
(556,540,l),
(556,477,ls),
(556,198,o),
(375,75,o),
(280,75,c),
(280,331,ls)
);
},
{
closed = 1;
nodes = (
(565,37,o),
(529,-36,o),
(529,-98,cs),
(529,-159,o),
(566,-238,o),
(681,-238,cs),
(757,-238,o),
(803,-217,o),
(803,-162,cs),
(803,-152,o),
(802,-141,o),
(799,-129,c),
(763,-150,o),
(729,-158,o),
(701,-158,cs),
(646,-158,o),
(616,-130,o),
(616,-81,cs),
(616,-29,o),
(658,0,o),
(717,0,c),
(717,37,l,{
name = hr00;
})
);
}
);
};
layerId = master01;
shapes = (
{
ref = a;
},
{
pos = (204,0);
ref = ogonekcomb;
}
);
width = 777;
}
);
unicode = 261;
},
{
glyphname = aring;
lastChange = "2023-02-03 15:52:51 +0000";
layers = (
{
background = {
shapes = (
{
closed = 1;
nodes = (
(280,446,o),
(322,470,o),
(417,470,cs),
(506,470,l),
(506,480,ls),
(506,530,o),
(474,550,o),
(417,550,cs),
(251,550,o),
(190,481,o),
(190,331,cs),
(190,85,ls),
(190,35,o),
(210,-5,o),
(280,-5,cs),
(375,-5,o),
(485,74,o),
(556,198,c),
(556,60,ls),
(556,10,o),
(587,0,o),
(617,0,cs,{
name = hr01;
}),
(897,0,ls),
(932,0,o),
(967,12,o),
(967,70,c,{
name = hr02;
}),
(646,70,l),
(646,349,l),
(658,379,o),
(667,413,o),
(667,449,cs),
(667,509,o),
(643,540,o),
(592,540,cs),
(556,540,l),
(556,477,ls),
(556,198,o),
(375,75,o),
(280,75,c),
(280,331,ls)
);
},
{
closed = 1;
nodes = (
(517,591,o),
(555,641,o),
(555,707,cs),
(555,774,o),
(517,824,o),
(436,824,cs),
(355,824,o),
(317,774,o),
(317,707,cs),
(317,641,o),
(355,591,o),
(436,591,c)
);
},
{
closed = 1;
nodes = (
(399,655,o),
(382,677,o),
(382,707,cs),
(382,738,o),
(399,760,o),
(436,760,cs),
(473,760,o),
(490,738,o),
(490,707,cs),
(490,677,o),
(473,655,o),
(436,655,cs)
);
}
);
};
layerId = master01;
shapes = (
{
ref = a;
},
{
pos = (301,0);
ref = ringcomb;
}
);
width = 777;
}
);
unicode = 229;
},
{
glyphname = aringacute;
lastChange = "2023-02-03 15:53:16 +0000";
layers = (
{
background = {
shapes = (
{
closed = 1;
nodes = (
(280,446,o),
(322,470,o),
(417,470,cs),
(506,470,l),
(506,480,ls),
(506,530,o),
(474,550,o),
(417,550,cs),
(251,550,o),
(190,481,o),
(190,331,cs),
(190,85,ls),
(190,35,o),
(210,-5,o),
(280,-5,cs),
(375,-5,o),
(485,74,o),
(556,198,c),
(556,60,ls),
(556,10,o),
(587,0,o),
(617,0,cs,{
name = hr01;
}),
(897,0,ls),
(932,0,o),
(967,12,o),
(967,70,c,{
name = hr02;
}),
(646,70,l),
(646,349,l),
(658,379,o),
(667,413,o),
(667,449,cs),
(667,509,o),
(643,540,o),
(592,540,cs),
(556,540,l),
(556,477,ls),
(556,198,o),
(375,75,o),
(280,75,c),
(280,331,ls)
);
},
{
closed = 1;
nodes = (
(517,591,o),
(555,641,o),
(555,707,cs),
(555,740,o),
(546,768,o),
(527,789,c),
(576,805,o),
(616,826,o),
(616,850,cs),
(616,863,o),
(610,880,o),
(594,904,cs),
(581,923,l),
(421,823,l),
(350,817,o),
(317,769,o),
(317,707,cs),
(317,641,o),
(355,591,o),
(436,591,cs)
);
},
{
closed = 1;
nodes = (
(399,655,o),
(382,677,o),
(382,707,cs),
(382,738,o),
(399,760,o),
(436,760,cs,{
name = hr01;
}),
(473,760,o),
(490,738,o),
(490,707,cs),
(490,677,o),
(473,655,o),
(436,655,cs)
);
}
);
};
layerId = master01;
shapes = (
{
closed = 1;
nodes = (
(517,591,o),
(555,641,o),
(555,707,cs),
(555,740,o),
(546,768,o),
(527,789,c),
(576,805,o),
(616,826,o),
(616,850,cs),
(616,863,o),
(610,880,o),
(594,904,cs),
(581,923,l),
(421,823,l),
(350,817,o),
(317,769,o),
(317,707,cs),
(317,641,o),
(355,591,o),
(436,591,cs)
);
},
{
ref = a;
},
{
closed = 1;
nodes = (
(399,655,o),
(382,677,o),
(382,707,cs),
(382,738,o),
(399,760,o),
(436,760,cs,{
name = hr01;
}),
(473,760,o),
(490,738,o),
(490,707,cs),
(490,677,o),
(473,655,o),
(436,655,cs)
);
}
);
width = 777;
}
);
unicode = 507;
},
{
glyphname = atilde;
lastChange = "2023-02-03 15:52:51 +0000";
layers = (
{
background = {
shapes = (
{
closed = 1;
nodes = (
(280,446,o),
(322,470,o),
(417,470,cs),
(506,470,l),
(506,480,ls),
(506,530,o),
(474,550,o),
(417,550,cs),
(251,550,o),
(190,481,o),
(190,331,cs),
(190,85,ls),
(190,35,o),
(210,-5,o),
(280,-5,cs),
(375,-5,o),
(485,74,o),
(556,198,c),
(556,60,ls),
(556,10,o),
(587,0,o),
(617,0,cs,{
name = hr01;
}),
(897,0,ls),
(932,0,o),
(967,12,o),
(967,70,c,{
name = hr02;
}),
(646,70,l),
(646,349,l),
(658,379,o),
(667,413,o),
(667,449,cs),
(667,509,o),
(643,540,o),
(592,540,cs),
(556,540,l),
(556,477,ls),
(556,198,o),
(375,75,o),
(280,75,c),
(280,331,ls)
);
},
{
closed = 1;
nodes = (
(285,739,o),
(283,722,o),
(283,709,cs),
(283,665,o),
(321,633,o),
(371,633,cs),
(390,633,o),
(411,637,o),
(433,647,cs),
(467,662,ls),
(495,674,o),
(514,680,o),
(527,680,cs,{
name = hr03;
}),
(546,680,o),
(557,672,o),
(569,661,cs),
(595,636,l),
(614,657,o),
(616,674,o),
(616,687,cs),
(616,731,o),
(578,763,o),
(528,763,cs),
(509,763,o),
(488,759,o),
(466,749,cs),
(432,734,ls),
(404,722,o),
(385,716,o),
(372,716,cs,{
name = hr04;
}),
(353,716,o),
(342,724,o),
(330,735,cs),
(304,760,l)
);
}
);
};
layerId = master01;
shapes = (
{
ref = a;
},
{
pos = (111,0);
ref = tildecomb;
}
);
width = 777;
}
);
unicode = 227;
},
{
glyphname = ae;
lastChange = "2023-02-03 14:58:37 +0000";
layers = (
{
anchors = (
{
name = bottom;
pos = (523,0);
},
{
name = top;
pos = (523,540);
}
);
background = {
shapes = (
{
closed = 1;
nodes = (
(708,251,ls),
(708,210,o),
(722,199,o),
(758,199,cs),
(939,199,o),
(1014,255,o),
(1014,461,cs),
(1014,510,o),
(994,550,o),
(924,550,cs),
(785,550,o),
(698,536,o),
(643,502,c),
(635,533,o),
(610,540,o),
(585,540,cs,{
name = hr01;
}),
(556,540,l),
(556,477,ls),
(556,198,o),
(375,75,o),
(280,75,c),
(280,331,ls),
(280,446,o),
(322,470,o),
(417,470,cs,{
name = hr02;
}),
(506,470,l),
(506,480,ls),
(506,530,o),
(474,550,o),
(417,550,cs),
(251,550,o),
(190,481,o),
(190,331,cs),
(190,85,ls),
(190,35,o),
(210,-5,o),
(280,-5,cs),
(375,-5,o),
(485,74,o),
(556,198,c),
(556,38,o),
(571,0,o),
(789,0,cs,{
name = hr03;
}),
(1165,0,ls),
(1200,0,o),
(1235,12,o),
(1235,70,c,{
name = hr04;
}),
(789,70,ls),
(655,70,o),
(647,82,o),
(647,200,cs),
(647,240,ls),
(647,445,o),
(681,470,o),
(924,470,c),
(924,295,o),
(885,279,o),
(787,275,cs),
(708,272,l)
);
}
);
};
layerId = master01;
shapes = (
{
closed = 1;
nodes = (
(708,251,ls),
(708,210,o),
(722,199,o),
(758,199,cs),
(939,199,o),
(1014,255,o),
(1014,461,cs),
(1014,510,o),
(994,550,o),
(924,550,cs),
(785,550,o),
(698,536,o),
(643,502,c),
(635,533,o),
(610,540,o),
(585,540,cs,{
name = hr01;
}),
(556,540,l),
(556,477,ls),
(556,198,o),
(375,75,o),
(280,75,c),
(280,331,ls),
(280,446,o),
(322,470,o),
(417,470,cs,{
name = hr02;
}),
(506,470,l),
(506,480,ls),
(506,530,o),
(474,550,o),
(417,550,cs),
(251,550,o),
(190,481,o),
(190,331,cs),
(190,85,ls),
(190,35,o),
(210,-5,o),
(280,-5,cs),
(375,-5,o),
(485,74,o),
(556,198,c),
(556,38,o),
(571,0,o),
(789,0,cs,{
name = hr03;
}),
(1165,0,ls),
(1200,0,o),
(1235,12,o),
(1235,70,c,{
name = hr04;
}),
(789,70,ls),
(655,70,o),
(647,82,o),
(647,200,cs),
(647,240,ls),
(647,445,o),
(681,470,o),
(924,470,c),
(924,295,o),
(885,279,o),
(787,275,cs),
(708,272,l)
);
}
);
width = 1045;
}
);
unicode = 230;
},
{
glyphname = aeacute;
lastChange = "2023-02-03 14:58:50 +0000";
layers = (
{
background = {
shapes = (
{
closed = 1;
nodes = (
(708,251,ls),
(708,210,o),
(722,199,o),
(758,199,cs),
(939,199,o),
(1014,255,o),
(1014,461,cs),
(1014,510,o),
(994,550,o),
(924,550,cs),
(785,550,o),
(698,536,o),
(643,502,c),
(635,533,o),
(610,540,o),
(585,540,cs,{
name = hr01;
}),
(556,540,l),
(556,477,ls),
(556,198,o),
(375,75,o),
(280,75,c),
(280,331,ls),
(280,446,o),
(322,470,o),
(417,470,cs,{
name = hr02;
}),
(506,470,l),
(506,480,ls),
(506,530,o),
(474,550,o),
(417,550,cs),
(251,550,o),
(190,481,o),
(190,331,cs),
(190,85,ls),
(190,35,o),
(210,-5,o),
(280,-5,cs),
(375,-5,o),
(485,74,o),
(556,198,c),
(556,38,o),
(571,0,o),
(789,0,cs,{
name = hr03;
}),
(1165,0,ls),
(1200,0,o),
(1235,12,o),
(1235,70,c,{
name = hr04;
}),
(789,70,ls),
(655,70,o),
(647,82,o),
(647,200,cs),
(647,240,ls),
(647,445,o),
(681,470,o),
(924,470,c),
(924,295,o),
(885,279,o),
(787,275,cs),
(708,272,l)
);
},
{
closed = 1;
nodes = (
(637,637,o),
(770,669,o),
(770,715,cs),
(770,728,o),
(763,746,o),
(746,772,cs),
(733,792,l),
(523,661,l),
(546,620,l,{
name = hr00;
})
);
}
);
};
layerId = master01;
shapes = (
{
ref = ae;
},
{
pos = (236,0);
ref = acutecomb;
}
);
width = 1045;
}
);
unicode = 509;
},
{
glyphname = b;
lastChange = "2023-02-03 14:58:37 +0000";
layers = (
{
anchors = (
{
name = bottom;
pos = (393,0);
},
{
name = center;
pos = (393,270);
},
{
name = top;
pos = (393,540);
}
);
background = {
shapes = (
{
closed = 1;
nodes = (
(280,63,ls),
(280,342,o),
(482,480,o),
(577,480,c),
(577,219,ls),
(577,165,o),
(539,70,o),
(440,70,cs),
(342,70,l),
(342,60,ls),
(342,10,o),
(372,0,o),
(402,0,cs),
(906,0,ls),
(941,0,o),
(976,12,o),
(976,70,c),
(590,70,l),
(650,106,o),
(667,163,o),
(667,219,cs),
(667,470,ls),
(667,520,o),
(647,560,o),
(577,560,cs),
(474,560,o),
(355,475,o),
(280,346,c),
(280,740,ls),
(280,751,o),
(271,760,o),
(260,760,cs),
(210,760,ls),
(199,760,o),
(190,751,o),
(190,740,cs),
(190,191,l),
(177,160,o),
(169,127,o),
(169,91,cs),
(169,28,o),
(195,0,o),
(250,0,cs),
(280,0,l,{
name = hr00;
})
);
}
);
};
layerId = master01;
shapes = (
{
closed = 1;
nodes = (
(280,63,ls),
(280,342,o),
(482,480,o),
(577,480,c),
(577,219,ls),
(577,165,o),
(539,70,o),
(440,70,cs),
(342,70,l),
(342,60,ls),
(342,10,o),
(372,0,o),
(402,0,cs),
(906,0,ls),
(941,0,o),
(976,12,o),
(976,70,c),
(590,70,l),
(650,106,o),
(667,163,o),
(667,219,cs),
(667,470,ls),
(667,520,o),
(647,560,o),
(577,560,cs),
(474,560,o),
(355,475,o),
(280,346,c),
(280,740,ls),
(280,751,o),
(271,760,o),
(260,760,cs),
(210,760,ls),
(199,760,o),
(190,751,o),
(190,740,cs),
(190,191,l),
(177,160,o),
(169,127,o),
(169,91,cs),
(169,28,o),
(195,0,o),
(250,0,cs),
(280,0,l,{
name = hr00;
})
);
}
);
width = 786;
}
);
unicode = 98;
},
{
glyphname = c;
lastChange = "2023-02-03 15:53:39 +0000";
layers = (
{
anchors = (
{
name = bottom;
pos = (403,0);
},
{
name = top;
pos = (390,540);
}
);
background = {
shapes = (
{
closed = 1;
nodes = (
(582,511,o),
(562,560,o),
(466,560,cs),
(254,560,o),
(140,441,o),
(140,200,cs),
(140,38,o),
(155,0,o),
(373,0,cs),
(739,0,ls),
(774,0,o),
(809,12,o),
(809,70,c),
(373,70,ls),
(239,70,o),
(231,82,o),
(231,200,cs),
(231,413,o),
(310,480,o),
(488,480,c),
(488,324,l),
(568,324,o),
(582,375,o),
(582,443,cs,{
name = hr00;
})
);
}
);
};
layerId = master01;
shapes = (
{
closed = 1;
nodes = (
(582,511,o),
(562,560,o),
(466,560,cs),
(254,560,o),
(140,441,o),
(140,200,cs),
(140,38,o),
(155,0,o),
(373,0,cs),
(739,0,ls),
(774,0,o),
(809,12,o),
(809,70,c),
(373,70,ls),
(239,70,o),
(231,82,o),
(231,200,cs),
(231,413,o),
(310,480,o),
(488,480,c),
(488,324,l),
(568,324,o),
(582,375,o),
(582,443,cs,{
name = hr00;
})
);
}
);
width = 619;
}
);
unicode = 99;
},
{
glyphname = cacute;
lastChange = "2023-02-03 15:53:33 +0000";
layers = (
{
background = {
shapes = (
{
closed = 1;
nodes = (
(582,511,o),
(562,560,o),
(466,560,cs),
(254,560,o),
(140,441,o),
(140,200,cs),
(140,38,o),
(155,0,o),
(373,0,cs),
(739,0,ls),
(774,0,o),
(809,12,o),
(809,70,c),
(373,70,ls),
(239,70,o),
(231,82,o),
(231,200,cs),
(231,413,o),
(310,480,o),
(488,480,c),
(488,324,l),
(568,324,o),
(582,375,o),
(582,443,cs,{
name = hr00;
})
);
},
{
closed = 1;
nodes = (
(380,637,o),
(513,669,o),
(513,715,cs),
(513,728,o),
(506,746,o),
(489,772,cs),
(476,792,l),
(266,661,l),
(289,620,l,{
name = hr00;
})
);
}
);
};
layerId = master01;
shapes = (
{
ref = c;
},
{
pos = (103,0);
ref = acutecomb;
}
);
width = 619;
}
);
unicode = 263;
},
{
glyphname = ccaron;
lastChange = "2023-02-03 15:53:33 +0000";
layers = (
{
background = {
shapes = (
{
closed = 1;
nodes = (
(582,511,o),
(562,560,o),
(466,560,cs),
(254,560,o),
(140,441,o),
(140,200,cs),
(140,38,o),
(155,0,o),
(373,0,cs),
(739,0,ls),
(774,0,o),
(809,12,o),
(809,70,c),
(373,70,ls),
(239,70,o),
(231,82,o),
(231,200,cs),
(231,413,o),
(310,480,o),
(488,480,c),
(488,324,l),
(568,324,o),
(582,375,o),
(582,443,cs,{
name = hr00;
})
);
},
{
closed = 1;
nodes = (
(370,621,l),
(410,621,l),
(555,752,l),
(531,792,l),
(470,779,o),
(414,746,o),
(390,718,c),
(369,743,o),
(307,780,o),
(249,792,c),
(225,752,l,{
name = hr00;
})
);
}
);
};
layerId = master01;
shapes = (
{
ref = c;
},
{
pos = (9,0);
ref = caroncomb;
}
);
width = 619;
}
);
unicode = 269;
},
{
glyphname = ccedilla;
lastChange = "2023-02-03 15:53:39 +0000";
layers = (
{
background = {
shapes = (
{
closed = 1;
nodes = (
(582,511,o),
(562,560,o),
(466,560,cs),
(254,560,o),
(140,441,o),
(140,200,cs),
(140,48,o),
(153,5,o),
(333,0,c),
(309,-123,o),
(309,-129,o),
(309,-134,cs),
(309,-151,o),
(317,-160,o),
(339,-160,cs),
(434,-160,l,{
name = hr01;
}),
(434,-224,o),
(403,-243,o),
(312,-243,cs),
(291,-243,l),
(291,-300,o),
(298,-310,o),
(332,-310,cs),
(449,-310,o),
(515,-250,o),
(515,-149,cs),
(515,-122,o),
(498,-93,o),
(464,-93,cs),
(375,-93,l),
(393,0,l),
(739,0,ls),
(774,0,o),
(809,12,o),
(809,70,c),
(373,70,ls),
(239,70,o),
(231,82,o),
(231,200,cs),
(231,413,o),
(310,480,o),
(488,480,c,{
name = hr02;
}),
(488,324,l),
(568,324,o),
(582,375,o),
(582,443,cs)
);
}
);
};
layerId = master01;
shapes = (
{
ref = c;
},
{
pos = (151,0);
ref = cedillacomb;
}
);
width = 619;
}
);
unicode = 231;
},
{
glyphname = ccircumflex;
lastChange = "2023-02-03 15:53:33 +0000";
layers = (
{
background = {
shapes = (
{
closed = 1;
nodes = (
(582,511,o),
(562,560,o),
(466,560,cs),
(254,560,o),
(140,441,o),
(140,200,cs),
(140,38,o),
(155,0,o),
(373,0,cs),
(739,0,ls),
(774,0,o),
(809,12,o),
(809,70,c),
(373,70,ls),
(239,70,o),
(231,82,o),
(231,200,cs),
(231,413,o),
(310,480,o),
(488,480,c),
(488,324,l),
(568,324,o),
(582,375,o),
(582,443,cs,{
name = hr00;
})
);
},
{
closed = 1;
nodes = (
(410,792,l),
(370,792,l),
(225,661,l),
(249,621,l),
(310,634,o),
(366,667,o),
(390,695,c),
(411,670,o),
(473,633,o),
(531,621,c),
(555,661,l,{
name = hr00;
})
);
}
);
};
layerId = master01;
shapes = (
{
ref = c;
},
{
pos = (9,0);
ref = circumflexcomb;
}
);
width = 619;
}
);
unicode = 265;
},
{
glyphname = cdotaccent;
lastChange = "2023-02-03 15:53:33 +0000";
layers = (
{
background = {
shapes = (
{
closed = 1;
nodes = (
(582,511,o),
(562,560,o),
(466,560,cs),
(254,560,o),
(140,441,o),
(140,200,cs),
(140,38,o),
(155,0,o),
(373,0,cs),
(739,0,ls),
(774,0,o),
(809,12,o),
(809,70,c),
(373,70,ls),
(239,70,o),
(231,82,o),
(231,200,cs),
(231,413,o),
(310,480,o),
(488,480,c),
(488,324,l),
(568,324,o),
(582,375,o),
(582,443,cs,{
name = hr00;
})
);
},
{
closed = 1;
nodes = (
(328,670,o),
(340,643,o),
(389,643,cs),
(437,643,o),
(451,670,o),
(451,704,cs),
(451,737,o),
(437,766,o),
(389,766,cs),
(340,766,o),
(328,737,o),
(328,704,cs,{
name = hr00;
})
);
}
);
};
layerId = master01;
shapes = (
{
ref = c;
},
{
pos = (154,0);
ref = dotaccentcomb;
}
);
width = 619;
}
);
unicode = 267;
},
{
glyphname = d;
lastChange = "2023-02-08 08:58:39 +0000";
layers = (
{
anchors = (
{
name = bottom;
pos = (389,0);
},
{
name = center;
pos = (389,270);
},
{
name = top;
pos = (389,994);
},
{
name = topright;
pos = (780,822);
}
);
background = {
shapes = (
{
closed = 1;
nodes = (
(280,446,o),
(322,470,o),
(417,470,cs),
(506,470,l),
(506,480,ls),
(506,530,o),
(474,550,o),
(417,550,cs),
(251,550,o),
(190,481,o),
(190,331,cs),
(190,85,ls),
(190,35,o),
(210,-5,o),
(280,-5,cs),
(375,-5,o),
(485,74,o),
(556,198,c),
(556,60,ls),
(556,10,o),
(587,0,o),
(617,0,cs,{
name = hr01;
}),
(897,0,ls),
(932,0,o),
(967,12,o),
(967,70,c,{
name = hr02;
}),
(646,70,l),
(646,422,l),
(664,512,o),
(678,605,o),
(678,675,cs),
(678,738,o),
(647,760,o),
(573,760,cs),
(556,760,l),
(556,477,ls),
(556,198,o),
(375,75,o),
(280,75,c),
(280,331,ls)
);
}
);
};
layerId = master01;
shapes = (
{
closed = 1;
nodes = (
(280,446,o),
(322,470,o),
(417,470,cs),
(506,470,l),
(506,480,ls),
(506,530,o),
(474,550,o),
(417,550,cs),
(251,550,o),
(190,481,o),
(190,331,cs),
(190,85,ls),
(190,35,o),
(210,-5,o),
(280,-5,cs),
(375,-5,o),
(485,74,o),
(556,198,c),
(556,60,ls),
(556,10,o),
(587,0,o),
(617,0,cs,{
name = hr01;
}),
(897,0,ls),
(932,0,o),
(967,12,o),
(967,70,c,{
name = hr02;
}),
(646,70,l),
(646,422,l),
(664,512,o),
(678,605,o),
(678,675,cs),
(678,738,o),
(647,760,o),
(573,760,cs),
(556,760,l),
(556,477,ls),
(556,198,o),
(375,75,o),
(280,75,c),
(280,331,ls)
);
}
);
width = 777;
}
);
unicode = 100;
},
{
glyphname = eth;
lastChange = "2023-02-03 14:58:37 +0000";
layers = (
{
anchors = (
{
name = bottom;
pos = (370,0);
},
{
name = top;
pos = (370,994);
}
);
background = {
shapes = (
{
closed = 1;
nodes = (
(391,572,o),
(404,560,o),
(421,560,cs),
(430,560,o),
(441,564,o),
(453,570,cs),
(511,599,l),
(555,544,o),
(568,468,o),
(568,350,cs),
(568,142,o),
(483,73,o),
(294,70,cs),
(280,70,l),
(280,281,ls),
(280,396,o),
(322,420,o),
(417,420,cs),
(476,420,l),
(476,430,ls),
(476,480,o),
(454,500,o),
(417,500,cs),
(251,500,o),
(190,431,o),
(190,281,cs),
(190,90,ls),
(190,40,o),
(205,0,o),
(280,0,cs),
(859,0,ls),
(894,0,o),
(929,12,o),
(929,70,c),
(533,70,l),
(614,125,o),
(658,219,o),
(658,350,cs),
(658,482,o),
(637,574,o),
(591,640,c),
(689,690,l),
(671,726,o),
(657,738,o),
(640,738,cs),
(631,738,o),
(621,734,o),
(609,728,cs),
(543,694,l),
(508,725,o),
(463,749,o),
(409,769,cs),
(382,779,o),
(370,780,o),
(362,780,cs),
(333,780,o),
(318,757,o),
(307,727,cs),
(304,719,l),
(361,697,ls),
(399,682,o),
(430,667,o),
(456,650,c),
(373,608,l,{
name = hr00;
})
);
}
);
};
layerId = master01;
shapes = (
{
closed = 1;
nodes = (
(391,572,o),
(404,560,o),
(421,560,cs),
(430,560,o),
(441,564,o),
(453,570,cs),
(511,599,l),
(555,544,o),
(568,468,o),
(568,350,cs),
(568,142,o),
(483,73,o),
(294,70,cs),
(280,70,l),
(280,281,ls),
(280,396,o),
(322,420,o),
(417,420,cs),
(476,420,l),
(476,430,ls),
(476,480,o),
(454,500,o),
(417,500,cs),
(251,500,o),
(190,431,o),
(190,281,cs),
(190,90,ls),
(190,40,o),
(205,0,o),
(280,0,cs),
(859,0,ls),
(894,0,o),
(929,12,o),
(929,70,c),
(533,70,l),
(614,125,o),
(658,219,o),
(658,350,cs),
(658,482,o),
(637,574,o),
(591,640,c),
(689,690,l),
(671,726,o),
(657,738,o),
(640,738,cs),
(631,738,o),
(621,734,o),
(609,728,cs),
(543,694,l),
(508,725,o),
(463,749,o),
(409,769,cs),
(382,779,o),
(370,780,o),
(362,780,cs),
(333,780,o),
(318,757,o),
(307,727,cs),
(304,719,l),
(361,697,ls),
(399,682,o),
(430,667,o),
(456,650,c),
(373,608,l,{
name = hr00;
})
);
}
);
width = 739;
}
);
unicode = 240;
},
{
glyphname = dcaron;
lastChange = "2023-02-08 08:58:39 +0000";
layers = (
{
background = {
shapes = (
{
closed = 1;
nodes = (
(280,446,o),
(322,470,o),
(417,470,cs),
(506,470,l),
(506,480,ls),
(506,530,o),
(474,550,o),
(417,550,cs),
(251,550,o),
(190,481,o),
(190,331,cs),
(190,85,ls),
(190,35,o),
(210,-5,o),
(280,-5,cs),
(375,-5,o),
(485,74,o),
(556,198,c),
(556,60,ls),
(556,10,o),
(587,0,o),
(617,0,cs,{
name = hr01;
}),
(897,0,ls),
(932,0,o),
(967,12,o),
(967,70,c,{
name = hr02;
}),
(646,70,l),
(646,422,l),
(664,512,o),
(678,605,o),
(678,675,cs),
(678,738,o),
(647,760,o),
(573,760,cs),
(556,760,l),
(556,477,ls),
(556,198,o),
(375,75,o),
(280,75,c),
(280,331,ls)
);
},
{
closed = 1;
nodes = (
(831,586,o),
(886,670,o),
(886,741,cs),
(886,798,o),
(863,823,o),
(813,823,cs),
(782,823,l),
(782,768,ls),
(782,655,o),
(764,614,o),
(747,572,c),
(784,541,l,{
name = hr00;
})
);
}
);
};
layerId = master01;
shapes = (
{
ref = d;
},
{
pos = (600,0);
ref = caroncomb.alt;
}
);
width = 777;
}
);
unicode = 271;
},
{
glyphname = dcroat;
lastChange = "2023-02-03 15:54:15 +0000";
layers = (
{
background = {
shapes = (
{
closed = 1;
nodes = (
(280,446,o),
(322,470,o),
(417,470,cs),
(506,470,l),
(506,480,ls),
(506,530,o),
(474,550,o),
(417,550,cs),
(251,550,o),
(190,481,o),
(190,331,cs),
(190,85,ls),
(190,35,o),
(210,-5,o),
(280,-5,cs),
(375,-5,o),
(485,74,o),
(556,198,c),
(556,60,ls),
(556,10,o),
(587,0,o),
(617,0,cs,{
name = hr01;
}),
(897,0,ls),
(932,0,o),
(967,12,o),
(967,70,c,{
name = hr02;
}),
(646,70,l),
(646,422,l),
(664,512,o),
(678,605,o),
(678,675,cs),
(678,738,o),
(647,760,o),
(573,760,cs),
(556,760,l),
(556,477,ls),
(556,198,o),
(375,75,o),
(280,75,c),
(280,331,ls)
);
},
{
closed = 1;
nodes = (
(731,617,o),
(741,642,o),
(741,687,c),
(427,687,ls),
(382,687,o),
(373,662,o),
(373,617,c),
(687,617,l,{
name = hr00;
})
);
}
);
};
layerId = master01;
shapes = (
{
closed = 1;
nodes = (
(687,617,l,{
name = hr00;
}),
(731,617,o),
(741,642,o),
(741,687,c),
(427,687,ls),
(382,687,o),
(373,662,o),
(373,617,c)
);
},
{
alignment = -1;
ref = d;
}
);
width = 777;
}
);
unicode = 273;
},
{
glyphname = e;
lastChange = "2023-02-08 08:43:52 +0000";
layers = (
{
anchors = (
{
name = bottom;
pos = (320,0);
},
{
name = ogonek;
pos = (639,37);
},
{
name = top;
pos = (400,540);
}
);
background = {
shapes = (
{
closed = 1;
nodes = (
(241,445,o),
(275,470,o),
(518,470,c),
(518,295,o),
(479,279,o),
(381,275,cs),
(302,272,l),
(302,251,ls),
(302,210,o),
(316,199,o),
(352,199,cs),
(533,199,o),
(608,255,o),
(608,461,cs),
(608,510,o),
(588,550,o),
(518,550,cs),
(191,550,o),
(150,471,o),
(150,241,cs),
(150,200,ls),
(150,38,o),
(165,0,o),
(383,0,cs),
(759,0,ls),
(794,0,o),
(829,12,o),
(829,70,c),
(383,70,ls),
(249,70,o),
(241,82,o),
(241,200,cs),
(241,240,ls,{
name = hr00;
})
);
}
);
};
layerId = master01;
shapes = (
{
closed = 1;
nodes = (
(241,445,o),
(275,470,o),
(518,470,c),
(518,295,o),
(479,279,o),
(381,275,cs),
(302,272,l),
(302,251,ls),
(302,210,o),
(316,199,o),
(352,199,cs),
(533,199,o),
(608,255,o),
(608,461,cs),
(608,510,o),
(588,550,o),
(518,550,cs),
(191,550,o),
(150,471,o),
(150,241,cs),
(150,200,ls),
(150,38,o),
(165,0,o),
(383,0,cs),
(759,0,ls),
(794,0,o),
(829,12,o),
(829,70,c),
(383,70,ls),
(249,70,o),
(241,82,o),
(241,200,cs),
(241,240,ls,{
name = hr00;
})
);
}
);
width = 639;
}
);
unicode = 101;
},
{
glyphname = eacute;
lastChange = "2023-02-03 15:54:28 +0000";
layers = (
{
background = {
shapes = (
{
closed = 1;
nodes = (
(241,445,o),
(275,470,o),
(518,470,c),
(518,295,o),
(479,279,o),
(381,275,cs),
(302,272,l),
(302,251,ls),
(302,210,o),
(316,199,o),
(352,199,cs),
(533,199,o),
(608,255,o),
(608,461,cs),
(608,510,o),
(588,550,o),
(518,550,cs),
(191,550,o),
(150,471,o),
(150,241,cs),
(150,200,ls),
(150,38,o),
(165,0,o),
(383,0,cs),
(759,0,ls),
(794,0,o),
(829,12,o),
(829,70,c),
(383,70,ls),
(249,70,o),
(241,82,o),
(241,200,cs),
(241,240,ls,{
name = hr00;
})
);
},
{
closed = 1;
nodes = (
(426,637,o),
(559,669,o),
(559,715,cs),
(559,728,o),
(552,746,o),
(535,772,cs),
(522,792,l),
(312,661,l),
(335,620,l)
);
}
);
};
layerId = master01;
shapes = (
{
ref = e;
},
{
pos = (113,0);
ref = acutecomb;
}
);
width = 639;
}
);
unicode = 233;
},
{
glyphname = ebreve;
lastChange = "2023-02-03 15:54:28 +0000";
layers = (
{
background = {
shapes = (
{
closed = 1;
nodes = (
(241,445,o),
(275,470,o),
(518,470,c),
(518,295,o),
(479,279,o),
(381,275,cs),
(302,272,l),
(302,251,ls),
(302,210,o),
(316,199,o),
(352,199,cs),
(533,199,o),
(608,255,o),
(608,461,cs),
(608,510,o),
(588,550,o),
(518,550,cs),
(191,550,o),
(150,471,o),
(150,241,cs),
(150,200,ls),
(150,38,o),
(165,0,o),
(383,0,cs),
(759,0,ls),
(794,0,o),
(829,12,o),
(829,70,c),
(383,70,ls),
(249,70,o),
(241,82,o),
(241,200,cs),
(241,240,ls,{
name = hr00;
})
);
},
{
closed = 1;
nodes = (
(248,759,l),
(308,659,o),
(349,621,o),
(400,621,cs),
(451,621,o),
(492,659,o),
(552,759,c),
(512,792,l),
(400,699,l),
(288,792,l,{
name = hr00;
})
);
}
);
};
layerId = master01;
shapes = (
{
ref = e;
},
{
pos = (19,0);
ref = brevecomb;
}
);
width = 639;
}
);
unicode = 277;
},
{
glyphname = ecaron;
lastChange = "2023-02-03 15:54:28 +0000";
layers = (
{
background = {
shapes = (
{
closed = 1;
nodes = (
(241,445,o),
(275,470,o),
(518,470,c),
(518,295,o),
(479,279,o),
(381,275,cs),
(302,272,l),
(302,251,ls),
(302,210,o),
(316,199,o),
(352,199,cs),
(533,199,o),
(608,255,o),
(608,461,cs),
(608,510,o),
(588,550,o),
(518,550,cs),
(191,550,o),
(150,471,o),
(150,241,cs),
(150,200,ls),
(150,38,o),
(165,0,o),
(383,0,cs),
(759,0,ls),
(794,0,o),
(829,12,o),
(829,70,c),
(383,70,ls),
(249,70,o),
(241,82,o),
(241,200,cs),
(241,240,ls,{
name = hr00;
})
);
},
{
closed = 1;
nodes = (
(380,621,l),
(420,621,l),
(565,752,l),
(541,792,l),
(480,779,o),
(424,746,o),
(400,718,c),
(379,743,o),
(317,780,o),
(259,792,c),
(235,752,l,{
name = hr00;
})
);
}
);
};
layerId = master01;
shapes = (
{
ref = e;
},
{
pos = (19,0);
ref = caroncomb;
}
);
width = 639;
}
);
unicode = 283;
},
{
glyphname = ecircumflex;
lastChange = "2023-02-03 15:54:28 +0000";
layers = (
{
background = {
shapes = (
{
closed = 1;
nodes = (
(241,445,o),
(275,470,o),
(518,470,c),
(518,295,o),
(479,279,o),
(381,275,cs),
(302,272,l),
(302,251,ls),
(302,210,o),
(316,199,o),
(352,199,cs),
(533,199,o),
(608,255,o),
(608,461,cs),
(608,510,o),
(588,550,o),
(518,550,cs),
(191,550,o),
(150,471,o),
(150,241,cs),
(150,200,ls),
(150,38,o),
(165,0,o),
(383,0,cs),
(759,0,ls),
(794,0,o),
(829,12,o),
(829,70,c),
(383,70,ls),
(249,70,o),
(241,82,o),
(241,200,cs),
(241,240,ls,{
name = hr00;
})
);
},
{
closed = 1;
nodes = (
(432,792,l),
(392,792,l),
(247,661,l),
(271,621,l),
(332,634,o),
(388,667,o),
(412,695,c),
(433,670,o),
(495,633,o),
(553,621,c),
(577,661,l)
);
}
);
};
layerId = master01;
shapes = (
{
ref = e;
},
{
pos = (19,0);
ref = circumflexcomb;
}
);
width = 639;
}
);
unicode = 234;
},
{
glyphname = edieresis;
lastChange = "2023-02-03 15:54:28 +0000";
layers = (
{
background = {
shapes = (
{
closed = 1;
nodes = (
(241,445,o),
(275,470,o),
(518,470,c),
(518,295,o),
(479,279,o),
(381,275,cs),
(302,272,l),
(302,251,ls),
(302,210,o),
(316,199,o),
(352,199,cs),
(533,199,o),
(608,255,o),
(608,461,cs),
(608,510,o),
(588,550,o),
(518,550,cs),
(191,550,o),
(150,471,o),
(150,241,cs),
(150,200,ls),
(150,38,o),
(165,0,o),
(383,0,cs),
(759,0,ls),
(794,0,o),
(829,12,o),
(829,70,c),
(383,70,ls),
(249,70,o),
(241,82,o),
(241,200,cs),
(241,240,ls,{
name = hr00;
})
);
},
{
closed = 1;
nodes = (
(228,670,o),
(248,643,o),
(289,643,cs),
(329,643,o),
(351,670,o),
(351,704,cs),
(351,737,o),
(329,766,o),
(289,766,cs),
(248,766,o),
(228,737,o),
(228,704,cs)
);
},
{
closed = 1;
nodes = (
(450,670,o),
(470,643,o),
(511,643,cs),
(551,643,o),
(573,670,o),
(573,704,cs),
(573,737,o),
(551,766,o),
(511,766,cs),
(470,766,o),
(450,737,o),
(450,704,cs)
);
}
);
};
layerId = master01;
shapes = (
{
ref = e;
},
{
pos = (164,0);
ref = dieresiscomb;
}
);
width = 639;
}
);
unicode = 235;
},
{
glyphname = edotaccent;
lastChange = "2023-02-03 15:54:28 +0000";
layers = (
{
background = {
shapes = (
{
closed = 1;
nodes = (
(241,445,o),
(275,470,o),
(518,470,c),
(518,295,o),
(479,279,o),
(381,275,cs),
(302,272,l),
(302,251,ls),
(302,210,o),
(316,199,o),
(352,199,cs),
(533,199,o),
(608,255,o),
(608,461,cs),
(608,510,o),
(588,550,o),
(518,550,cs),
(191,550,o),
(150,471,o),
(150,241,cs),
(150,200,ls),
(150,38,o),
(165,0,o),
(383,0,cs),
(759,0,ls),
(794,0,o),
(829,12,o),
(829,70,c),
(383,70,ls),
(249,70,o),
(241,82,o),
(241,200,cs),
(241,240,ls,{
name = hr00;
})
);
},
{
closed = 1;
nodes = (
(338,670,o),
(350,643,o),
(399,643,cs),
(447,643,o),
(461,670,o),
(461,704,cs),
(461,737,o),
(447,766,o),
(399,766,cs),
(350,766,o),
(338,737,o),
(338,704,cs,{
name = hr00;
})
);
}
);
};
layerId = master01;
shapes = (
{
ref = e;
},
{
pos = (164,0);
ref = dotaccentcomb;
}
);
width = 639;
}
);
unicode = 279;
},
{
glyphname = egrave;
lastChange = "2023-02-03 15:54:28 +0000";
layers = (
{
background = {
shapes = (
{
closed = 1;
nodes = (
(241,445,o),
(275,470,o),
(518,470,c),
(518,295,o),
(479,279,o),
(381,275,cs),
(302,272,l),
(302,251,ls),
(302,210,o),
(316,199,o),
(352,199,cs),
(533,199,o),
(608,255,o),
(608,461,cs),
(608,510,o),
(588,550,o),
(518,550,cs),
(191,550,o),
(150,471,o),
(150,241,cs),
(150,200,ls),
(150,38,o),
(165,0,o),
(383,0,cs),
(759,0,ls),
(794,0,o),
(829,12,o),
(829,70,c),
(383,70,ls),
(249,70,o),
(241,82,o),
(241,200,cs),
(241,240,ls,{
name = hr00;
})
);
},
{
closed = 1;
nodes = (
(293,792,l),
(280,772,ls),
(263,746,o),
(255,728,o),
(255,715,cs),
(255,669,o),
(388,637,o),
(480,620,c),
(502,661,l)
);
}
);
};
layerId = master01;
shapes = (
{
ref = e;
},
{
pos = (83,0);
ref = gravecomb;
}
);
width = 639;
}
);
unicode = 232;
},
{
glyphname = emacron;
lastChange = "2023-02-03 15:54:28 +0000";
layers = (
{
background = {
shapes = (
{
closed = 1;
nodes = (
(241,445,o),
(275,470,o),
(518,470,c),
(518,295,o),
(479,279,o),
(381,275,cs),
(302,272,l),
(302,251,ls),
(302,210,o),
(316,199,o),
(352,199,cs),
(533,199,o),
(608,255,o),
(608,461,cs),
(608,510,o),
(588,550,o),
(518,550,cs),
(191,550,o),
(150,471,o),
(150,241,cs),
(150,200,ls),
(150,38,o),
(165,0,o),
(383,0,cs),
(759,0,ls),
(794,0,o),
(829,12,o),
(829,70,c),
(383,70,ls),
(249,70,o),
(241,82,o),
(241,200,cs),
(241,240,ls,{
name = hr00;
})
);
},
{
closed = 1;
nodes = (
(560,669,ls),
(560,699,o),
(550,730,o),
(500,730,cs),
(240,730,l),
(240,704,ls),
(240,677,o),
(249,650,o),
(294,650,cs),
(560,650,l,{
name = hr00;
})
);
}
);
};
layerId = master01;
shapes = (
{
ref = e;
},
{
pos = (70,0);
ref = macroncomb;
}
);
width = 639;
}
);
unicode = 275;
},
{
glyphname = eogonek;
lastChange = "2023-02-08 08:43:52 +0000";
layers = (
{
background = {
shapes = (
{
closed = 1;
nodes = (
(241,445,o),
(275,470,o),
(518,470,c),
(518,295,o),
(479,279,o),
(381,275,cs),
(302,272,l),
(302,251,ls),
(302,210,o),
(316,199,o),
(352,199,cs),
(533,199,o),
(608,255,o),
(608,461,cs),
(608,510,o),
(588,550,o),
(518,550,cs),
(191,550,o),
(150,471,o),
(150,241,cs),
(150,200,ls),
(150,38,o),
(165,0,o),
(383,0,cs),
(759,0,ls),
(794,0,o),
(829,12,o),
(829,70,c),
(383,70,ls),
(249,70,o),
(241,82,o),
(241,200,cs),
(241,240,ls,{
name = hr00;
})
);
},
{
closed = 1;
nodes = (
(401,37,o),
(365,-36,o),
(365,-98,cs),
(365,-159,o),
(402,-238,o),
(517,-238,cs),
(593,-238,o),
(639,-217,o),
(639,-162,cs),
(639,-152,o),
(638,-141,o),
(635,-129,c),
(599,-150,o),
(565,-158,o),
(537,-158,cs),
(482,-158,o),
(452,-130,o),
(452,-81,cs),
(452,-29,o),
(494,0,o),
(553,0,c),
(553,37,l,{
name = hr00;
})
);
}
);
};
layerId = master01;
shapes = (
{
ref = e;
},
{
pos = (40,0);
ref = ogonekcomb;
}
);
width = 639;
}
);
unicode = 281;
},
{
glyphname = f;
lastChange = "2023-02-03 14:58:37 +0000";
layers = (
{
anchors = (
{
name = bottom;
pos = (206,0);
},
{
name = top;
pos = (206,994);
}
);
background = {
shapes = (
{
closed = 1;
nodes = (
(190,-206,o),
(138,-230,o),
(13,-230,cs),
(-43,-230,l),
(-43,-241,ls),
(-43,-290,o),
(-29,-310,o),
(13,-310,cs),
(202,-310,o),
(280,-241,o),
(280,30,cs),
(280,460,l),
(591,460,ls),
(626,460,o),
(661,482,o),
(661,540,c),
(285,540,l),
(301,674,o),
(355,690,o),
(457,690,cs),
(513,690,l),
(513,701,ls),
(513,750,o),
(499,770,o),
(457,770,cs),
(296,770,o),
(216,720,o),
(195,540,c),
(130,540,ls),
(95,540,o),
(60,518,o),
(60,460,c),
(190,460,l),
(190,30,ls,{
name = hr00;
})
);
}
);
};
layerId = master01;
shapes = (
{
closed = 1;
nodes = (
(190,-206,o),
(138,-230,o),
(13,-230,cs),
(-43,-230,l),
(-43,-241,ls),
(-43,-290,o),
(-29,-310,o),
(13,-310,cs),
(202,-310,o),
(280,-241,o),
(280,30,cs),
(280,460,l),
(591,460,ls),
(626,460,o),
(661,482,o),
(661,540,c),
(285,540,l),
(301,674,o),
(355,690,o),
(457,690,cs),
(513,690,l),
(513,701,ls),
(513,750,o),
(499,770,o),
(457,770,cs),
(296,770,o),
(216,720,o),
(195,540,c),
(130,540,ls),
(95,540,o),
(60,518,o),
(60,460,c),
(190,460,l),
(190,30,ls,{
name = hr00;
})
);
}
);
width = 411;
}
);
unicode = 102;
},
{
glyphname = g;
lastChange = "2023-02-08 08:53:40 +0000";
layers = (
{
anchors = (
{
name = bottom;
pos = (389,-310);
},
{
name = top;
pos = (439,540);
}
);
background = {
shapes = (
{
closed = 1;
nodes = (
(506,530,o),
(474,550,o),
(417,550,cs),
(251,550,o),
(190,481,o),
(190,331,cs),
(190,85,ls),
(190,35,o),
(210,-5,o),
(280,-5,cs),
(375,-5,o),
(485,74,o),
(556,198,c),
(556,30,ls),
(556,-206,o),
(504,-230,o),
(379,-230,cs),
(323,-230,l),
(323,-241,ls),
(323,-290,o),
(337,-310,o),
(379,-310,cs),
(561,-310,o),
(639,-246,o),
(645,0,c,{
name = hr01;
}),
(897,0,ls),
(932,0,o),
(967,12,o),
(967,70,c,{
name = hr02;
}),
(646,70,l),
(646,349,l),
(658,379,o),
(667,413,o),
(667,449,cs),
(667,509,o),
(643,540,o),
(592,540,cs),
(556,540,l),
(556,477,ls),
(556,198,o),
(375,75,o),
(280,75,c),
(280,331,ls),
(280,446,o),
(322,470,o),
(417,470,cs,{
name = hr03;
}),
(506,470,l),
(506,480,ls)
);
}
);
};
layerId = master01;
shapes = (
{
closed = 1;
nodes = (
(506,530,o),
(474,550,o),
(417,550,cs),
(251,550,o),
(190,481,o),
(190,331,cs),
(190,85,ls),
(190,35,o),
(210,-5,o),
(280,-5,cs),
(375,-5,o),
(485,74,o),
(556,198,c),
(556,30,ls),
(556,-206,o),
(504,-230,o),
(379,-230,cs),
(323,-230,l),
(323,-241,ls),
(323,-290,o),
(337,-310,o),
(379,-310,cs),
(561,-310,o),
(639,-246,o),
(645,0,c,{
name = hr01;
}),
(897,0,ls),
(932,0,o),
(967,12,o),
(967,70,c,{
name = hr02;
}),
(646,70,l),
(646,349,l),
(658,379,o),
(667,413,o),
(667,449,cs),
(667,509,o),
(643,540,o),
(592,540,cs),
(556,540,l),
(556,477,ls),
(556,198,o),
(375,75,o),
(280,75,c),
(280,331,ls),
(280,446,o),
(322,470,o),
(417,470,cs,{
name = hr03;
}),
(506,470,l),
(506,480,ls)
);
}
);
width = 777;
}
);
unicode = 103;
},
{
glyphname = gbreve;
lastChange = "2023-02-08 08:53:40 +0000";
layers = (
{
background = {
shapes = (
{
closed = 1;
nodes = (
(506,530,o),
(474,550,o),
(417,550,cs),
(251,550,o),
(190,481,o),
(190,331,cs),
(190,85,ls),
(190,35,o),
(210,-5,o),
(280,-5,cs),
(375,-5,o),
(485,74,o),
(556,198,c),
(556,30,ls),
(556,-206,o),
(504,-230,o),
(379,-230,cs),
(323,-230,l),
(323,-241,ls),
(323,-290,o),
(337,-310,o),
(379,-310,cs),
(561,-310,o),
(639,-246,o),
(645,0,c,{
name = hr01;
}),
(897,0,ls),
(932,0,o),
(967,12,o),
(967,70,c,{
name = hr02;
}),
(646,70,l),
(646,349,l),
(658,379,o),
(667,413,o),
(667,449,cs),
(667,509,o),
(643,540,o),
(592,540,cs),
(556,540,l),
(556,477,ls),
(556,198,o),
(375,75,o),
(280,75,c),
(280,331,ls),
(280,446,o),
(322,470,o),
(417,470,cs,{
name = hr03;
}),
(506,470,l),
(506,480,ls)
);
},
{
closed = 1;
nodes = (
(286,759,l),
(346,659,o),
(387,621,o),
(438,621,cs),
(489,621,o),
(530,659,o),
(590,759,c),
(550,792,l),
(438,699,l),
(326,792,l,{
name = hr00;
})
);
}
);
};
layerId = master01;
shapes = (
{
ref = g;
},
{
pos = (58,0);
ref = brevecomb;
}
);
width = 777;
}
);
unicode = 287;
},
{
glyphname = gcircumflex;
lastChange = "2023-02-08 08:53:40 +0000";
layers = (
{
background = {
shapes = (
{
closed = 1;
nodes = (
(506,530,o),
(474,550,o),
(417,550,cs),
(251,550,o),
(190,481,o),
(190,331,cs),
(190,85,ls),
(190,35,o),
(210,-5,o),
(280,-5,cs),
(375,-5,o),
(485,74,o),
(556,198,c),
(556,30,ls),
(556,-206,o),
(504,-230,o),
(379,-230,cs),
(323,-230,l),
(323,-241,ls),
(323,-290,o),
(337,-310,o),
(379,-310,cs),
(561,-310,o),
(639,-246,o),
(645,0,c,{
name = hr01;
}),
(897,0,ls),
(932,0,o),
(967,12,o),
(967,70,c,{
name = hr02;
}),
(646,70,l),
(646,349,l),
(658,379,o),
(667,413,o),
(667,449,cs),
(667,509,o),
(643,540,o),
(592,540,cs),
(556,540,l),
(556,477,ls),
(556,198,o),
(375,75,o),
(280,75,c),
(280,331,ls),
(280,446,o),
(322,470,o),
(417,470,cs,{
name = hr03;
}),
(506,470,l),
(506,480,ls)
);
},
{
closed = 1;
nodes = (
(408,792,l),
(368,792,l),
(223,661,l),
(247,621,l),
(308,634,o),
(364,667,o),
(388,695,c),
(409,670,o),
(471,633,o),
(529,621,c),
(553,661,l,{
name = hr00;
})
);
}
);
};
layerId = master01;
shapes = (
{
ref = g;
},
{
pos = (58,0);
ref = circumflexcomb;
}
);
width = 777;
}
);
unicode = 285;
},
{
glyphname = gcommaaccent;
lastChange = "2023-02-08 08:53:47 +0000";
layers = (
{
background = {
shapes = (
{
closed = 1;
nodes = (
(506,530,o),
(474,550,o),
(417,550,cs),
(251,550,o),
(190,481,o),
(190,331,cs),
(190,85,ls),
(190,35,o),
(210,-5,o),
(280,-5,cs),
(375,-5,o),
(485,74,o),
(556,198,c),
(556,30,ls),
(556,-206,o),
(504,-230,o),
(379,-230,cs),
(323,-230,l),
(323,-241,ls),
(323,-290,o),
(337,-310,o),
(379,-310,cs),
(561,-310,o),
(639,-246,o),
(645,0,c,{
name = hr01;
}),
(897,0,ls),
(932,0,o),
(967,12,o),
(967,70,c,{
name = hr02;
}),
(646,70,l),
(646,349,l),
(658,379,o),
(667,413,o),
(667,449,cs),
(667,509,o),
(643,540,o),
(592,540,cs),
(556,540,l),
(556,477,ls),
(556,198,o),
(375,75,o),
(280,75,c),
(280,331,ls),
(280,446,o),
(322,470,o),
(417,470,cs,{
name = hr03;
}),
(506,470,l),
(506,480,ls)
);
},
{
closed = 1;
nodes = (
(424,880,o),
(369,796,o),
(369,725,cs),
(369,668,o),
(392,643,o),
(442,643,cs),
(473,643,l),
(473,698,ls),
(473,811,o),
(491,852,o),
(508,894,c),
(471,925,l,{
name = hr00;
})
);
}
);
};
layerId = master01;
shapes = (
{
ref = g;
},
{
pos = (329,-170);
ref = commaturnedabovecomb;
}
);
width = 777;
}
);
unicode = 291;
},
{
glyphname = gdotaccent;
lastChange = "2023-02-08 08:53:40 +0000";
layers = (
{
background = {
shapes = (
{
closed = 1;
nodes = (
(506,530,o),
(474,550,o),
(417,550,cs),
(251,550,o),
(190,481,o),
(190,331,cs),
(190,85,ls),
(190,35,o),
(210,-5,o),
(280,-5,cs),
(375,-5,o),
(485,74,o),
(556,198,c),
(556,30,ls),
(556,-206,o),
(504,-230,o),
(379,-230,cs),
(323,-230,l),
(323,-241,ls),
(323,-290,o),
(337,-310,o),
(379,-310,cs),
(561,-310,o),
(639,-246,o),
(645,0,c,{
name = hr01;
}),
(897,0,ls),
(932,0,o),
(967,12,o),
(967,70,c,{
name = hr02;
}),
(646,70,l),
(646,349,l),
(658,379,o),
(667,413,o),
(667,449,cs),
(667,509,o),
(643,540,o),
(592,540,cs),
(556,540,l),
(556,477,ls),
(556,198,o),
(375,75,o),
(280,75,c),
(280,331,ls),
(280,446,o),
(322,470,o),
(417,470,cs,{
name = hr03;
}),
(506,470,l),
(506,480,ls)
);
},
{
closed = 1;
nodes = (
(377,670,o),
(389,643,o),
(438,643,cs),
(486,643,o),
(500,670,o),
(500,704,cs),
(500,737,o),
(486,766,o),
(438,766,cs),
(389,766,o),
(377,737,o),
(377,704,cs,{
name = hr00;
})
);
}
);
};
layerId = master01;
shapes = (
{
ref = g;
},
{
pos = (203,0);
ref = dotaccentcomb;
}
);
width = 777;
}
);
unicode = 289;
},
{
glyphname = h;
lastChange = "2023-02-08 08:54:11 +0000";
layers = (
{
anchors = (
{
name = bottom;
pos = (394,0);
},
{
name = center;
pos = (394,497);
},
{
name = top;
pos = (236,710);
}
);
background = {
shapes = (
{
closed = 1;
nodes = (
(280,63,ls),
(280,342,o),
(472,480,o),
(567,480,c),
(567,60,ls),
(567,10,o),
(597,0,o),
(627,0,cs),
(907,0,ls),
(942,0,o),
(977,12,o),
(977,70,c),
(657,70,l),
(657,470,ls),
(657,520,o),
(637,560,o),
(567,560,cs),
(470,560,o),
(354,472,o),
(280,340,c),
(280,740,ls),
(280,751,o),
(271,760,o),
(260,760,cs),
(210,760,ls),
(199,760,o),
(190,751,o),
(190,740,cs),
(190,191,l),
(177,160,o),
(169,127,o),
(169,91,cs),
(169,30,o),
(193,0,o),
(244,0,cs),
(280,0,l,{
name = hr00;
})
);
}
);
};
layerId = master01;
shapes = (
{
closed = 1;
nodes = (
(280,63,ls),
(280,342,o),
(472,480,o),
(567,480,c),
(567,60,ls),
(567,10,o),
(597,0,o),
(627,0,cs),
(907,0,ls),
(942,0,o),
(977,12,o),
(977,70,c),
(657,70,l),
(657,470,ls),
(657,520,o),
(637,560,o),
(567,560,cs),
(470,560,o),
(354,472,o),
(280,340,c),
(280,740,ls),
(280,751,o),
(271,760,o),
(260,760,cs),
(210,760,ls),
(199,760,o),
(190,751,o),
(190,740,cs),
(190,191,l),
(177,160,o),
(169,127,o),
(169,91,cs),
(169,30,o),
(193,0,o),
(244,0,cs),
(280,0,l,{
name = hr00;
})
);
}
);
width = 787;
}
);
unicode = 104;
},
{
glyphname = hbar;
lastChange = "2023-02-08 08:54:01 +0000";
layers = (
{
background = {
shapes = (
{
closed = 1;
nodes = (
(280,63,ls),
(280,342,o),
(472,480,o),
(567,480,c),
(567,60,ls),
(567,10,o),
(597,0,o),
(627,0,cs),
(907,0,ls),
(942,0,o),
(977,12,o),
(977,70,c),
(657,70,l),
(657,470,ls),
(657,520,o),
(637,560,o),
(567,560,cs),
(470,560,o),
(354,472,o),
(280,340,c),
(280,740,ls),
(280,751,o),
(271,760,o),
(260,760,cs),
(210,760,ls),
(199,760,o),
(190,751,o),
(190,740,cs),
(190,191,l),
(177,160,o),
(169,127,o),
(169,91,cs),
(169,30,o),
(193,0,o),
(244,0,cs),
(280,0,l,{
name = hr00;
})
);
},
{
closed = 1;
nodes = (
(453,617,o),
(463,642,o),
(463,687,c),
(149,687,ls),
(104,687,o),
(95,662,o),
(95,617,c),
(409,617,l,{
name = hr00;
})
);
}
);
};
layerId = master01;
shapes = (
{
closed = 1;
nodes = (
(409,617,l,{
name = hr00;
}),
(453,617,o),
(463,642,o),
(463,687,c),
(149,687,ls),
(104,687,o),
(95,662,o),
(95,617,c)
);
},
{
alignment = -1;
ref = h;
}
);
width = 787;
}
);
unicode = 295;
},
{
glyphname = hcircumflex;
lastChange = "2023-02-08 08:54:11 +0000";
layers = (
{
background = {
shapes = (
{
closed = 1;
nodes = (
(280,63,ls),
(280,342,o),
(472,480,o),
(567,480,c),
(567,60,ls),
(567,10,o),
(597,0,o),
(627,0,cs),
(907,0,ls),
(942,0,o),
(977,12,o),
(977,70,c),
(657,70,l),
(657,470,ls),
(657,520,o),
(637,560,o),
(567,560,cs),
(470,560,o),
(354,472,o),
(280,340,c),
(280,740,ls),
(280,751,o),
(271,760,o),
(260,760,cs),
(210,760,ls),
(199,760,o),
(190,751,o),
(190,740,cs),
(190,191,l),
(177,160,o),
(169,127,o),
(169,91,cs),
(169,30,o),
(193,0,o),
(244,0,cs),
(280,0,l,{
name = hr00;
})
);
},
{
closed = 1;
nodes = (
(257,942,l),
(217,942,l),
(72,811,l),
(96,771,l),
(157,784,o),
(213,817,o),
(237,845,c),
(258,820,o),
(320,783,o),
(378,771,c),
(402,811,l,{
name = hr00;
})
);
}
);
};
layerId = master01;
shapes = (
{
ref = h;
},
{
pos = (51,0);
ref = circumflexcomb.case;
}
);
width = 787;
}
);
unicode = 293;
},
{
glyphname = i;
lastChange = "2023-02-08 08:54:47 +0000";
layers = (
{
anchors = (
{
name = bottom;
pos = (206,0);
}
);
background = {
shapes = (
{
closed = 1;
nodes = (
(280,520,ls),
(279,531,o),
(270,540,o),
(259,540,cs),
(210,540,ls),
(199,540,o),
(190,531,o),
(190,520,cs),
(190,60,ls),
(190,10,o),
(221,0,o),
(251,0,cs),
(531,0,ls),
(566,0,o),
(601,12,o),
(601,70,c),
(280,70,l,{
name = hr00;
})
);
},
{
closed = 1;
nodes = (
(174,670,o),
(186,643,o),
(235,643,cs),
(283,643,o),
(297,670,o),
(297,704,cs),
(297,737,o),
(283,766,o),
(235,766,cs),
(186,766,o),
(174,737,o),
(174,704,cs)
);
}
);
};
layerId = master01;
shapes = (
{
ref = idotless;
},
{
ref = dotaccentcomb;
}
);
width = 411;
}
);
unicode = 105;
},
{
glyphname = idotless;
lastChange = "2023-02-08 08:55:01 +0000";
layers = (
{
anchors = (
{
name = bottom;
pos = (206,0);
},
{
name = ogonek;
pos = (429,37);
},
{
name = top;
pos = (236,540);
}
);
background = {
shapes = (
{
closed = 1;
nodes = (
(280,520,ls),
(279,531,o),
(270,540,o),
(259,540,cs),
(210,540,ls),
(199,540,o),
(190,531,o),
(190,520,cs),
(190,60,ls),
(190,10,o),
(221,0,o),
(251,0,cs),
(531,0,ls),
(566,0,o),
(601,12,o),
(601,70,c),
(280,70,l,{
name = hr00;
})
);
}
);
};
layerId = master01;
shapes = (
{
closed = 1;
nodes = (
(280,520,ls),
(280,531,o),
(270,540,o),
(259,540,cs),
(210,540,ls),
(199,540,o),
(190,531,o),
(190,520,cs),
(190,60,ls),
(190,10,o),
(221,0,o),
(251,0,cs),
(531,0,ls),
(566,0,o),
(601,12,o),
(601,70,c),
(280,70,l,{
name = hr00;
})
);
}
);
width = 411;
}
);
unicode = 305;
},
{
glyphname = iacute;
lastChange = "2023-02-08 08:54:47 +0000";
layers = (
{
background = {
shapes = (
{
closed = 1;
nodes = (
(280,520,ls),
(279,531,o),
(270,540,o),
(259,540,cs),
(210,540,ls),
(199,540,o),
(190,531,o),
(190,520,cs),
(190,60,ls),
(190,10,o),
(221,0,o),
(251,0,cs),
(531,0,ls),
(566,0,o),
(601,12,o),
(601,70,c),
(280,70,l,{
name = hr00;
})
);
},
{
closed = 1;
nodes = (
(256,637,o),
(389,669,o),
(389,715,cs),
(389,728,o),
(382,746,o),
(365,772,cs),
(352,792,l),
(142,661,l),
(165,620,l)
);
}
);
};
layerId = master01;
shapes = (
{
ref = idotless;
},
{
pos = (-51,0);
ref = acutecomb;
}
);
width = 411;
}
);
unicode = 237;
},
{
glyphname = ibreve;
lastChange = "2023-02-08 08:54:47 +0000";
layers = (
{
background = {
shapes = (
{
closed = 1;
nodes = (
(280,520,ls),
(279,531,o),
(270,540,o),
(259,540,cs),
(210,540,ls),
(199,540,o),
(190,531,o),
(190,520,cs),
(190,60,ls),
(190,10,o),
(221,0,o),
(251,0,cs),
(531,0,ls),
(566,0,o),
(601,12,o),
(601,70,c),
(280,70,l,{
name = hr00;
})
);
},
{
closed = 1;
nodes = (
(83,759,l),
(143,659,o),
(184,621,o),
(235,621,cs),
(286,621,o),
(327,659,o),
(387,759,c),
(347,792,l),
(235,699,l),
(123,792,l,{
name = hr00;
})
);
}
);
};
layerId = master01;
shapes = (
{
ref = idotless;
},
{
pos = (-145,0);
ref = brevecomb;
}
);
width = 411;
}
);
unicode = 301;
},
{
glyphname = icircumflex;
lastChange = "2023-02-08 08:54:47 +0000";
layers = (
{
background = {
shapes = (
{
closed = 1;
nodes = (
(280,520,ls),
(279,531,o),
(270,540,o),
(259,540,cs),
(210,540,ls),
(199,540,o),
(190,531,o),
(190,520,cs),
(190,60,ls),
(190,10,o),
(221,0,o),
(251,0,cs),
(531,0,ls),
(566,0,o),
(601,12,o),
(601,70,c),
(280,70,l,{
name = hr00;
})
);
},
{
closed = 1;
nodes = (
(254,792,l),
(214,792,l),
(69,661,l),
(93,621,l),
(154,634,o),
(210,667,o),
(234,695,c),
(255,670,o),
(317,633,o),
(375,621,c),
(399,661,l)
);
}
);
};
layerId = master01;
shapes = (
{
ref = idotless;
},
{
pos = (-145,0);
ref = circumflexcomb;
}
);
width = 411;
}
);
unicode = 238;
},
{
glyphname = idieresis;
lastChange = "2023-02-08 08:54:47 +0000";
layers = (
{
background = {
shapes = (
{
closed = 1;
nodes = (
(280,520,ls),
(279,531,o),
(270,540,o),
(259,540,cs),
(210,540,ls),
(199,540,o),
(190,531,o),
(190,520,cs),
(190,60,ls),
(190,10,o),
(221,0,o),
(251,0,cs),
(531,0,ls),
(566,0,o),
(601,12,o),
(601,70,c),
(280,70,l,{
name = hr00;
})
);
},
{
closed = 1;
nodes = (
(63,670,o),
(83,643,o),
(124,643,cs),
(164,643,o),
(186,670,o),
(186,704,cs),
(186,737,o),
(164,766,o),
(124,766,cs),
(83,766,o),
(63,737,o),
(63,704,cs)
);
},
{
closed = 1;
nodes = (
(285,670,o),
(305,643,o),
(346,643,cs),
(386,643,o),
(408,670,o),
(408,704,cs),
(408,737,o),
(386,766,o),
(346,766,cs),
(305,766,o),
(285,737,o),
(285,704,cs)
);
}
);
};
layerId = master01;
shapes = (
{
ref = idotless;
},
{
ref = dieresiscomb;
}
);
width = 411;
}
);
unicode = 239;
},
{
glyphname = igrave;
lastChange = "2023-02-08 08:54:47 +0000";
layers = (
{
background = {
shapes = (
{
closed = 1;
nodes = (
(280,520,ls),
(279,531,o),
(270,540,o),
(259,540,cs),
(210,540,ls),
(199,540,o),
(190,531,o),
(190,520,cs),
(190,60,ls),
(190,10,o),
(221,0,o),
(251,0,cs),
(531,0,ls),
(566,0,o),
(601,12,o),
(601,70,c),
(280,70,l,{
name = hr00;
})
);
},
{
closed = 1;
nodes = (
(150,792,l),
(137,772,ls),
(120,746,o),
(112,728,o),
(112,715,cs),
(112,669,o),
(245,637,o),
(337,620,c),
(359,661,l)
);
}
);
};
layerId = master01;
shapes = (
{
ref = idotless;
},
{
pos = (-81,0);
ref = gravecomb;
}
);
width = 411;
}
);
unicode = 236;
},
{
glyphname = ij;
lastChange = "2023-02-08 08:54:39 +0000";
layers = (
{
background = {
shapes = (
{
closed = 1;
nodes = (
(280,520,ls),
(279,531,o),
(270,540,o),
(259,540,cs),
(210,540,ls),
(199,540,o),
(190,531,o),
(190,520,cs),
(190,60,ls),
(190,10,o),
(221,0,o),
(251,0,cs),
(531,0,ls),
(566,0,o),
(601,12,o),
(601,70,c),
(280,70,l,{
name = hr00;
})
);
},
{
closed = 1;
nodes = (
(174,670,o),
(186,643,o),
(235,643,cs),
(283,643,o),
(297,670,o),
(297,704,cs),
(297,737,o),
(283,766,o),
(235,766,cs),
(186,766,o),
(174,737,o),
(174,704,cs)
);
},
{
closed = 1;
nodes = (
(601,30,ls),
(601,-206,o),
(549,-230,o),
(424,-230,cs),
(368,-230,l),
(368,-241,ls),
(368,-290,o),
(382,-310,o),
(424,-310,cs),
(606,-310,o),
(684,-246,o),
(690,0,c),
(942,0,ls),
(977,0,o),
(1012,12,o),
(1012,70,c),
(691,70,l),
(691,520,l),
(690,531,o),
(681,540,o),
(670,540,cs),
(621,540,ls),
(610,540,o),
(601,531,o),
(601,520,c,{
name = hr00;
})
);
},
{
closed = 1;
nodes = (
(585,670,o),
(597,643,o),
(646,643,cs),
(694,643,o),
(708,670,o),
(708,704,cs),
(708,737,o),
(694,766,o),
(646,766,cs),
(597,766,o),
(585,737,o),
(585,704,cs)
);
}
);
};
layerId = master01;
shapes = (
{
ref = i;
},
{
pos = (411,0);
ref = j;
}
);
width = 822;
}
);
unicode = 307;
},
{
glyphname = imacron;
lastChange = "2023-02-08 08:54:47 +0000";
layers = (
{
background = {
shapes = (
{
closed = 1;
nodes = (
(280,520,ls),
(279,531,o),
(270,540,o),
(259,540,cs),
(210,540,ls),
(199,540,o),
(190,531,o),
(190,520,cs),
(190,60,ls),
(190,10,o),
(221,0,o),
(251,0,cs),
(531,0,ls),
(566,0,o),
(601,12,o),
(601,70,c),
(280,70,l,{
name = hr00;
})
);
},
{
closed = 1;
nodes = (
(396,669,ls),
(396,699,o),
(386,730,o),
(336,730,cs),
(76,730,l),
(76,704,ls),
(76,677,o),
(85,650,o),
(130,650,cs),
(396,650,l,{
name = hr00;
})
);
}
);
};
layerId = master01;
shapes = (
{
ref = idotless;
},
{
pos = (-94,0);
ref = macroncomb;
}
);
width = 411;
}
);
unicode = 299;
},
{
glyphname = iogonek;
lastChange = "2023-02-08 08:55:01 +0000";
layers = (
{
background = {
shapes = (
{
closed = 1;
nodes = (
(280,520,ls),
(279,531,o),
(270,540,o),
(259,540,cs),
(210,540,ls),
(199,540,o),
(190,531,o),
(190,520,cs),
(190,60,ls),
(190,10,o),
(221,0,o),
(251,0,cs),
(531,0,ls),
(566,0,o),
(601,12,o),
(601,70,c),
(280,70,l,{
name = hr00;
})
);
},
{
closed = 1;
nodes = (
(174,670,o),
(186,643,o),
(235,643,cs),
(283,643,o),
(297,670,o),
(297,704,cs),
(297,737,o),
(283,766,o),
(235,766,cs),
(186,766,o),
(174,737,o),
(174,704,cs)
);
},
{
closed = 1;
nodes = (
(191,37,o),
(155,-36,o),
(155,-98,cs),
(155,-159,o),
(192,-238,o),
(307,-238,cs),
(383,-238,o),
(429,-217,o),
(429,-162,cs),
(429,-152,o),
(428,-141,o),
(425,-129,c),
(389,-150,o),
(355,-158,o),
(327,-158,cs),
(272,-158,o),
(242,-130,o),
(242,-81,cs),
(242,-29,o),
(284,0,o),
(343,0,c),
(343,37,l,{
name = hr00;
})
);
}
);
};
layerId = master01;
shapes = (
{
ref = idotless;
},
{
ref = dotaccentcomb;
},
{
pos = (-170,0);
ref = ogonekcomb;
}
);
width = 411;
}
);
unicode = 303;
},
{
glyphname = itilde;
lastChange = "2023-02-08 08:54:47 +0000";
layers = (
{
background = {
shapes = (
{
closed = 1;
nodes = (
(280,520,ls),
(279,531,o),
(270,540,o),
(259,540,cs),
(210,540,ls),
(199,540,o),
(190,531,o),
(190,520,cs),
(190,60,ls),
(190,10,o),
(221,0,o),
(251,0,cs),
(531,0,ls),
(566,0,o),
(601,12,o),
(601,70,c),
(280,70,l,{
name = hr00;
})
);
},
{
closed = 1;
nodes = (
(72,739,o),
(70,722,o),
(70,709,cs),
(70,665,o),
(108,633,o),
(158,633,cs),
(177,633,o),
(198,637,o),
(220,647,cs),
(254,662,ls),
(282,674,o),
(301,680,o),
(314,680,cs,{
name = hr01;
}),
(333,680,o),
(344,672,o),
(356,661,cs),
(382,636,l),
(401,657,o),
(403,674,o),
(403,687,cs),
(403,731,o),
(365,763,o),
(315,763,cs),
(296,763,o),
(275,759,o),
(253,749,cs),
(219,734,ls),
(191,722,o),
(172,716,o),
(159,716,cs,{
name = hr02;
}),
(140,716,o),
(129,724,o),
(117,735,cs),
(91,760,l)
);
}
);
};
layerId = master01;
shapes = (
{
ref = idotless;
},
{
pos = (-102,0);
ref = tildecomb;
}
);
width = 411;
}
);
unicode = 297;
},
{
glyphname = j;
lastChange = "2023-02-08 08:55:20 +0000";
layers = (
{
background = {
shapes = (
{
closed = 1;
nodes = (
(190,30,ls),
(190,-206,o),
(138,-230,o),
(13,-230,cs),
(-43,-230,l),
(-43,-241,ls),
(-43,-290,o),
(-29,-310,o),
(13,-310,cs),
(195,-310,o),
(273,-246,o),
(279,0,c),
(531,0,ls),
(566,0,o),
(601,12,o),
(601,70,c),
(280,70,l),
(280,520,l),
(279,531,o),
(270,540,o),
(259,540,cs),
(210,540,ls),
(199,540,o),
(190,531,o),
(190,520,c,{
name = hr00;
})
);
},
{
closed = 1;
nodes = (
(174,670,o),
(186,643,o),
(235,643,cs),
(283,643,o),
(297,670,o),
(297,704,cs),
(297,737,o),
(283,766,o),
(235,766,cs),
(186,766,o),
(174,737,o),
(174,704,cs)
);
}
);
};
layerId = master01;
shapes = (
{
ref = jdotless;
},
{
ref = dotaccentcomb;
}
);
width = 411;
}
);
unicode = 106;
},
